<?xml version="1.0" encoding="UTF-8"?>
<svg id="Layer_2" data-name="Layer 2" xmlns="http://www.w3.org/2000/svg" viewBox="0 0 70.6 70.6">
  <defs>
    <style>
      .cls-1 {
        fill: #1e1e1e;
      }
    </style>
  </defs>
  <g id="Layer_1-2" data-name="Layer 1">
    <polygon class="cls-1" points="70.6 35.3 64.32 41.08 67.92 48.81 59.9 51.73 60.26 60.26 51.73 59.9 48.81 67.92 41.08 64.32 35.3 70.6 29.53 64.32 21.79 67.92 18.87 59.9 10.34 60.26 10.7 51.73 2.68 48.81 6.29 41.08 0 35.3 6.29 29.53 2.68 21.79 10.7 18.87 10.34 10.34 18.87 10.7 21.79 2.68 29.53 6.29 35.3 0 41.08 6.29 48.81 2.68 51.73 10.7 60.26 10.34 59.9 18.87 67.92 21.79 64.32 29.53 70.6 35.3"/>
  </g>
</svg>