<?xml version="1.0" encoding="UTF-8"?>
<svg id="Layer_2" data-name="Layer 2" xmlns="http://www.w3.org/2000/svg" viewBox="0 0 70.19 70.6">
  <defs>
    <style>
      .cls-1 {
        fill: #1e1e1e;
      }
    </style>
  </defs>
  <g id="Layer_1-2" data-name="Layer 1">
    <path class="cls-1" d="m61.71,35.3h0c0-.77.53-1.42,1.27-1.55l5.94-1.05c.84-.15,1.4-.95,1.25-1.78l-.62-3.5c-.15-.84-.95-1.4-1.78-1.25l-5.93,1.05c-.74.13-1.46-.29-1.71-.99,0-.02-.02-.04-.02-.06-.26-.7.03-1.48.67-1.86l5.22-3.01c.74-.43.99-1.37.56-2.1l-1.78-3.08c-.42-.74-1.37-.99-2.1-.56l-5.23,3.02c-.65.37-1.47.23-1.94-.34-.01-.02-.03-.03-.04-.05-.48-.57-.48-1.41,0-1.98l3.88-4.62c.55-.65.46-1.62-.19-2.17l-2.72-2.29c-.65-.55-1.62-.46-2.17.19l-3.88,4.62c-.48.57-1.3.71-1.95.34-.02-.01-.04-.02-.06-.03-.65-.37-.93-1.15-.68-1.86l2.06-5.67c.29-.8-.12-1.68-.92-1.97l-3.34-1.22c-.8-.29-1.68.12-1.97.92l-2.06,5.67c-.26.7-.98,1.12-1.71.99-.02,0-.04,0-.06-.01-.74-.13-1.27-.77-1.27-1.51V1.54c0-.85-.69-1.54-1.54-1.54h-3.56c-.85,0-1.54.69-1.54,1.54v6.04c0,.75-.54,1.38-1.27,1.51-.02,0-.04,0-.06.01-.73.13-1.46-.28-1.71-.99l-2.06-5.67c-.29-.8-1.17-1.21-1.97-.92l-3.34,1.22c-.8.29-1.21,1.17-.92,1.97l2.06,5.67c.26.7-.03,1.48-.68,1.86-.02.01-.04.02-.06.03-.65.38-1.47.23-1.95-.34l-3.88-4.62c-.55-.65-1.52-.74-2.17-.19l-2.72,2.29c-.65.55-.74,1.52-.19,2.17l3.88,4.62c.48.57.48,1.41,0,1.98-.01.02-.03.03-.04.05-.48.57-1.3.72-1.94.34l-5.23-3.02c-.74-.43-1.68-.17-2.1.56l-1.78,3.08c-.42.74-.17,1.68.56,2.1l5.22,3.01c.65.37.93,1.16.67,1.86,0,.02-.02.04-.02.06-.25.7-.97,1.12-1.71.99l-5.93-1.05c-.84-.15-1.64.41-1.78,1.25L.02,30.92c-.15.84.41,1.64,1.25,1.78l5.94,1.05c.74.13,1.27.78,1.27,1.54h0v.03c0,.75-.53,1.4-1.27,1.54l-5.94,1.05c-.84.15-1.4.95-1.25,1.78l.62,3.5c.15.84.95,1.4,1.78,1.25l5.93-1.05c.74-.13,1.46.29,1.71.99,0,.02.02.04.02.06.26.7-.03,1.48-.67,1.86l-5.22,3.01c-.74.43-.99,1.37-.56,2.1l1.78,3.08c.43.74,1.37.99,2.1.56l5.23-3.02c.65-.37,1.47-.23,1.94.34.01.02.03.03.04.05.48.57.48,1.41,0,1.98l-3.88,4.62c-.55.65-.46,1.62.19,2.17l2.72,2.29c.65.55,1.62.46,2.17-.19l3.88-4.62c.48-.57,1.3-.71,1.95-.34.02.01.04.02.06.03.65.37.93,1.15.68,1.86l-2.06,5.67c-.29.8.12,1.68.92,1.97l3.34,1.22c.8.29,1.68-.12,1.97-.92l2.06-5.67c.26-.7.98-1.12,1.71-.99.02,0,.04,0,.06.01.74.13,1.27.76,1.27,1.51v6.04c0,.85.69,1.54,1.54,1.54h3.56c.85,0,1.54-.69,1.54-1.54v-6.04c0-.75.54-1.38,1.27-1.51.02,0,.04,0,.06-.01.73-.13,1.46.28,1.71.99l2.06,5.67c.29.8,1.17,1.21,1.97.92l3.34-1.22c.8-.29,1.21-1.17.92-1.97l-2.06-5.67c-.26-.7.03-1.48.68-1.86.02-.01.04-.02.06-.03.65-.37,1.47-.23,1.95.34l3.88,4.62c.55.65,1.52.74,2.17.19l2.72-2.29c.65-.55.74-1.52.19-2.17l-3.88-4.62c-.48-.57-.48-1.41,0-1.98.01-.02.03-.03.04-.05.48-.57,1.3-.72,1.94-.34l5.23,3.02c.74.43,1.68.17,2.1-.56l1.78-3.08c.42-.74.17-1.68-.56-2.1l-5.22-3.01c-.65-.37-.93-1.16-.67-1.86,0-.02.02-.04.02-.06.25-.7.97-1.12,1.71-.99l5.93,1.05c.84.15,1.64-.41,1.78-1.25l.62-3.5c.15-.84-.41-1.64-1.25-1.78l-5.94-1.05c-.74-.13-1.27-.78-1.27-1.54h0Z"/>
  </g>
</svg>