<?xml version="1.0" encoding="UTF-8"?>
<svg id="Layer_2" data-name="Layer 2" xmlns="http://www.w3.org/2000/svg" viewBox="0 0 74.01 70.6">
  <defs>
    <style>
      .cls-1 {
        fill: #1e1e1e;
      }
    </style>
  </defs>
  <g id="Layer_1-2" data-name="Layer 1">
    <path class="cls-1" d="m72.35,37.43l-16.34,4.05,10.84,12.88c1.48,1.75-.38,4.31-2.51,3.45l-15.6-6.34,1.21,16.78c.16,2.29-2.84,3.26-4.05,1.32l-8.89-14.29-8.89,14.29c-1.21,1.95-4.22.97-4.05-1.32l1.21-16.78-15.6,6.34c-2.12.86-3.98-1.7-2.51-3.45l10.84-12.88L1.67,37.43c-2.22-.55-2.22-3.71,0-4.26l16.34-4.05-10.84-12.88c-1.48-1.75.38-4.31,2.51-3.45l15.6,6.34-1.21-16.78c-.16-2.29,2.84-3.26,4.05-1.32l8.89,14.29L45.9,1.04c1.21-1.95,4.22-.97,4.05,1.32l-1.21,16.78,15.6-6.34c2.12-.86,3.98,1.7,2.51,3.45l-10.84,12.88,16.34,4.05c2.22.55,2.22,3.71,0,4.26Z"/>
  </g>
</svg>