<?xml version="1.0" encoding="UTF-8"?>
<svg id="Layer_2" data-name="Layer 2" xmlns="http://www.w3.org/2000/svg" viewBox="0 0 70.6 70.6">
  <defs>
    <style>
      .cls-1 {
        fill: #1e1e1e;
      }
    </style>
  </defs>
  <g id="Layer_1-2" data-name="Layer 1">
    <path class="cls-1" d="m70.6,35.3c-6.16-.85-10.8-.86-14.44-.19,3.58,3.04,7.31,7.05,10.97,11.79-5.01-2.53-9.06-3.82-12.58-4.29,2.13,3.86,4.05,8.44,5.71,13.5-3.57-2.79-6.88-5.1-9.99-6.69.45,4.56.36,9.95-.67,16.58-2.04-4.65-4.02-8.57-6.14-11.52-1.55,4.63-4.1,9.95-8.17,16.11.85-6.16.86-10.8.19-14.44-3.04,3.58-7.05,7.31-11.79,10.97,2.53-5.01,3.82-9.06,4.29-12.58-3.86,2.13-8.44,4.05-13.5,5.71,2.79-3.57,5.1-6.88,6.69-9.99-4.56.45-9.95.36-16.58-.67,4.65-2.04,8.57-4.02,11.52-6.14-4.63-1.55-9.95-4.1-16.11-8.17,6.16.85,10.8.86,14.44.19-3.58-3.04-7.31-7.05-10.97-11.79,5.01,2.53,9.06,3.82,12.58,4.29-2.12-3.86-4.05-8.44-5.71-13.5,3.57,2.79,6.88,5.1,9.99,6.69-.45-4.56-.36-9.95.67-16.58,2.04,4.65,4.02,8.57,6.14,11.52,1.55-4.63,4.1-9.95,8.17-16.11-.85,6.16-.86,10.8-.19,14.44,3.04-3.58,7.06-7.31,11.79-10.97-2.53,5.01-3.82,9.06-4.29,12.58,3.86-2.13,8.44-4.05,13.5-5.71-2.79,3.57-5.1,6.88-6.69,9.99,4.56-.45,9.95-.36,16.58.67-4.65,2.04-8.57,4.02-11.52,6.14,4.63,1.55,9.95,4.1,16.11,8.17Z"/>
  </g>
</svg>