<?xml version="1.0" encoding="UTF-8"?>
<svg id="Layer_2" data-name="Layer 2" xmlns="http://www.w3.org/2000/svg" viewBox="0 0 70.6 70.6">
  <defs>
    <style>
      .cls-1 {
        fill: #1e1e1e;
      }
    </style>
  </defs>
  <g id="Layer_1-2" data-name="Layer 1">
    <path class="cls-1" d="m60.61,42.09l9.83-3.5c.1-1.08.16-2.18.16-3.29s-.06-2.21-.16-3.29l-9.83-3.5,6.77-7.94c-.92-2.01-2.03-3.91-3.29-5.69l-10.26,1.9,1.9-10.26c-1.78-1.27-3.69-2.37-5.69-3.3l-7.94,6.77L38.59.16c-1.08-.1-2.18-.16-3.29-.16s-2.21.06-3.29.16l-3.5,9.83-7.94-6.77c-2.01.92-3.91,2.03-5.69,3.3l1.9,10.26-10.26-1.9c-1.27,1.78-2.37,3.69-3.3,5.69l6.77,7.94L.16,32.01c-.1,1.08-.16,2.18-.16,3.29s.06,2.21.16,3.29l9.83,3.5-6.77,7.94c.92,2.01,2.03,3.91,3.3,5.69l10.26-1.9-1.9,10.26c1.78,1.27,3.69,2.37,5.69,3.3l7.94-6.77,3.5,9.83c1.08.1,2.18.16,3.29.16s2.21-.06,3.29-.16l3.5-9.83,7.94,6.77c2.01-.92,3.91-2.03,5.69-3.3l-1.9-10.26,10.26,1.9c1.27-1.78,2.37-3.69,3.3-5.69l-6.77-7.94Z"/>
  </g>
</svg>