<?xml version="1.0" encoding="UTF-8"?>
<svg id="Layer_2" data-name="Layer 2" xmlns="http://www.w3.org/2000/svg" viewBox="0 0 70.59 70.6">
  <defs>
    <style>
      .cls-1 {
        fill: #1e1e1e;
      }
    </style>
  </defs>
  <g id="Layer_1-2" data-name="Layer 1">
    <path class="cls-1" d="m59.95,41.9c.19-.72.84-1.23,1.59-1.23h3.69c2.96,0,5.36-2.4,5.36-5.37,0-2.96-2.4-5.37-5.36-5.37h-3.42c-.78,0-1.46-.52-1.66-1.27v-.03c-.21-.75.12-1.55.8-1.94l2.77-1.6c2.55-1.47,3.63-4.71,2.24-7.3-1.44-2.68-4.8-3.62-7.41-2.11l-3,1.73c-.67.39-1.51.28-2.06-.27l-.02-.02c-.55-.55-.67-1.4-.28-2.07l1.62-2.8c1.47-2.55.79-5.9-1.71-7.44-2.59-1.6-5.96-.73-7.47,1.88l-1.76,3.04c-.38.66-1.16.99-1.9.79h-.03c-.75-.2-1.26-.88-1.26-1.65v-3.29C40.66,2.65,38.4.09,35.46,0c-3.04-.09-5.53,2.35-5.53,5.37v3.59c0,.75-.51,1.42-1.23,1.61h-.03c-.73.21-1.51-.11-1.89-.77l-1.68-2.91c-1.47-2.55-4.71-3.63-7.3-2.24-2.68,1.44-3.62,4.8-2.11,7.41l1.83,3.17c.37.65.27,1.46-.26,1.99l-.02.02c-.53.54-1.36.65-2.01.27l-2.97-1.71c-2.55-1.47-5.9-.79-7.44,1.71-1.6,2.59-.73,5.96,1.88,7.47l3.19,1.84c.65.37.96,1.13.77,1.85,0,0,0,.02,0,.02-.19.72-.84,1.23-1.59,1.23h-3.69C2.4,29.93,0,32.34,0,35.3c0,2.96,2.4,5.37,5.36,5.37h3.42c.78,0,1.46.52,1.66,1.27v.03c.21.75-.12,1.55-.8,1.94l-2.77,1.6c-2.55,1.47-3.63,4.71-2.24,7.3,1.44,2.68,4.8,3.62,7.41,2.11l3-1.73c.67-.39,1.51-.28,2.06.27l.02.02c.55.55.67,1.4.28,2.07l-1.62,2.8c-1.47,2.55-.79,5.9,1.71,7.44,2.59,1.6,5.96.74,7.47-1.88l1.76-3.04c.38-.66,1.16-.99,1.9-.79h.03c.75.2,1.26.88,1.26,1.65v3.29c0,2.94,2.26,5.5,5.2,5.59,3.04.09,5.53-2.35,5.53-5.37v-3.59c0-.75.51-1.42,1.23-1.61h.03c.73-.21,1.51.11,1.89.77l1.68,2.91c1.47,2.55,4.71,3.63,7.3,2.24,2.68-1.44,3.62-4.8,2.11-7.41l-1.83-3.17c-.37-.65-.27-1.46.26-1.99l.02-.02c.53-.54,1.36-.65,2.01-.27l2.97,1.71c2.55,1.47,5.9.79,7.44-1.71,1.6-2.59.73-5.96-1.88-7.47l-3.19-1.84c-.65-.37-.96-1.13-.77-1.85,0,0,0-.02,0-.02Z"/>
  </g>
</svg>