<?xml version="1.0" encoding="UTF-8"?>
<svg id="Layer_2" data-name="Layer 2" xmlns="http://www.w3.org/2000/svg" viewBox="0 0 95.94 70.6">
  <defs>
    <style>
      .cls-1 {
        fill: #1e1e1e;
      }
    </style>
  </defs>
  <g id="Layer_1-2" data-name="Layer 1">
    <path class="cls-1" d="m93.14,35.3c4.76,5.07,3.36,9.91-3.55,12.94,1.85,5.76-1.8,9.72-9.68,10.57-1.16,5.8-6.53,8.49-14.36,7.12-4.12,5.08-10.69,6.11-17.58,2.61-6.89,3.5-13.46,2.47-17.58-2.61-7.82,1.37-13.2-1.33-14.36-7.12-7.88-.85-11.54-4.81-9.68-10.57-6.91-3.03-8.31-7.87-3.55-12.94-4.76-5.07-3.36-9.91,3.55-12.94-1.85-5.76,1.8-9.72,9.68-10.57,1.16-5.8,6.53-8.49,14.36-7.12,4.12-5.08,10.69-6.11,17.58-2.61,6.89-3.5,13.46-2.47,17.58,2.61,7.82-1.37,13.2,1.33,14.36,7.12,7.88.85,11.54,4.81,9.68,10.57,6.91,3.03,8.31,7.87,3.55,12.94Z"/>
  </g>
</svg>