<?xml version="1.0" encoding="UTF-8"?>
<svg id="Layer_2" data-name="Layer 2" xmlns="http://www.w3.org/2000/svg" viewBox="0 0 70.99 70.6">
  <defs>
    <style>
      .cls-1 {
        fill: #1e1e1e;
      }
    </style>
  </defs>
  <g id="Layer_1-2" data-name="Layer 1">
    <polygon class="cls-1" points="70.99 35.3 67.4 38.66 70.22 42.68 66.01 45.22 67.92 49.74 63.28 51.34 64.21 56.17 59.33 56.76 59.24 61.68 54.35 61.26 53.24 66.04 48.54 64.61 46.46 69.07 42.17 66.68 39.2 70.6 35.49 67.38 31.78 70.6 28.82 66.68 24.52 69.07 22.44 64.61 17.74 66.04 16.64 61.25 11.74 61.68 11.65 56.76 6.78 56.16 7.71 51.34 3.06 49.74 4.98 45.22 .77 42.68 3.59 38.66 0 35.3 3.59 31.95 .77 27.92 4.98 25.39 3.06 20.86 7.71 19.26 6.78 14.44 11.65 13.84 11.74 8.92 16.64 9.35 17.74 4.56 22.44 5.99 24.52 1.54 28.82 3.92 31.78 0 35.49 3.22 39.2 0 42.17 3.92 46.46 1.54 48.54 5.99 53.24 4.56 54.35 9.35 59.24 8.93 59.33 13.84 64.21 14.44 63.28 19.26 67.92 20.86 66.01 25.39 70.22 27.92 67.4 31.94 70.99 35.3"/>
  </g>
</svg>