<?xml version="1.0" encoding="UTF-8"?>
<svg id="Layer_2" data-name="Layer 2" xmlns="http://www.w3.org/2000/svg" viewBox="0 0 70.6 70.6">
  <defs>
    <style>
      .cls-1 {
        fill: #1e1e1e;
      }
    </style>
  </defs>
  <g id="Layer_1-2" data-name="Layer 1">
    <path class="cls-1" d="m68.99,19.98L50.62,1.61c-2.15-2.15-5.64-2.15-7.79,0l-3.64,3.64c-2.15,2.15-5.64,2.15-7.79,0l-3.64-3.64c-2.15-2.15-5.64-2.15-7.79,0L1.61,19.98c-2.15,2.15-2.15,5.64,0,7.79l3.64,3.64c2.15,2.15,2.15,5.64,0,7.79l-3.64,3.64c-2.15,2.15-2.15,5.64,0,7.79l18.37,18.37c2.15,2.15,5.64,2.15,7.79,0l3.64-3.64c2.15-2.15,5.64-2.15,7.79,0l3.64,3.64c2.15,2.15,5.64,2.15,7.79,0l18.37-18.37c2.15-2.15,2.15-5.64,0-7.79l-3.64-3.64c-2.15-2.15-2.15-5.64,0-7.79l3.64-3.64c2.15-2.15,2.15-5.64,0-7.79Z"/>
  </g>
</svg>