<?xml version="1.0" encoding="UTF-8"?>
<svg id="Layer_2" data-name="Layer 2" xmlns="http://www.w3.org/2000/svg" viewBox="0 0 70.6 70.6">
  <defs>
    <style>
      .cls-1 {
        fill: #1e1e1e;
      }
    </style>
  </defs>
  <g id="Layer_1-2" data-name="Layer 1">
    <path class="cls-1" d="m65.62,36.97c9.08,9.89,5.3,18.52-7.62,18.68-1.29.02-2.34,1.07-2.35,2.35-.15,12.92-8.79,16.7-18.68,7.62-.95-.87-2.38-.87-3.33,0-9.89,9.08-18.52,5.3-18.68-7.62-.02-1.29-1.07-2.34-2.35-2.35-12.92-.15-16.7-8.79-7.62-18.68.87-.95.87-2.38,0-3.33C-4.09,23.75-.31,15.11,12.61,14.96c1.29-.02,2.34-1.07,2.35-2.35.15-12.92,8.79-16.7,18.68-7.62.95.87,2.38.87,3.33,0,9.89-9.08,18.52-5.3,18.68,7.62.02,1.29,1.07,2.34,2.35,2.35,12.92.15,16.7,8.79,7.62,18.68-.87.95-.87,2.38,0,3.33Z"/>
  </g>
</svg>