<?xml version="1.0" encoding="UTF-8"?>
<svg id="Layer_2" data-name="Layer 2" xmlns="http://www.w3.org/2000/svg" viewBox="0 0 70.6 70.6">
  <defs>
    <style>
      .cls-1 {
        fill: #1e1e1e;
      }
    </style>
  </defs>
  <g id="Layer_1-2" data-name="Layer 1">
    <path class="cls-1" d="m67.58,37.86l2.98-1.06c.02-.5.04-1,.04-1.5s-.02-1-.04-1.5l-2.98-1.06c-4.72-1.68-6.29-7.56-3.04-11.37l2.05-2.41c-.46-.89-.97-1.75-1.5-2.6l-3.1.57c-4.93.91-9.24-3.4-8.33-8.33l.57-3.1c-.84-.54-1.71-1.04-2.6-1.5l-2.41,2.05c-3.81,3.25-9.69,1.67-11.37-3.04L36.8.04c-.5-.02-1-.04-1.5-.04s-1,.02-1.5.04l-1.06,2.98c-1.68,4.72-7.56,6.29-11.37,3.04l-2.41-2.05c-.89.46-1.75.97-2.6,1.5l.57,3.1c.91,4.93-3.4,9.24-8.33,8.33l-3.1-.57c-.54.84-1.04,1.71-1.5,2.6l2.05,2.41c3.25,3.81,1.67,9.69-3.04,11.37L.04,33.8c-.02.5-.04,1-.04,1.5s.02,1,.04,1.5l2.98,1.06c4.72,1.68,6.29,7.56,3.04,11.37l-2.05,2.41c.46.89.97,1.75,1.5,2.6l3.1-.57c4.93-.91,9.24,3.4,8.33,8.33l-.57,3.1c.84.54,1.71,1.04,2.6,1.5l2.41-2.05c3.81-3.25,9.69-1.67,11.37,3.04l1.06,2.98c.5.02,1,.04,1.5.04s1-.02,1.5-.04l1.06-2.98c1.68-4.72,7.56-6.29,11.37-3.04l2.41,2.05c.89-.46,1.75-.97,2.6-1.5l-.57-3.1c-.91-4.93,3.4-9.24,8.33-8.33l3.1.57c.54-.84,1.04-1.71,1.5-2.6l-2.05-2.41c-3.25-3.81-1.67-9.69,3.04-11.37Z"/>
  </g>
</svg>