<?xml version="1.0" encoding="UTF-8"?>
<svg id="Layer_2" data-name="Layer 2" xmlns="http://www.w3.org/2000/svg" viewBox="0 0 70.6 70.6">
  <defs>
    <style>
      .cls-1 {
        fill: #1e1e1e;
      }
    </style>
  </defs>
  <g id="Layer_1-2" data-name="Layer 1">
    <path class="cls-1" d="m70.6,35.3c0,4.39-6.46,7.47-8.04,11.29-1.64,3.96.69,10.69-2.29,13.67-2.98,2.98-9.71.65-13.67,2.29-3.82,1.58-6.9,8.04-11.29,8.04s-7.47-6.46-11.29-8.04c-3.96-1.64-10.69.69-13.67-2.29-2.98-2.98-.65-9.71-2.29-13.67-1.58-3.82-8.04-6.9-8.04-11.29s6.46-7.47,8.04-11.29c1.64-3.96-.69-10.69,2.29-13.67s9.71-.65,13.67-2.29c3.82-1.58,6.9-8.04,11.29-8.04s7.47,6.46,11.29,8.04c3.96,1.64,10.69-.69,13.67,2.29,2.98,2.98.65,9.71,2.29,13.67,1.58,3.82,8.04,6.9,8.04,11.29Z"/>
  </g>
</svg>