<?xml version="1.0" encoding="UTF-8"?>
<svg id="Layer_2" data-name="Layer 2" xmlns="http://www.w3.org/2000/svg" viewBox="0 0 95.94 70.6">
  <defs>
    <style>
      .cls-1 {
        fill: #1e1e1e;
      }
    </style>
  </defs>
  <g id="Layer_1-2" data-name="Layer 1">
    <path class="cls-1" d="m95.94,35.3c-9.51,3.91-10.58,7.63-3.77,13.74-10.71.66-13.52,3.71-10.28,11.22-10.2-2.39-14.35-.31-15.25,7.57-8.3-5.01-13.36-4.22-18.67,2.77-5.31-7-10.37-7.79-18.67-2.77-.9-7.88-5.04-9.95-15.25-7.57,3.24-7.51.43-10.56-10.28-11.22,6.81-6.11,5.74-9.83-3.77-13.74,9.51-3.91,10.58-7.63,3.77-13.74,10.71-.66,13.52-3.71,10.28-11.22,10.2,2.39,14.35.31,15.25-7.57,8.3,5.01,13.36,4.22,18.67-2.77,5.31,7,10.37,7.79,18.67,2.77.9,7.88,5.04,9.95,15.25,7.57-3.24,7.51-.43,10.56,10.28,11.22-6.81,6.11-5.74,9.83,3.77,13.74Z"/>
  </g>
</svg>