<?xml version="1.0" encoding="UTF-8"?>
<svg id="Layer_2" data-name="Layer 2" xmlns="http://www.w3.org/2000/svg" viewBox="0 0 70.6 70.6">
  <defs>
    <style>
      .cls-1 {
        fill: #1e1e1e;
      }
    </style>
  </defs>
  <g id="Layer_1-2" data-name="Layer 1">
    <polygon class="cls-1" points="70.6 35.3 59.5 40.12 67.92 48.82 55.82 49.01 60.26 60.26 49.01 55.82 48.82 67.92 40.12 59.5 35.3 70.6 30.48 59.5 21.79 67.92 21.6 55.82 10.34 60.26 14.78 49.01 2.68 48.82 11.1 40.12 0 35.3 11.1 30.48 2.68 21.79 14.78 21.6 10.34 10.34 21.6 14.78 21.79 2.68 30.48 11.1 35.3 0 40.12 11.1 48.82 2.68 49.01 14.78 60.26 10.34 55.82 21.6 67.92 21.79 59.5 30.48 70.6 35.3"/>
  </g>
</svg>