<?xml version="1.0" encoding="UTF-8"?>
<svg id="Layer_2" data-name="Layer 2" xmlns="http://www.w3.org/2000/svg" viewBox="0 0 70.6 70.6">
  <defs>
    <style>
      .cls-1 {
        fill: #1e1e1e;
      }
    </style>
  </defs>
  <g id="Layer_1-2" data-name="Layer 1">
    <path class="cls-1" d="m69.07,47.43c.67-1.85,1.18-3.77,1.53-5.75-5.41-1.22-9.09-3.62-9.09-6.38s3.68-5.15,9.09-6.38c-.36-1.98-.87-3.9-1.53-5.75-5.3,1.65-9.69,1.41-11.07-.98-1.38-2.39.61-6.3,4.68-10.07-1.28-1.52-2.69-2.92-4.21-4.21-3.76,4.07-7.68,6.06-10.07,4.68-2.39-1.38-2.62-5.77-.98-11.07-1.85-.67-3.77-1.18-5.75-1.53-1.22,5.41-3.62,9.09-6.38,9.09s-5.15-3.68-6.38-9.09c-1.98.36-3.9.87-5.75,1.53,1.65,5.3,1.41,9.69-.98,11.07-2.39,1.38-6.3-.61-10.07-4.68-1.52,1.28-2.92,2.69-4.21,4.21,4.07,3.76,6.06,7.68,4.68,10.07-1.38,2.39-5.77,2.62-11.07.98-.67,1.85-1.18,3.77-1.53,5.75,5.41,1.22,9.09,3.62,9.09,6.38s-3.68,5.15-9.09,6.38c.36,1.98.87,3.9,1.53,5.75,5.3-1.65,9.69-1.41,11.07.98,1.38,2.39-.61,6.3-4.68,10.07,1.28,1.52,2.69,2.92,4.21,4.21,3.76-4.07,7.68-6.06,10.07-4.68,2.39,1.38,2.62,5.77.98,11.07,1.85.67,3.77,1.18,5.75,1.53,1.22-5.41,3.62-9.09,6.38-9.09s5.15,3.68,6.38,9.09c1.98-.36,3.9-.87,5.75-1.53-1.65-5.3-1.41-9.69.98-11.07,2.39-1.38,6.3.61,10.07,4.68,1.52-1.28,2.92-2.69,4.21-4.21-4.07-3.76-6.06-7.68-4.68-10.07,1.38-2.39,5.77-2.62,11.07-.98Z"/>
  </g>
</svg>