<?xml version="1.0" encoding="UTF-8"?>
<svg id="Layer_2" data-name="Layer 2" xmlns="http://www.w3.org/2000/svg" viewBox="0 0 70.96 70.6">
  <defs>
    <style>
      .cls-1 {
        fill: #1e1e1e;
      }
    </style>
  </defs>
  <g id="Layer_1-2" data-name="Layer 1">
    <path class="cls-1" d="m70.2,42.69s0-.01,0-.02c.1-.46-.17-.92-.62-1.08l-7.35-2.54c-.95-.33-.8-1.71.19-1.83l7.69-.97c.48-.06.83-.47.83-.95h0c0-.48-.36-.89-.83-.95l-7.69-.97c-.99-.13-1.14-1.51-.19-1.83l7.35-2.54c.45-.15.72-.62.62-1.08,0,0,0-.01,0-.02-.1-.46-.53-.78-1-.74l-7.76.66c-1,.08-1.43-1.23-.57-1.75l6.67-4.03c.4-.24.57-.75.38-1.19,0,0,0-.01,0-.02-.19-.43-.68-.65-1.13-.51l-7.45,2.26c-.96.29-1.65-.91-.92-1.6l5.67-5.33c.34-.32.4-.86.12-1.24,0,0,0-.01-.01-.02-.28-.38-.8-.49-1.22-.26l-6.81,3.76c-.88.48-1.81-.55-1.23-1.37l4.44-6.38c.27-.39.22-.92-.13-1.24,0,0-.01-.01-.02-.02-.35-.32-.89-.31-1.24,0l-5.88,5.08c-.76.65-1.88-.16-1.49-1.08l3.03-7.17c.18-.44.02-.95-.39-1.18,0,0-.01,0-.02-.01-.41-.24-.93-.12-1.22.25l-4.71,6.21c-.6.8-1.87.23-1.68-.75l1.47-7.65c.09-.46-.18-.93-.63-1.07,0,0-.01,0-.02,0-.45-.15-.94.07-1.14.5l-3.3,7.05c-.42.91-1.78.62-1.8-.38l-.16-7.78c0-.47-.37-.87-.84-.92,0,0-.02,0-.03,0-.47-.05-.9.27-1.01.73l-1.76,7.56c-.23.98-1.62.98-1.84,0l-1.76-7.56c-.11-.46-.54-.78-1.01-.73,0,0-.02,0-.03,0-.47.05-.83.45-.84.92l-.16,7.78c-.02,1-1.38,1.29-1.8.38l-3.3-7.05c-.2-.43-.69-.65-1.14-.5,0,0-.01,0-.02,0-.45.15-.71.61-.63,1.07l1.47,7.65c.19.98-1.08,1.55-1.68.75l-4.71-6.21c-.29-.38-.81-.49-1.22-.25,0,0-.01,0-.02.01-.41.24-.57.75-.39,1.18l3.03,7.17c.39.92-.73,1.74-1.49,1.08l-5.88-5.08c-.36-.31-.89-.31-1.24,0,0,0-.01.01-.02.02-.35.32-.41.85-.13,1.24l4.44,6.38c.57.82-.36,1.85-1.23,1.37l-6.81-3.76c-.41-.23-.94-.12-1.22.26,0,0,0,.01-.01.02-.28.38-.22.91.12,1.24l5.67,5.33c.73.68.03,1.89-.92,1.6l-7.45-2.26c-.45-.14-.94.08-1.13.51,0,0,0,.01,0,.02-.19.43-.03.94.38,1.19l6.67,4.03c.86.52.43,1.84-.57,1.75l-7.76-.66c-.47-.04-.9.27-1,.74,0,0,0,.01,0,.02-.1.46.17.92.62,1.08l7.35,2.54c.95.33.8,1.71-.19,1.83l-7.71.97c-.47.06-.82.46-.82.93v.02c0,.47.35.87.82.93l7.71.97c.99.13,1.14,1.51.19,1.83l-7.35,2.54c-.45.15-.72.62-.62,1.08,0,0,0,.01,0,.02.1.46.53.78,1,.74l7.76-.66c1-.08,1.43,1.23.57,1.75l-6.67,4.03c-.4.24-.57.75-.38,1.19,0,0,0,.01,0,.02.19.43.68.65,1.13.51l7.45-2.26c.96-.29,1.65.91.92,1.6l-5.67,5.33c-.34.32-.4.86-.12,1.24,0,0,0,.01.01.02.28.38.8.49,1.22.26l6.81-3.76c.88-.48,1.81.55,1.23,1.37l-4.44,6.38c-.27.39-.22.92.13,1.24,0,0,.01.01.02.02.35.32.89.31,1.24,0l5.88-5.08c.76-.65,1.88.16,1.49,1.08l-3.03,7.17c-.18.44-.02.95.39,1.18,0,0,.01,0,.02.01.41.24.93.12,1.22-.25l4.71-6.21c.6-.8,1.87-.23,1.68.75l-1.47,7.65c-.09.46.18.93.63,1.07,0,0,.01,0,.02,0,.45.15.94-.07,1.14-.5l3.3-7.05c.42-.91,1.78-.62,1.8.38l.16,7.78c0,.47.37.87.84.92,0,0,.02,0,.03,0,.47.05.9-.27,1.01-.73l1.76-7.56c.23-.98,1.62-.98,1.84,0l1.76,7.56c.11.46.54.78,1.01.73,0,0,.02,0,.03,0,.47-.05.83-.45.84-.92l.16-7.78c.02-1,1.38-1.29,1.8-.38l3.3,7.05c.2.43.69.65,1.14.5,0,0,.01,0,.02,0,.45-.15.71-.61.63-1.07l-1.47-7.65c-.19-.98,1.08-1.55,1.68-.75l4.71,6.21c.29.38.81.49,1.22.25,0,0,.01,0,.02-.01.41-.24.57-.75.39-1.18l-3.03-7.17c-.39-.92.73-1.74,1.49-1.08l5.88,5.08c.36.31.89.31,1.24,0,0,0,.01-.01.02-.02.35-.32.4-.85.13-1.24l-4.44-6.38c-.57-.82.36-1.85,1.23-1.37l6.81,3.76c.41.23.94.12,1.22-.26,0,0,0-.01.01-.02.28-.38.22-.91-.12-1.24l-5.67-5.33c-.73-.69-.03-1.89.92-1.6l7.45,2.26c.45.14.94-.08,1.13-.51,0,0,0-.01,0-.02.19-.43.03-.94-.38-1.19l-6.67-4.03c-.86-.52-.43-1.84.57-1.75l7.76.66c.47.04.9-.27,1-.74Z"/>
  </g>
</svg>