<?xml version="1.0" encoding="UTF-8"?>
<svg id="Layer_2" data-name="Layer 2" xmlns="http://www.w3.org/2000/svg" viewBox="0 0 70.6 70.6">
  <defs>
    <style>
      .cls-1 {
        fill: #1e1e1e;
      }
    </style>
  </defs>
  <g id="Layer_1-2" data-name="Layer 1">
    <path class="cls-1" d="m70.6,35.3c0,3.02-3.51,5.54-4.25,8.32-.77,2.88.98,6.81-.48,9.33-1.48,2.56-5.77,2.99-7.85,5.07-2.08,2.08-2.51,6.37-5.07,7.85-2.52,1.46-6.45-.29-9.33.48-2.78.74-5.3,4.25-8.32,4.25s-5.54-3.51-8.32-4.25c-2.88-.77-6.81.98-9.33-.48-2.56-1.48-2.99-5.77-5.07-7.85-2.08-2.08-6.37-2.51-7.85-5.07-1.46-2.52.29-6.45-.48-9.33-.74-2.78-4.25-5.3-4.25-8.32s3.51-5.54,4.25-8.32c.77-2.88-.98-6.81.48-9.33,1.48-2.56,5.77-2.99,7.85-5.07,2.08-2.08,2.51-6.37,5.07-7.85,2.52-1.46,6.45.29,9.33-.48,2.78-.74,5.3-4.25,8.32-4.25s5.54,3.51,8.32,4.25c2.88.77,6.81-.98,9.33.48,2.56,1.48,2.99,5.77,5.07,7.85,2.08,2.08,6.37,2.51,7.85,5.07,1.46,2.52-.29,6.45.48,9.33.74,2.78,4.25,5.3,4.25,8.32Z"/>
  </g>
</svg>