<?xml version="1.0" encoding="UTF-8"?>
<svg id="Layer_2" data-name="Layer 2" xmlns="http://www.w3.org/2000/svg" viewBox="0 0 80.85 70.6">
  <defs>
    <style>
      .cls-1 {
        fill: #1e1e1e;
      }
    </style>
  </defs>
  <g id="Layer_1-2" data-name="Layer 1">
    <path class="cls-1" d="m80.85,35.3c0,5.65-19.08,6.23-21.72,10.79-2.72,4.71,6.23,21.5,1.52,24.22-4.56,2.64-14.57-13.42-20.22-13.42s-15.66,16.06-20.22,13.42c-4.71-2.72,4.24-19.52,1.52-24.22-2.64-4.56-21.72-5.14-21.72-10.79s19.08-6.23,21.72-10.79c2.72-4.71-6.23-21.5-1.52-24.22,4.56-2.64,14.57,13.42,20.22,13.42S56.08-2.35,60.64.29c4.71,2.72-4.24,19.52-1.52,24.22,2.64,4.56,21.72,5.14,21.72,10.79Z"/>
  </g>
</svg>