<?xml version="1.0" encoding="UTF-8"?>
<svg id="Layer_2" data-name="Layer 2" xmlns="http://www.w3.org/2000/svg" viewBox="0 0 70.69 70.6">
  <defs>
    <style>
      .cls-1 {
        fill: #1e1e1e;
      }
    </style>
  </defs>
  <g id="Layer_1-2" data-name="Layer 1">
    <path class="cls-1" d="m69.47,44.53c.33-1.23.61-2.49.8-3.77l-7.35-2.54,7.72-.97c.03-.64.06-1.29.06-1.94s-.02-1.3-.06-1.94l-7.72-.97,7.35-2.54c-.2-1.28-.47-2.54-.8-3.77l-7.75.65,6.65-4.02c-.46-1.21-.99-2.38-1.57-3.52l-7.44,2.26,5.67-5.32c-.7-1.09-1.46-2.13-2.27-3.13l-6.81,3.76,4.45-6.39c-.91-.91-1.87-1.78-2.88-2.59l-5.88,5.08,3.03-7.16c-1.08-.7-2.19-1.35-3.34-1.93l-4.7,6.19,1.47-7.63c-1.19-.46-2.41-.86-3.66-1.19l-3.3,7.04-.16-7.78c-1.26-.2-2.55-.34-3.85-.4l-1.76,7.58-1.76-7.58c-1.3.06-2.59.2-3.85.4l-.16,7.78-3.3-7.04c-1.25.33-2.47.73-3.66,1.19l1.47,7.63-4.7-6.19c-1.15.58-2.27,1.23-3.34,1.93l3.03,7.16-5.88-5.08c-1.01.81-1.97,1.67-2.88,2.59l4.45,6.39-6.81-3.76c-.81,1-1.57,2.05-2.27,3.13l5.67,5.32-7.44-2.26c-.58,1.14-1.11,2.31-1.57,3.52l6.65,4.02-7.75-.65c-.33,1.23-.61,2.49-.8,3.77l7.35,2.54L.06,33.36c-.03.64-.06,1.29-.06,1.94s.02,1.3.06,1.94l7.72.97-7.35,2.54c.2,1.28.47,2.54.8,3.77l7.75-.65-6.65,4.02c.46,1.21.99,2.38,1.57,3.52l7.44-2.26-5.67,5.32c.7,1.09,1.46,2.13,2.27,3.13l6.81-3.76-4.45,6.39c.91.91,1.87,1.78,2.88,2.59l5.88-5.08-3.03,7.16c1.08.7,2.19,1.35,3.34,1.93l4.7-6.19-1.47,7.63c1.19.46,2.41.86,3.66,1.19l3.3-7.04.16,7.78c1.26.2,2.55.34,3.85.4l1.76-7.58,1.76,7.58c1.3-.06,2.59-.2,3.85-.4l.16-7.78,3.3,7.04c1.25-.33,2.47-.73,3.66-1.19l-1.47-7.63,4.7,6.19c1.15-.58,2.27-1.23,3.34-1.93l-3.03-7.16,5.88,5.08c1.01-.81,1.97-1.67,2.88-2.59l-4.45-6.39,6.81,3.76c.81-1,1.57-2.05,2.27-3.13l-5.67-5.32,7.44,2.26c.58-1.14,1.11-2.31,1.57-3.52l-6.65-4.02,7.75.65Z"/>
  </g>
</svg>