<?xml version="1.0" encoding="UTF-8"?>
<svg id="Layer_2" data-name="Layer 2" xmlns="http://www.w3.org/2000/svg" viewBox="0 0 70.6 70.6">
  <defs>
    <style>
      .cls-1 {
        fill: #1e1e1e;
      }
    </style>
  </defs>
  <g id="Layer_1-2" data-name="Layer 1">
    <path class="cls-1" d="m60.99,35.3c13.66,5.43,12.56,10.61-2.02,10,10.59,10.02,7.71,14.26-5.51,8.17,6.1,13.22,1.86,16.1-8.17,5.51.61,14.58-4.57,15.68-10,2.02-5.43,13.66-10.61,12.56-10-2.02-10.02,10.59-14.26,7.71-8.17-5.51-13.22,6.1-16.1,1.86-5.51-8.17-14.58.61-15.68-4.57-2.02-10-13.66-5.43-12.56-10.61,2.02-10C1.04,15.28,3.92,11.04,17.14,17.14c-6.1-13.22-1.86-16.1,8.17-5.51-.61-14.58,4.57-15.68,10-2.02,5.43-13.66,10.61-12.56,10,2.02,10.02-10.59,14.26-7.71,8.17,5.51,13.22-6.1,16.1-1.86,5.51,8.17,14.58-.61,15.68,4.57,2.02,10Z"/>
  </g>
</svg>