<?xml version="1.0" encoding="UTF-8"?>
<svg id="Layer_2" data-name="Layer 2" xmlns="http://www.w3.org/2000/svg" viewBox="0 0 70.6 70.6">
  <defs>
    <style>
      .cls-1 {
        fill: #1e1e1e;
      }
    </style>
  </defs>
  <g id="Layer_1-2" data-name="Layer 1">
    <path class="cls-1" d="m68.44,32.5l-6.6-1.71c-2.17-.56-2.9-3.28-1.3-4.86l4.86-4.78c.94-.92,1.13-2.36.48-3.5h0c-.66-1.14-2-1.69-3.27-1.34l-6.57,1.82c-2.16.6-4.15-1.39-3.55-3.55l1.82-6.57c.35-1.27-.2-2.61-1.34-3.27h0c-1.14-.66-2.58-.46-3.5.48l-4.78,4.86c-1.57,1.6-4.29.87-4.86-1.3l-1.71-6.6c-.33-1.27-1.48-2.16-2.8-2.16h0c-1.32,0-2.47.89-2.8,2.16l-1.71,6.6c-.56,2.17-3.28,2.9-4.86,1.3l-4.78-4.86c-.92-.94-2.36-1.13-3.5-.48h0c-1.14.66-1.69,2-1.34,3.27l1.82,6.57c.6,2.16-1.39,4.15-3.55,3.55l-6.57-1.82c-1.27-.35-2.61.2-3.27,1.34h0c-.66,1.14-.46,2.58.48,3.5l4.86,4.78c1.6,1.57.87,4.29-1.3,4.86l-6.6,1.71c-1.27.33-2.16,1.48-2.16,2.8h0c0,1.32.89,2.47,2.16,2.8l6.6,1.71c2.17.56,2.9,3.28,1.3,4.86l-4.86,4.78c-.94.92-1.13,2.36-.48,3.5h0c.66,1.14,2,1.69,3.27,1.34l6.57-1.82c2.16-.6,4.15,1.39,3.55,3.55l-1.82,6.57c-.35,1.27.2,2.61,1.34,3.27h0c1.14.66,2.58.46,3.5-.48l4.78-4.86c1.57-1.6,4.29-.87,4.86,1.3l1.71,6.6c.33,1.27,1.48,2.16,2.8,2.16h0c1.32,0,2.47-.89,2.8-2.16l1.71-6.6c.56-2.17,3.28-2.9,4.86-1.3l4.78,4.86c.92.94,2.36,1.13,3.5.48h0c1.14-.66,1.69-2,1.34-3.27l-1.82-6.57c-.6-2.16,1.39-4.15,3.55-3.55l6.57,1.82c1.27.35,2.61-.2,3.27-1.34h0c.66-1.14.46-2.58-.48-3.5l-4.86-4.78c-1.6-1.57-.87-4.29,1.3-4.86l6.6-1.71c1.27-.33,2.16-1.48,2.16-2.8h0c0-1.32-.89-2.47-2.16-2.8Z"/>
  </g>
</svg>