<?xml version="1.0" encoding="UTF-8"?>
<svg id="Layer_2" data-name="Layer 2" xmlns="http://www.w3.org/2000/svg" viewBox="0 0 96.19 70.6">
  <defs>
    <style>
      .cls-1 {
        fill: #1e1e1e;
      }
    </style>
  </defs>
  <g id="Layer_1-2" data-name="Layer 1">
    <path class="cls-1" d="m88.84,39.71c.22-.96,3.76-1.56,7.24-2.17.06-.74.11-1.49.11-2.24s-.04-1.5-.11-2.24c-3.49-.61-7.02-1.2-7.24-2.17-.22-.97,2.7-3.03,5.59-5.08-.54-1.43-1.19-2.82-1.95-4.16-3.44.88-6.92,1.78-7.52.96-.58-.79,1.38-3.79,3.3-6.77-1.08-1.21-2.26-2.36-3.53-3.46-2.97,1.96-5.96,3.94-6.79,3.34-.79-.58.23-4.01,1.22-7.42-1.44-.9-2.95-1.74-4.53-2.51-2.38,2.65-4.78,5.32-5.72,4.93-.91-.37-.7-3.95-.52-7.5-1.65-.57-3.35-1.06-5.09-1.49-1.77,3.09-3.55,6.2-4.54,6.01-.97-.18-1.47-3.72-1.99-7.24-1.75-.23-3.53-.4-5.34-.49-1.15,3.37-2.31,6.76-3.33,6.76S45.92,3.37,44.77,0c-1.81.09-3.59.26-5.35.49-.52,3.52-1.02,7.06-1.99,7.24-1,.19-2.78-2.92-4.54-6.01-1.74.43-3.44.92-5.09,1.49.19,3.55.39,7.13-.52,7.5-.94.39-3.34-2.28-5.72-4.93-1.58.77-3.09,1.61-4.53,2.5.99,3.41,2.01,6.85,1.22,7.42-.82.6-3.82-1.38-6.79-3.34-1.27,1.1-2.45,2.25-3.53,3.45,1.92,2.98,3.88,5.98,3.3,6.77-.6.82-4.08-.08-7.52-.96-.77,1.35-1.41,2.74-1.95,4.16,2.88,2.05,5.81,4.11,5.59,5.08-.22.96-3.76,1.56-7.24,2.17-.06.74-.11,1.49-.11,2.24s.04,1.5.11,2.24c3.49.61,7.02,1.2,7.24,2.17.22.97-2.7,3.03-5.59,5.08.54,1.43,1.19,2.82,1.95,4.16,3.44-.88,6.92-1.78,7.52-.96.58.79-1.38,3.79-3.3,6.77,1.08,1.21,2.26,2.36,3.53,3.46,2.97-1.96,5.96-3.94,6.79-3.34.79.58-.23,4.01-1.22,7.42,1.44.9,2.95,1.74,4.53,2.51,2.38-2.65,4.78-5.32,5.72-4.93.91.37.7,3.95.52,7.5,1.65.57,3.35,1.06,5.09,1.49,1.77-3.09,3.55-6.2,4.54-6.01.97.18,1.47,3.72,1.99,7.24,1.75.23,3.53.4,5.34.49,1.15-3.37,2.31-6.76,3.33-6.76s2.17,3.39,3.33,6.76c1.81-.09,3.59-.26,5.35-.49.52-3.52,1.02-7.06,1.99-7.24,1-.19,2.78,2.92,4.54,6.01,1.74-.43,3.44-.92,5.09-1.49-.19-3.55-.39-7.13.52-7.5.94-.39,3.34,2.28,5.72,4.93,1.58-.77,3.09-1.61,4.53-2.5-.99-3.41-2.01-6.85-1.22-7.42.82-.6,3.82,1.38,6.79,3.34,1.27-1.1,2.45-2.25,3.53-3.45-1.92-2.98-3.88-5.98-3.3-6.77.6-.82,4.08.08,7.52.96.77-1.35,1.41-2.74,1.95-4.16-2.88-2.05-5.81-4.11-5.59-5.08Z"/>
  </g>
</svg>