<?xml version="1.0" encoding="UTF-8"?>
<svg id="Layer_2" data-name="Layer 2" xmlns="http://www.w3.org/2000/svg" viewBox="0 0 70.6 70.6">
  <defs>
    <style>
      .cls-1 {
        fill: #1e1e1e;
      }
    </style>
  </defs>
  <g id="Layer_1-2" data-name="Layer 1">
    <path class="cls-1" d="m70.6,35.3c0,3.9-13.36,5.11-14.77,8.5-1.46,3.51,7.08,13.81,4.43,16.46-2.65,2.65-12.94-5.89-16.46-4.43-3.39,1.41-4.6,14.77-8.5,14.77s-5.11-13.36-8.5-14.77c-3.51-1.46-13.81,7.08-16.46,4.43-2.65-2.65,5.89-12.94,4.43-16.46-1.41-3.39-14.77-4.6-14.77-8.5s13.36-5.11,14.77-8.5c1.46-3.52-7.08-13.81-4.43-16.46s12.94,5.89,16.46,4.43c3.39-1.41,4.6-14.77,8.5-14.77s5.11,13.36,8.5,14.77c3.51,1.46,13.81-7.08,16.46-4.43s-5.89,12.94-4.43,16.46c1.41,3.39,14.77,4.6,14.77,8.5Z"/>
  </g>
</svg>