<?xml version="1.0" encoding="UTF-8"?>
<svg id="Layer_2" data-name="Layer 2" xmlns="http://www.w3.org/2000/svg" viewBox="0 0 71.08 70.6">
  <defs>
    <style>
      .cls-1 {
        fill: #1e1e1e;
      }
    </style>
  </defs>
  <g id="Layer_1-2" data-name="Layer 1">
    <path class="cls-1" d="m58.37,47.82c2.51-.69,10.1-3.63,12.71-14.25,0,0-3.25,5.91-9.8,5.69,2.12-1.51,8.26-6.86,7.07-17.74,0,0-1.03,6.67-7.27,8.7,1.48-2.14,5.41-9.27.57-19.09,0,0,1.31,6.62-3.85,10.66.66-2.52,1.91-10.56-5.99-18.13,0,0,3.49,5.77.03,11.34-.25-2.59-1.82-10.58-11.83-14.99,0,0,5.26,4.23,3.9,10.64-1.12-2.35-5.33-9.32-16.24-10.04,0,0,6.39,2.18,7.31,8.67-1.86-1.83-8.19-6.94-18.7-3.88,0,0,6.75-.14,9.83,5.65-2.37-1.08-10.07-3.72-18.9,2.75,0,0,6.29-2.44,11.17,1.94-2.6-.21-10.74-.05-16.82,9.05,0,0,5.08-4.44,11.16-1.99-2.51.69-10.1,3.63-12.71,14.25,0,0,3.25-5.91,9.8-5.69-2.12,1.51-8.25,6.86-7.07,17.74,0,0,1.03-6.67,7.27-8.7-1.48,2.14-5.41,9.27-.57,19.09,0,0-1.31-6.62,3.85-10.66-.66,2.52-1.91,10.56,5.99,18.13,0,0-3.49-5.77-.03-11.34.25,2.59,1.82,10.58,11.83,14.99,0,0-5.26-4.23-3.9-10.64,1.12,2.35,5.33,9.32,16.24,10.04,0,0-6.39-2.18-7.31-8.67,1.86,1.83,8.19,6.94,18.7,3.88,0,0-6.75.14-9.83-5.65,2.37,1.08,10.07,3.72,18.9-2.75,0,0-6.29,2.44-11.17-1.94,2.6.21,10.74.05,16.82-9.05,0,0-5.08,4.44-11.16,1.99Z"/>
  </g>
</svg>