<?xml version="1.0" encoding="UTF-8"?>
<svg id="Layer_2" data-name="Layer 2" xmlns="http://www.w3.org/2000/svg" viewBox="0 0 70.6 70.6">
  <defs>
    <style>
      .cls-1 {
        fill: #1e1e1e;
      }
    </style>
  </defs>
  <g id="Layer_1-2" data-name="Layer 1">
    <path class="cls-1" d="m70.6,35.3c-11.77,3.25-12.43,6.34-2.77,13.74-12.03-1.76-13.76.77-7.57,11.22-10.45-6.19-12.99-4.47-11.22,7.57-7.4-9.65-10.49-8.99-13.74,2.77-3.25-11.77-6.34-12.43-13.74-2.77,1.76-12.03-.77-13.76-11.22-7.57,6.19-10.45,4.47-12.99-7.57-11.22,9.65-7.4,8.99-10.49-2.77-13.74,11.77-3.25,12.43-6.34,2.77-13.74,12.03,1.76,13.76-.77,7.57-11.22,10.45,6.19,12.99,4.47,11.22-7.57,7.4,9.65,10.49,8.99,13.74-2.77,3.25,11.77,6.34,12.43,13.74,2.77-1.76,12.03.77,13.76,11.22,7.57-6.19,10.45-4.47,12.99,7.57,11.22-9.65,7.4-8.99,10.49,2.77,13.74Z"/>
  </g>
</svg>