<?xml version="1.0" encoding="UTF-8"?>
<svg id="Layer_2" data-name="Layer 2" xmlns="http://www.w3.org/2000/svg" viewBox="0 0 70.6 70.6">
  <defs>
    <style>
      .cls-1 {
        fill: #1e1e1e;
      }
    </style>
  </defs>
  <g id="Layer_1-2" data-name="Layer 1">
    <path class="cls-1" d="m70.6,39.06v-7.52c0-.99-.8-1.79-1.79-1.79h-6.08c-.81,0-1.51-.54-1.72-1.33,0,0,0-.02,0-.03-.21-.78.13-1.6.83-2.01l5.26-3.04c.85-.49,1.15-1.59.65-2.44l-3.76-6.52c-.49-.85-1.59-1.15-2.44-.65l-5.27,3.04c-.7.4-1.58.29-2.15-.29,0,0-.01-.01-.02-.02-.57-.57-.69-1.45-.29-2.15l3.04-5.27c.49-.85.2-1.95-.65-2.44l-6.52-3.76c-.85-.49-1.95-.2-2.44.65l-3.04,5.26c-.4.7-1.23,1.04-2.01.83,0,0-.02,0-.03,0-.78-.21-1.33-.91-1.33-1.72V1.79c0-.99-.8-1.79-1.79-1.79h-7.52c-.99,0-1.79.8-1.79,1.79v6.08c0,.81-.54,1.51-1.33,1.72,0,0-.02,0-.03,0-.78.21-1.6-.13-2.01-.83l-3.04-5.26c-.49-.85-1.59-1.15-2.44-.65l-6.52,3.76c-.85.49-1.15,1.59-.65,2.44l3.04,5.27c.4.7.29,1.58-.29,2.15,0,0-.01.01-.02.02-.57.57-1.45.69-2.15.29l-5.27-3.04c-.85-.49-1.95-.2-2.44.65l-3.76,6.52c-.49.85-.2,1.95.65,2.44l5.26,3.04c.7.4,1.04,1.23.83,2.01,0,0,0,.02,0,.03-.21.78-.91,1.33-1.72,1.33H1.79c-.99,0-1.79.8-1.79,1.79v7.52c0,.99.8,1.79,1.79,1.79h6.08c.81,0,1.51.54,1.72,1.33,0,0,0,.02,0,.03.21.78-.13,1.6-.83,2.01l-5.26,3.04c-.85.49-1.15,1.59-.65,2.44l3.76,6.52c.49.85,1.59,1.15,2.44.65l5.27-3.04c.7-.4,1.58-.29,2.15.29l.02.02c.57.57.69,1.45.29,2.15l-3.04,5.27c-.49.85-.2,1.95.65,2.44l6.52,3.76c.85.49,1.95.2,2.44-.65l3.04-5.26c.4-.7,1.23-1.04,2.01-.83,0,0,.02,0,.03,0,.78.21,1.33.91,1.33,1.72v6.08c0,.99.8,1.79,1.79,1.79h7.52c.99,0,1.79-.8,1.79-1.79v-6.08c0-.81.54-1.51,1.33-1.72,0,0,.02,0,.03,0,.78-.21,1.6.13,2.01.83l3.04,5.26c.49.85,1.59,1.15,2.44.65l6.52-3.76c.85-.49,1.15-1.59.65-2.44l-3.04-5.27c-.4-.7-.29-1.58.29-2.15l.02-.02c.57-.57,1.45-.69,2.15-.29l5.27,3.04c.85.49,1.95.2,2.44-.65l3.76-6.52c.49-.85.2-1.95-.65-2.44l-5.26-3.04c-.7-.4-1.04-1.23-.83-2.01,0,0,0-.02,0-.03.21-.78.91-1.33,1.72-1.33h6.08c.99,0,1.79-.8,1.79-1.79Z"/>
  </g>
</svg>