<?xml version="1.0" encoding="UTF-8"?>
<svg id="Layer_2" data-name="Layer 2" xmlns="http://www.w3.org/2000/svg" viewBox="0 0 70.6 70.6">
  <defs>
    <style>
      .cls-1 {
        fill: #1e1e1e;
      }
    </style>
  </defs>
  <g id="Layer_1-2" data-name="Layer 1">
    <polygon class="cls-1" points="70.6 33.07 56.9 29.51 66.99 19.59 64.75 15.71 51.11 19.49 54.89 5.85 51.02 3.61 41.09 13.7 37.54 0 33.07 0 29.51 13.7 19.59 3.61 15.71 5.85 19.49 19.49 5.85 15.71 3.61 19.59 13.7 29.51 0 33.07 0 37.54 13.7 41.09 3.61 51.02 5.85 54.89 19.49 51.11 15.71 64.75 19.59 66.99 29.51 56.9 33.07 70.6 37.54 70.6 41.09 56.9 51.02 66.99 54.89 64.75 51.11 51.11 64.75 54.89 66.99 51.02 56.9 41.09 70.6 37.54 70.6 33.07"/>
  </g>
</svg>