<?xml version="1.0" encoding="UTF-8"?>
<svg id="Layer_2" data-name="Layer 2" xmlns="http://www.w3.org/2000/svg" viewBox="0 0 70.6 70.6">
  <defs>
    <style>
      .cls-1 {
        fill: #1e1e1e;
      }
    </style>
  </defs>
  <g id="Layer_1-2" data-name="Layer 1">
    <path class="cls-1" d="m69.42,37.11l-5.27,2.29c-1.26.55-1.59,2.19-.63,3.17l3.99,4.12c1.2,1.24.34,3.31-1.38,3.34l-8.57.14,3.15,7.99c.63,1.6-.95,3.19-2.55,2.55l-7.99-3.15-.13,8.57c-.03,1.72-2.1,2.58-3.34,1.38l-6.16-5.96-3.42,7.88c-.69,1.58-2.92,1.58-3.61,0l-3.42-7.88-6.16,5.96c-1.24,1.2-3.31.34-3.34-1.38l-.14-8.57-7.99,3.15c-1.6.63-3.19-.95-2.55-2.55l3.15-7.99-8.57-.13c-1.72-.03-2.58-2.1-1.38-3.34l5.96-6.16-7.88-3.42c-1.58-.69-1.58-2.93,0-3.61l7.88-3.42-5.96-6.16c-1.2-1.24-.34-3.31,1.38-3.34l8.57-.14-3.15-7.99c-.63-1.6.95-3.19,2.55-2.55l7.99,3.15.13-8.57c.03-1.72,2.1-2.58,3.34-1.38l6.16,5.96,3.42-7.88c.69-1.58,2.93-1.58,3.61,0l3.42,7.88,6.16-5.96c1.24-1.2,3.31-.34,3.34,1.38l.14,8.57,7.99-3.15c1.6-.63,3.19.95,2.55,2.55l-3.15,7.99,8.57.13c1.72.03,2.58,2.1,1.38,3.34l-3.99,4.12c-.96.99-.63,2.63.63,3.17l5.27,2.29c1.58.69,1.58,2.93,0,3.61Z"/>
  </g>
</svg>