<?xml version="1.0" encoding="UTF-8"?>
<svg id="Layer_2" data-name="Layer 2" xmlns="http://www.w3.org/2000/svg" viewBox="0 0 70.6 70.6">
  <defs>
    <style>
      .cls-1 {
        fill: #1e1e1e;
      }
    </style>
  </defs>
  <g id="Layer_1-2" data-name="Layer 1">
    <path class="cls-1" d="m70.01,36.2l-4.49,1.95c-2.42,1.05-3.05,4.2-1.21,6.1l3.4,3.51c.6.61.17,1.64-.69,1.66l-4.88.08c-2.64.04-4.43,2.71-3.46,5.17l1.79,4.55c.31.8-.47,1.58-1.27,1.27l-4.55-1.79c-2.46-.97-5.13.82-5.17,3.46l-.08,4.88c-.01.86-1.04,1.28-1.66.69l-3.51-3.4c-1.9-1.84-5.05-1.21-6.1,1.21l-1.95,4.49c-.34.78-1.45.78-1.79,0l-1.95-4.49c-1.05-2.42-4.2-3.05-6.1-1.21l-3.51,3.4c-.61.6-1.64.17-1.66-.69l-.08-4.88c-.04-2.64-2.71-4.43-5.17-3.46l-4.55,1.79c-.8.31-1.58-.47-1.27-1.27l1.79-4.55c.97-2.46-.82-5.13-3.46-5.17l-4.88-.08c-.86-.01-1.28-1.04-.69-1.66l3.4-3.51c1.84-1.9,1.21-5.05-1.21-6.1l-4.49-1.95c-.78-.34-.78-1.45,0-1.79l4.49-1.95c2.42-1.05,3.05-4.2,1.21-6.1l-3.4-3.51c-.6-.61-.17-1.64.69-1.66l4.88-.08c2.64-.04,4.43-2.71,3.46-5.17l-1.79-4.55c-.31-.8.47-1.58,1.27-1.27l4.55,1.79c2.46.97,5.13-.82,5.17-3.46l.08-4.88c.01-.86,1.04-1.28,1.66-.69l3.51,3.4c1.9,1.84,5.05,1.21,6.1-1.21l1.95-4.49c.34-.78,1.45-.78,1.79,0l1.95,4.49c1.05,2.42,4.2,3.05,6.1,1.21l3.51-3.4c.61-.6,1.64-.17,1.66.69l.08,4.88c.04,2.64,2.71,4.43,5.17,3.46l4.55-1.79c.8-.31,1.58.47,1.27,1.27l-1.79,4.55c-.97,2.46.82,5.13,3.46,5.17l4.88.08c.86.01,1.28,1.04.69,1.66l-3.4,3.51c-1.84,1.9-1.21,5.05,1.21,6.1l4.49,1.95c.78.34.78,1.45,0,1.79Z"/>
  </g>
</svg>