<?xml version="1.0" encoding="UTF-8"?>
<svg id="Layer_2" data-name="Layer 2" xmlns="http://www.w3.org/2000/svg" viewBox="0 0 93.49 70.6">
  <defs>
    <style>
      .cls-1 {
        fill: #1e1e1e;
      }
    </style>
  </defs>
  <g id="Layer_1-2" data-name="Layer 1">
    <path class="cls-1" d="m93.49,35.3c0,1.17-7.69,1.76-7.85,2.89-.17,1.15,7.02,3.93,6.69,5.03-.33,1.1-7.87-.5-8.35.56-.48,1.04,5.7,5.66,5.08,6.65-.6.97-7.5-2.48-8.23-1.57-.71.89,4.23,6.82,3.41,7.65-.8.81-6.82-4.02-7.72-3.27-.87.73,2.84,7.5,1.88,8.17-.94.65-6.01-5.17-7.02-4.59-.99.57,1.57,7.86.52,8.37-1.03.49-5.15-6.03-6.24-5.6-1.06.42.42,8-.69,8.35-1.09.35-4.28-6.69-5.41-6.4-1.11.28-.63,7.98-1.78,8.19-1.12.2-3.4-7.18-4.56-7.04-1.14.14-1.61,7.84-2.77,7.91-1.14.07-2.52-7.53-3.69-7.53s-2.54,7.6-3.69,7.53c-1.16-.07-1.64-7.78-2.77-7.91-1.16-.14-3.44,7.24-4.56,7.04-1.15-.21-.67-7.92-1.78-8.19-1.13-.28-4.32,6.75-5.41,6.4-1.11-.35.37-7.93-.69-8.36-1.09-.43-5.21,6.1-6.24,5.6-1.05-.51,1.5-7.79.52-8.37-1.01-.59-6.08,5.23-7.02,4.58-.96-.67,2.75-7.44,1.88-8.17-.9-.75-6.92,4.08-7.72,3.27-.82-.83,4.12-6.76,3.41-7.65-.73-.91-7.63,2.54-8.23,1.57-.61-.99,5.56-5.61,5.08-6.65-.48-1.06-8.02.55-8.35-.56-.33-1.1,6.86-3.88,6.69-5.03-.17-1.13-7.85-1.73-7.85-2.89s7.69-1.76,7.85-2.89c.17-1.15-7.02-3.93-6.69-5.03.33-1.1,7.87.5,8.35-.56.48-1.04-5.7-5.66-5.08-6.65.6-.97,7.5,2.48,8.23,1.57.71-.89-4.23-6.82-3.41-7.65.8-.81,6.82,4.02,7.72,3.27.87-.73-2.84-7.5-1.88-8.17.94-.65,6.01,5.17,7.02,4.59.99-.57-1.57-7.86-.52-8.37,1.03-.49,5.15,6.03,6.24,5.6,1.06-.42-.42-8,.69-8.35,1.09-.35,4.28,6.69,5.41,6.4,1.11-.28.63-7.98,1.78-8.19,1.12-.2,3.4,7.18,4.56,7.04,1.14-.14,1.61-7.84,2.77-7.91,1.14-.07,2.52,7.53,3.69,7.53S49.29-.07,50.43,0c1.16.07,1.64,7.78,2.77,7.91,1.16.14,3.44-7.24,4.56-7.04,1.15.21.67,7.92,1.78,8.19,1.13.28,4.32-6.75,5.41-6.4,1.11.35-.37,7.93.69,8.36,1.09.43,5.21-6.1,6.24-5.6,1.05.51-1.5,7.79-.52,8.37,1.01.59,6.08-5.23,7.02-4.58.96.67-2.75,7.44-1.88,8.17.9.75,6.92-4.08,7.72-3.27.82.83-4.12,6.76-3.41,7.65.73.91,7.63-2.54,8.23-1.57.61.99-5.56,5.61-5.08,6.65.48,1.06,8.02-.55,8.35.56.33,1.1-6.86,3.88-6.69,5.03.17,1.13,7.85,1.73,7.85,2.89Z"/>
  </g>
</svg>