<?xml version="1.0" encoding="UTF-8"?>
<svg id="Layer_2" data-name="Layer 2" xmlns="http://www.w3.org/2000/svg" viewBox="0 0 70.6 70.6">
  <defs>
    <style>
      .cls-1 {
        fill: #1e1e1e;
      }
    </style>
  </defs>
  <g id="Layer_1-2" data-name="Layer 1">
    <path class="cls-1" d="m68.03,38.95l-8.23,2.93,5.65,6.63c2.36,2.77-.07,6.97-3.65,6.31l-8.58-1.59,1.59,8.58c.66,3.58-3.54,6.01-6.31,3.65l-6.63-5.65-2.93,8.23c-1.22,3.43-6.07,3.43-7.29,0l-2.93-8.23-6.63,5.65c-2.77,2.36-6.97-.07-6.31-3.65l1.59-8.58-8.58,1.59c-3.58.66-6.01-3.54-3.65-6.31l5.65-6.63-8.23-2.93c-3.43-1.22-3.43-6.07,0-7.29l8.23-2.93-5.65-6.63c-2.36-2.77.07-6.97,3.65-6.31l8.58,1.59-1.59-8.58c-.66-3.58,3.54-6.01,6.31-3.65l6.63,5.65,2.93-8.23c1.22-3.43,6.07-3.43,7.29,0l2.93,8.23,6.63-5.65c2.77-2.36,6.97.07,6.31,3.65l-1.59,8.58,8.58-1.59c3.58-.66,6.01,3.54,3.65,6.31l-5.65,6.63,8.23,2.93c3.43,1.22,3.43,6.07,0,7.29Z"/>
  </g>
</svg>