<?xml version="1.0" encoding="UTF-8"?>
<svg id="Layer_2" data-name="Layer 2" xmlns="http://www.w3.org/2000/svg" viewBox="0 0 70.9 70.6">
  <defs>
    <style>
      .cls-1 {
        fill: #1e1e1e;
      }
    </style>
  </defs>
  <g id="Layer_1-2" data-name="Layer 1">
    <path class="cls-1" d="m70.9,35.3c0,.99-7.17,1.65-7.26,2.62-.09.99,6.84,2.94,6.67,3.9-.18.97-7.35.3-7.62,1.24-.27.95,6.18,4.15,5.83,5.06-.36.92-7.28-1.07-7.72-.19-.44.88,5.31,5.22,4.8,6.05-.52.84-6.96-2.39-7.55-1.61-.59.78,4.27,6.1,3.6,6.83-.66.73-6.4-3.63-7.13-2.96-.72.66,3.08,6.78,2.3,7.37-.78.59-5.63-4.74-6.47-4.22-.83.52,1.79,7.23.91,7.67-.88.44-4.66-5.69-5.58-5.34-.91.35.42,7.43-.53,7.7-.94.27-3.52-6.46-4.49-6.28-.96.18-.95,7.38-1.94,7.47-.97.09-2.28-6.99-3.27-6.99s-2.3,7.08-3.27,6.99c-.99-.09-.98-7.29-1.94-7.47-.97-.18-3.56,6.54-4.5,6.28-.95-.27.39-7.35-.53-7.7-.92-.36-4.7,5.77-5.58,5.34-.88-.44,1.74-7.15.91-7.67-.84-.52-5.68,4.81-6.47,4.22-.78-.59,3.02-6.71,2.3-7.37-.73-.66-6.47,3.69-7.13,2.96-.66-.73,4.2-6.04,3.61-6.83-.59-.78-7.03,2.45-7.55,1.61-.52-.83,5.24-5.17,4.8-6.05-.44-.88-7.36,1.11-7.72.19-.35-.91,6.1-4.11,5.83-5.06-.27-.94-7.44-.27-7.62-1.24-.18-.96,6.76-2.91,6.67-3.9-.09-.97-7.26-1.62-7.26-2.62s7.17-1.65,7.26-2.62c.09-.99-6.84-2.94-6.67-3.9.18-.97,7.35-.3,7.62-1.24.27-.95-6.18-4.15-5.83-5.06.36-.92,7.28,1.07,7.72.19.44-.88-5.31-5.22-4.8-6.05.52-.84,6.96,2.39,7.55,1.61.59-.78-4.27-6.1-3.6-6.83.66-.73,6.4,3.63,7.13,2.96.72-.66-3.08-6.78-2.3-7.37.78-.59,5.63,4.74,6.47,4.22.83-.52-1.79-7.23-.91-7.67.88-.44,4.66,5.69,5.58,5.34.91-.35-.42-7.43.53-7.7.94-.27,3.52,6.46,4.49,6.28.96-.18.95-7.38,1.94-7.47.97-.09,2.28,6.99,3.27,6.99S37.75-.09,38.72,0c.99.09.98,7.29,1.94,7.47.97.18,3.56-6.54,4.5-6.28.95.27-.39,7.35.53,7.7.92.36,4.7-5.77,5.58-5.34.88.44-1.74,7.15-.91,7.67.84.52,5.68-4.81,6.47-4.22.78.59-3.02,6.71-2.3,7.37.73.66,6.47-3.69,7.13-2.96.66.72-4.2,6.04-3.61,6.83.59.78,7.03-2.45,7.55-1.61.52.83-5.24,5.17-4.8,6.05.44.88,7.36-1.11,7.72-.19.35.91-6.1,4.11-5.83,5.06.27.94,7.44.27,7.62,1.24.18.96-6.76,2.91-6.67,3.9.09.97,7.26,1.62,7.26,2.62Z"/>
  </g>
</svg>