<?xml version="1.0" encoding="UTF-8"?>
<svg id="Layer_2" data-name="Layer 2" xmlns="http://www.w3.org/2000/svg" viewBox="0 0 95.94 70.6">
  <defs>
    <style>
      .cls-1 {
        fill: #1e1e1e;
      }
    </style>
  </defs>
  <g id="Layer_1-2" data-name="Layer 1">
    <path class="cls-1" d="m85.32,35.3c15.3,5.35,13.83,10.45-2.94,10.7,11.43,9.02,7.58,13.19-8.01,8.74,6.06,11.47.38,14.31-11.87,5.89-.34,12.34-7.27,13.42-14.54,2.16-7.27,11.26-14.2,10.18-14.54-2.16-12.26,8.42-17.93,5.58-11.87-5.89-15.58,4.46-19.44.28-8.01-8.74-16.76-.25-18.24-5.35-2.94-10.7-15.3-5.35-13.83-10.45,2.94-10.7C2.11,15.58,5.97,11.41,21.55,15.86c-6.06-11.47-.38-14.31,11.87-5.89.34-12.34,7.27-13.42,14.54-2.16,7.27-11.26,14.2-10.18,14.54,2.16,12.26-8.42,17.93-5.58,11.87,5.89,15.58-4.46,19.44-.28,8.01,8.74,16.76.25,18.24,5.35,2.94,10.7Z"/>
  </g>
</svg>