<?xml version="1.0" encoding="UTF-8"?>
<svg id="Layer_2" data-name="Layer 2" xmlns="http://www.w3.org/2000/svg" viewBox="0 0 70.6 70.6">
  <defs>
    <style>
      .cls-1 {
        fill: #1e1e1e;
      }
    </style>
  </defs>
  <g id="Layer_1-2" data-name="Layer 1">
    <path class="cls-1" d="m60,55.63c-6-3.46-9.68-8.31-8.23-10.82,1.45-2.51,7.49-1.75,13.48,1.72.12.07.24.14.36.21,1.87,1.12,4.29.14,4.85-1.96l.03-.1c.56-2.11-1.05-4.16-3.23-4.12-.13,0-.27,0-.4,0-6.92,0-12.53-2.35-12.53-5.26s5.61-5.26,12.53-5.26c.14,0,.27,0,.4,0,2.18.03,3.79-2.02,3.23-4.12l-.03-.1c-.56-2.11-2.98-3.08-4.85-1.96-.12.07-.24.14-.36.21-6,3.46-12.03,4.23-13.48,1.72s2.23-7.36,8.23-10.82c.12-.07.23-.13.35-.2,1.9-1.06,2.27-3.64.73-5.18l-.07-.07c-1.54-1.54-4.12-1.17-5.18.73-.06.12-.13.23-.2.35-3.46,6-8.31,9.68-10.82,8.23s-1.75-7.49,1.72-13.48c.07-.12.14-.24.21-.36,1.12-1.87.14-4.29-1.96-4.85l-.1-.03c-2.11-.56-4.15,1.05-4.12,3.23,0,.13,0,.27,0,.4,0,6.92-2.35,12.53-5.26,12.53s-5.26-5.61-5.26-12.53c0-.14,0-.27,0-.4.03-2.18-2.02-3.79-4.12-3.23l-.1.03c-2.11.56-3.08,2.98-1.96,4.85.07.12.14.24.21.36,3.46,6,4.23,12.03,1.72,13.48-2.51,1.45-7.36-2.23-10.82-8.23-.07-.13-.15-.26-.22-.39-1.05-1.88-3.6-2.25-5.13-.72l-.08.08c-1.56,1.56-1.19,4.14.71,5.2.12.06.23.13.35.2,6,3.46,9.68,8.31,8.23,10.82-1.45,2.51-7.49,1.75-13.48-1.72-.1-.06-.21-.12-.31-.18-1.88-1.11-4.33-.17-4.9,1.94,0,.03-.02.06-.03.1-.56,2.11,1.09,4.15,3.27,4.12.12,0,.24,0,.36,0,6.92,0,12.53,2.35,12.53,5.26s-5.61,5.26-12.53,5.26c-.12,0-.24,0-.36,0-2.18-.03-3.83,2.01-3.27,4.12,0,.03.02.06.03.1.57,2.11,3.02,3.05,4.9,1.94.1-.06.21-.12.31-.18,6-3.46,12.03-4.23,13.48-1.72,1.45,2.51-2.23,7.36-8.23,10.82-.1.06-.2.12-.3.17-1.9,1.07-2.31,3.66-.77,5.21.02.02.04.04.07.07,1.55,1.54,4.14,1.13,5.21-.77.06-.1.11-.2.17-.3,3.46-6,8.31-9.68,10.82-8.23,2.51,1.45,1.75,7.49-1.72,13.48-.07.12-.14.24-.21.35-1.12,1.87-.14,4.29,1.96,4.85l.09.02c2.11.56,4.16-1.05,4.13-3.23,0-.13,0-.27,0-.4,0-6.92,2.35-12.53,5.26-12.53s5.26,5.61,5.26,12.53c0,.13,0,.27,0,.4-.03,2.18,2.02,3.79,4.13,3.23l.09-.02c2.11-.56,3.08-2.98,1.96-4.85-.07-.12-.14-.23-.21-.35-3.46-6-4.23-12.03-1.72-13.48,2.51-1.45,7.36,2.23,10.82,8.23.07.13.15.26.22.39,1.05,1.88,3.6,2.25,5.13.72l.08-.08c1.56-1.56,1.19-4.14-.71-5.2-.12-.06-.23-.13-.35-.2Z"/>
  </g>
</svg>