<?xml version="1.0" encoding="UTF-8"?>
<svg id="Layer_2" data-name="Layer 2" xmlns="http://www.w3.org/2000/svg" viewBox="0 0 70.6 70.6">
  <defs>
    <style>
      .cls-1 {
        fill: #1e1e1e;
      }
    </style>
  </defs>
  <g id="Layer_1-2" data-name="Layer 1">
    <path class="cls-1" d="m68.12,38.12l-8.32,1.08,7.41,3.5c3.02,1.43,1.54,5.99-1.74,5.37l-8.05-1.52,6.04,5.71c2.42,2.29-.39,6.16-3.32,4.56l-7.3-3.99,3.99,7.3c1.6,2.93-2.27,5.74-4.56,3.32l-5.71-6.04,1.52,8.05c.62,3.28-3.94,4.76-5.37,1.74l-3.5-7.41-1.08,8.32c-.43,3.31-5.21,3.31-5.64,0l-1.08-8.32-3.5,7.41c-1.43,3.02-5.99,1.54-5.37-1.74l1.52-8.05-5.71,6.04c-2.29,2.42-6.16-.39-4.56-3.32l3.99-7.3-7.3,3.99c-2.93,1.6-5.74-2.27-3.32-4.56l6.04-5.71-8.05,1.52c-3.28.62-4.76-3.94-1.74-5.37l7.41-3.5-8.32-1.08c-3.31-.43-3.31-5.21,0-5.64l8.32-1.08-7.41-3.5c-3.02-1.43-1.54-5.99,1.74-5.37l8.05,1.52-6.04-5.71c-2.42-2.29.39-6.16,3.32-4.56l7.3,3.99-3.99-7.3c-1.6-2.93,2.27-5.74,4.56-3.32l5.71,6.04-1.52-8.05c-.62-3.28,3.94-4.76,5.37-1.74l3.5,7.41,1.08-8.32c.43-3.31,5.21-3.31,5.64,0l1.08,8.32,3.5-7.41c1.43-3.02,5.99-1.54,5.37,1.74l-1.52,8.05,5.71-6.04c2.29-2.42,6.16.39,4.56,3.32l-3.99,7.3,7.3-3.99c2.93-1.6,5.74,2.27,3.32,4.56l-6.04,5.71,8.05-1.52c3.28-.62,4.76,3.94,1.74,5.37l-7.41,3.5,8.32,1.08c3.31.43,3.31,5.21,0,5.64Z"/>
  </g>
</svg>