<?xml version="1.0" encoding="UTF-8"?>
<svg id="Layer_2" data-name="Layer 2" xmlns="http://www.w3.org/2000/svg" viewBox="0 0 109.01 51.78">
  <defs>
    <style>
      .cls-1 {
        fill: #1e1e1e;
      }
    </style>
  </defs>
  <g id="Layer_1-2" data-name="Layer 1">
    <path class="cls-1" d="m106.77,8.76l-14.48-7.96c-.95-.52-2.02-.8-3.1-.8H6.43C2.88,0,0,2.88,0,6.43v38.92c0,3.55,2.88,6.43,6.43,6.43h82.76c1.05-.27,2.05-.53,3.1-.8l14.48-7.96c1.38-.76,2.24-2.22,2.24-3.8V12.55c0-1.58-.86-3.03-2.24-3.8Zm-6.37,20.33c-4.68,3.56-9.96-1.72-6.4-6.4,4.68-3.56,9.96,1.72,6.4,6.4Z"/>
  </g>
</svg>