<?xml version="1.0" encoding="UTF-8"?>
<svg id="Layer_2" data-name="Layer 2" xmlns="http://www.w3.org/2000/svg" viewBox="0 0 70.98 70.6">
  <defs>
    <style>
      .cls-1 {
        fill: #1e1e1e;
      }
    </style>
  </defs>
  <g id="Layer_1-2" data-name="Layer 1">
    <polygon class="cls-1" points="70.98 35.3 62.87 38.18 70.22 42.68 61.68 43.81 67.92 49.74 59.34 49.06 64.21 56.17 55.95 53.72 59.24 61.68 51.67 57.58 53.24 66.04 46.69 60.46 46.46 69.06 41.22 62.23 39.2 70.6 35.49 62.83 31.79 70.6 29.76 62.23 24.52 69.06 24.29 60.46 17.74 66.04 19.31 57.57 11.74 61.68 15.03 53.72 6.78 56.17 11.65 49.06 3.06 49.74 9.3 43.81 .77 42.68 8.11 38.18 0 35.3 8.11 32.42 .77 27.92 9.3 26.79 3.06 20.86 11.65 21.54 6.78 14.43 15.03 16.88 11.74 8.92 19.31 13.03 17.74 4.56 24.3 10.14 24.52 1.54 29.76 8.37 31.79 0 35.49 7.77 39.2 0 41.22 8.37 46.46 1.54 46.69 10.15 53.24 4.56 51.67 13.03 59.24 8.93 55.95 16.88 64.21 14.44 59.34 21.54 67.92 20.86 61.68 26.79 70.22 27.92 62.87 32.42 70.98 35.3"/>
  </g>
</svg>