<?xml version="1.0" encoding="UTF-8"?>
<svg id="Layer_2" data-name="Layer 2" xmlns="http://www.w3.org/2000/svg" viewBox="0 0 69.71 70.6">
  <defs>
    <style>
      .cls-1 {
        fill: #1e1e1e;
      }
    </style>
  </defs>
  <g id="Layer_1-2" data-name="Layer 1">
    <path class="cls-1" d="m66.19,35.3c2.95-.7,3.83-3.82,3.43-6.12-.41-2.3-2.31-4.94-5.34-4.58,2.54-1.67,2.3-4.91,1.13-6.93-1.17-2.03-3.88-3.86-6.61-2.46,1.85-2.44.51-5.42-1.28-6.93-1.79-1.5-4.95-2.3-7.03-.07.9-2.93-1.37-5.27-3.57-6.07-2.19-.8-5.42-.47-6.62,2.31-.17-3.03-3.1-4.45-5.43-4.45s-5.26,1.42-5.43,4.45c-1.21-2.78-4.43-3.11-6.62-2.31-2.2.8-4.48,3.15-3.57,6.07-2.08-2.22-5.24-1.43-7.03.07-1.8,1.51-3.13,4.49-1.28,6.93-2.73-1.4-5.44.43-6.61,2.46-1.17,2.02-1.4,5.26,1.13,6.93-3.03-.37-4.94,2.27-5.34,4.58-.41,2.3.48,5.42,3.43,6.12-2.95.7-3.83,3.82-3.43,6.12.41,2.3,2.31,4.94,5.34,4.58-2.54,1.67-2.3,4.91-1.13,6.93,1.17,2.03,3.88,3.86,6.61,2.46-1.85,2.44-.51,5.42,1.28,6.93,1.79,1.5,4.95,2.3,7.03.07-.9,2.93,1.37,5.27,3.57,6.07,2.19.8,5.42.47,6.62-2.31.17,3.03,3.1,4.45,5.43,4.45s5.26-1.42,5.43-4.45c1.21,2.78,4.43,3.11,6.62,2.31,2.2-.8,4.48-3.15,3.57-6.07,2.08,2.23,5.24,1.43,7.03-.07,1.8-1.51,3.13-4.49,1.28-6.93,2.73,1.4,5.44-.43,6.61-2.46,1.17-2.02,1.4-5.26-1.13-6.93,3.03.37,4.94-2.27,5.34-4.58.41-2.3-.48-5.42-3.43-6.12Z"/>
  </g>
</svg>