<?xml version="1.0" encoding="UTF-8"?>
<svg id="Layer_2" data-name="Layer 2" xmlns="http://www.w3.org/2000/svg" viewBox="0 0 70.6 70.6">
  <defs>
    <style>
      .cls-1 {
        fill: #1e1e1e;
      }
    </style>
  </defs>
  <g id="Layer_1-2" data-name="Layer 1">
    <path class="cls-1" d="m70.6,35.3c-5.83,4.07-6.65,7.95-2.77,13.74-6.86,1.26-9.02,4.43-7.57,11.22-6.79-1.46-9.96.7-11.22,7.57-5.8-3.88-9.67-3.06-13.74,2.77-4.07-5.83-7.95-6.65-13.74-2.77-1.26-6.86-4.43-9.02-11.22-7.57,1.46-6.79-.7-9.96-7.57-11.22,3.88-5.8,3.06-9.67-2.77-13.74,5.83-4.07,6.65-7.95,2.77-13.74,6.86-1.26,9.02-4.43,7.57-11.22,6.79,1.46,9.96-.7,11.22-7.57,5.79,3.88,9.67,3.06,13.74-2.77,4.07,5.83,7.95,6.65,13.74,2.77,1.26,6.86,4.43,9.02,11.22,7.57-1.46,6.79.7,9.96,7.57,11.22-3.88,5.8-3.06,9.67,2.77,13.74Z"/>
  </g>
</svg>