<?xml version="1.0" encoding="UTF-8"?>
<svg id="Layer_2" data-name="Layer 2" xmlns="http://www.w3.org/2000/svg" viewBox="0 0 70.6 70.6">
  <defs>
    <style>
      .cls-1 {
        fill: #1e1e1e;
      }
    </style>
  </defs>
  <g id="Layer_1-2" data-name="Layer 1">
    <path class="cls-1" d="m70.08,35.89l-15.1,1.96c-.59.08-.72.88-.18,1.13l13.72,6.49c.63.3.32,1.26-.37,1.13l-14.92-2.81c-.59-.11-.95.61-.52,1.02l11.05,10.45c.51.48-.08,1.29-.7.96l-13.34-7.3c-.52-.29-1.1.29-.81.81l7.29,13.34c.34.61-.48,1.21-.96.7l-10.45-11.05c-.41-.43-1.13-.06-1.02.52l2.81,14.92c.13.69-.83,1-1.13.37l-6.49-13.72c-.25-.54-1.06-.41-1.13.18l-1.96,15.1c-.09.69-1.1.69-1.19,0l-1.96-15.1c-.08-.59-.88-.72-1.13-.18l-6.49,13.72c-.3.63-1.26.32-1.13-.37l2.81-14.92c.11-.59-.61-.95-1.02-.52l-10.45,11.05c-.48.51-1.29-.08-.96-.7l7.3-13.34c.29-.52-.29-1.1-.81-.81l-13.34,7.3c-.61.34-1.21-.48-.7-.96l11.05-10.45c.43-.41.06-1.13-.52-1.02l-14.92,2.81c-.69.13-1-.83-.37-1.13l13.72-6.49c.54-.25.41-1.06-.18-1.13l-15.1-1.96c-.69-.09-.69-1.1,0-1.19l15.1-1.96c.59-.08.72-.88.18-1.13l-13.72-6.49c-.63-.3-.32-1.26.37-1.13l14.92,2.81c.59.11.95-.61.52-1.02L6.83,15.34c-.51-.48.08-1.29.7-.96l13.34,7.3c.52.29,1.1-.29.81-.81l-7.3-13.34c-.34-.61.48-1.21.96-.7l10.45,11.05c.41.43,1.13.06,1.02-.52l-2.81-14.92c-.13-.69.83-1,1.13-.37l6.49,13.72c.25.54,1.06.41,1.13-.18l1.96-15.1c.09-.69,1.1-.69,1.19,0l1.96,15.1c.08.59.88.72,1.13.18l6.49-13.72c.3-.63,1.26-.32,1.13.37l-2.81,14.92c-.11.59.61.95,1.02.52l10.45-11.05c.48-.51,1.29.08.96.7l-7.3,13.34c-.29.52.29,1.1.81.81l13.34-7.3c.61-.34,1.21.48.7.96l-11.05,10.45c-.43.41-.06,1.13.52,1.02l14.92-2.81c.69-.13,1,.83.37,1.13l-13.72,6.49c-.54.26-.41,1.06.18,1.13l15.1,1.96c.69.09.69,1.1,0,1.19Z"/>
  </g>
</svg>