<?xml version="1.0" encoding="UTF-8"?>
<svg id="Layer_2" data-name="Layer 2" xmlns="http://www.w3.org/2000/svg" viewBox="0 0 70.6 70.6">
  <defs>
    <style>
      .cls-1 {
        fill: #1e1e1e;
      }
    </style>
  </defs>
  <g id="Layer_1-2" data-name="Layer 1">
    <path class="cls-1" d="m67.07,35.3c5.52,5.15,4.48,10.05-2.5,12.37,3.2,6.61.47,10.63-6.81,10.1.53,7.28-3.49,10.01-10.1,6.81-2.31,6.98-7.22,8.02-12.37,2.5-5.15,5.52-10.05,4.48-12.37-2.5-6.61,3.2-10.63.47-10.1-6.81-7.28.53-10.01-3.49-6.81-10.1-6.98-2.31-8.02-7.22-2.5-12.37-5.52-5.15-4.48-10.05,2.5-12.37-3.2-6.61-.47-10.63,6.81-10.1-.53-7.28,3.49-10.01,10.1-6.81,2.31-6.98,7.22-8.02,12.37-2.5,5.15-5.52,10.05-4.48,12.37,2.5,6.61-3.2,10.63-.47,10.1,6.81,7.28-.53,10.01,3.49,6.81,10.1,6.98,2.31,8.02,7.22,2.5,12.37Z"/>
  </g>
</svg>