<?xml version="1.0" encoding="UTF-8"?>
<svg id="Layer_2" data-name="Layer 2" xmlns="http://www.w3.org/2000/svg" viewBox="0 0 70.6 70.6">
  <defs>
    <style>
      .cls-1 {
        fill: #1e1e1e;
      }
    </style>
  </defs>
  <g id="Layer_1-2" data-name="Layer 1">
    <path class="cls-1" d="m55.13,46.75h0c1.28-2.21,4.22-2.78,6.22-1.2l2.24,1.76c2.34,1.84,5.82.73,6.63-2.14.09-.31.17-.63.25-.95.73-2.89-1.72-5.59-4.67-5.17l-2.81.4c-2.53.36-4.79-1.6-4.79-4.15h0c0-2.55,2.26-4.51,4.79-4.15l2.81.4c2.95.42,5.4-2.28,4.67-5.17-.08-.32-.16-.63-.25-.95-.81-2.86-4.29-3.97-6.63-2.14l-2.24,1.76c-2.01,1.58-4.95,1.01-6.22-1.2h0c-1.28-2.21-.3-5.04,2.07-5.99l2.63-1.06c2.76-1.11,3.54-4.68,1.46-6.81-.23-.23-.45-.46-.69-.69-2.13-2.08-5.7-1.3-6.81,1.46l-1.06,2.63c-.95,2.37-3.78,3.35-5.99,2.07h0c-2.21-1.28-2.78-4.22-1.2-6.22l1.76-2.24c1.84-2.34.73-5.82-2.14-6.63-.31-.09-.63-.17-.95-.25-2.89-.73-5.59,1.72-5.17,4.67l.4,2.81c.36,2.53-1.6,4.79-4.15,4.79h0c-2.55,0-4.51-2.26-4.15-4.79l.4-2.81c.42-2.95-2.28-5.4-5.17-4.67-.32.08-.63.16-.95.25-2.86.81-3.97,4.29-2.14,6.63l1.76,2.24c1.58,2.01,1.01,4.95-1.2,6.22h0c-2.21,1.28-5.04.3-5.99-2.07l-1.06-2.63c-1.11-2.76-4.68-3.54-6.81-1.46-.23.23-.46.45-.69.69-2.08,2.13-1.3,5.7,1.46,6.81l2.63,1.06c2.37.95,3.35,3.78,2.07,5.99h0c-1.28,2.21-4.22,2.78-6.22,1.2l-2.24-1.76c-2.34-1.84-5.82-.73-6.63,2.14-.09.31-.17.63-.25.95-.73,2.89,1.72,5.59,4.67,5.17l2.81-.4c2.53-.36,4.79,1.6,4.79,4.15h0c0,2.55-2.26,4.51-4.79,4.15l-2.81-.4c-2.95-.42-5.4,2.28-4.67,5.17.08.32.16.63.25.95.81,2.86,4.29,3.97,6.63,2.14l2.24-1.76c2.01-1.58,4.95-1.01,6.22,1.2h0c1.28,2.21.3,5.04-2.07,5.99l-2.63,1.06c-2.76,1.11-3.54,4.68-1.46,6.81.23.23.45.46.69.69,2.13,2.08,5.7,1.3,6.81-1.46l1.06-2.63c.95-2.37,3.78-3.35,5.99-2.07h0c2.21,1.28,2.78,4.22,1.2,6.22l-1.76,2.24c-1.84,2.34-.73,5.82,2.14,6.63.31.09.63.17.95.25,2.89.73,5.59-1.72,5.17-4.67l-.4-2.81c-.36-2.53,1.6-4.79,4.15-4.79h0c2.55,0,4.51,2.26,4.15,4.79l-.4,2.81c-.42,2.95,2.28,5.4,5.17,4.67.32-.08.63-.16.95-.25,2.86-.81,3.97-4.29,2.14-6.63l-1.76-2.24c-1.58-2.01-1.01-4.95,1.2-6.22h0c2.21-1.28,5.04-.3,5.99,2.07l1.06,2.63c1.11,2.76,4.68,3.54,6.81,1.46.23-.23.46-.45.69-.69,2.08-2.13,1.3-5.7-1.46-6.81l-2.63-1.06c-2.37-.95-3.35-3.78-2.07-5.99Z"/>
  </g>
</svg>