<?xml version="1.0" encoding="UTF-8"?>
<svg id="Layer_2" data-name="Layer 2" xmlns="http://www.w3.org/2000/svg" viewBox="0 0 70.6 70.6">
  <defs>
    <style>
      .cls-1 {
        fill: #1e1e1e;
      }
    </style>
  </defs>
  <g id="Layer_1-2" data-name="Layer 1">
    <path class="cls-1" d="m70.6,35.3c0,2.74-9.5,4.2-10.18,6.74-.7,2.62,6.78,8.63,5.45,10.92-1.35,2.33-10.3-1.16-12.19.73-1.89,1.89,1.59,10.84-.73,12.19-2.29,1.33-8.3-6.15-10.92-5.45-2.53.68-3.99,10.18-6.74,10.18s-4.2-9.5-6.74-10.18c-2.62-.7-8.63,6.78-10.92,5.45-2.33-1.35,1.16-10.3-.73-12.19-1.89-1.89-10.84,1.59-12.19-.73-1.33-2.29,6.15-8.3,5.45-10.92-.68-2.53-10.18-3.99-10.18-6.74s9.5-4.2,10.18-6.74c.7-2.62-6.78-8.63-5.45-10.92,1.35-2.33,10.3,1.16,12.19-.73,1.89-1.89-1.59-10.84.73-12.19,2.29-1.33,8.3,6.15,10.92,5.45,2.53-.68,3.99-10.18,6.74-10.18s4.2,9.5,6.74,10.18c2.62.7,8.63-6.78,10.92-5.45,2.33,1.35-1.16,10.3.73,12.19,1.89,1.89,10.84-1.59,12.19.73,1.33,2.29-6.15,8.3-5.45,10.92.68,2.53,10.18,3.99,10.18,6.74Z"/>
  </g>
</svg>