<?xml version="1.0" encoding="UTF-8"?>
<svg id="Layer_2" data-name="Layer 2" xmlns="http://www.w3.org/2000/svg" viewBox="0 0 70.6 70.6">
  <defs>
    <style>
      .cls-1 {
        fill: #1e1e1e;
      }
    </style>
  </defs>
  <g id="Layer_1-2" data-name="Layer 1">
    <path class="cls-1" d="m70.6,35.3c0,1.79-3.52,3.28-3.79,4.99-.28,1.76,2.61,4.26,2.07,5.92-.55,1.69-4.36,2.01-5.15,3.57-.8,1.57,1.16,4.85.13,6.27-1.04,1.42-4.76.56-6.01,1.8s-.38,4.97-1.8,6.01c-1.42,1.03-4.69-.94-6.27-.13-1.56.8-1.89,4.61-3.57,5.15-1.66.54-4.16-2.35-5.92-2.07-1.71.27-3.2,3.79-4.99,3.79s-3.28-3.52-4.99-3.79c-1.76-.28-4.26,2.61-5.92,2.07-1.69-.55-2.01-4.36-3.57-5.15-1.57-.8-4.85,1.16-6.27.13-1.42-1.04-.56-4.76-1.8-6.01-1.24-1.24-4.97-.38-6.01-1.8-1.03-1.42.94-4.69.13-6.27-.79-1.56-4.61-1.89-5.15-3.57-.54-1.66,2.35-4.16,2.07-5.92-.27-1.71-3.79-3.2-3.79-4.99s3.52-3.28,3.79-4.99c.28-1.76-2.61-4.26-2.07-5.92.55-1.69,4.36-2.01,5.15-3.57.8-1.57-1.16-4.85-.13-6.27,1.04-1.42,4.76-.56,6.01-1.8s.38-4.97,1.8-6.01c1.42-1.03,4.69.94,6.27.13,1.56-.8,1.89-4.61,3.57-5.15,1.66-.54,4.16,2.35,5.92,2.07,1.71-.27,3.2-3.79,4.99-3.79s3.28,3.52,4.99,3.79c1.76.28,4.26-2.61,5.92-2.07,1.69.55,2.01,4.36,3.57,5.15,1.57.8,4.85-1.16,6.27-.13,1.42,1.04.56,4.76,1.8,6.01,1.24,1.24,4.97.38,6.01,1.8,1.03,1.42-.94,4.69-.13,6.27.79,1.56,4.61,1.89,5.15,3.57.54,1.66-2.35,4.16-2.07,5.92.27,1.71,3.79,3.2,3.79,4.99Z"/>
  </g>
</svg>