<?xml version="1.0" encoding="UTF-8"?>
<svg id="Layer_2" data-name="Layer 2" xmlns="http://www.w3.org/2000/svg" viewBox="0 0 74.14 70.6">
  <defs>
    <style>
      .cls-1 {
        fill: #1e1e1e;
      }
    </style>
  </defs>
  <g id="Layer_1-2" data-name="Layer 1">
    <path class="cls-1" d="m74.14,35.3c0,3.07-17.34,3.35-18.24,6.12-.93,2.87,12.89,13.29,11.16,15.68-1.75,2.41-15.95-7.53-18.36-5.78-2.39,1.74,2.7,18.31-.17,19.25-2.77.9-8.39-15.47-11.46-15.47s-8.69,16.37-11.46,15.47c-2.87-.93,2.21-17.51-.17-19.25-2.41-1.75-16.6,8.19-18.36,5.78-1.74-2.39,12.09-12.81,11.16-15.68-.9-2.77-18.24-3.05-18.24-6.12s17.34-3.35,18.24-6.12c.93-2.87-12.89-13.29-11.16-15.68,1.75-2.41,15.95,7.53,18.36,5.78,2.39-1.74-2.7-18.31.17-19.25,2.77-.9,8.39,15.47,11.46,15.47S45.76-.86,48.53.04c2.87.93-2.21,17.51.17,19.25,2.41,1.75,16.6-8.19,18.36-5.78,1.74,2.39-12.09,12.81-11.16,15.68.9,2.77,18.24,3.05,18.24,6.12Z"/>
  </g>
</svg>