<?xml version="1.0" encoding="UTF-8"?>
<svg id="Layer_2" data-name="Layer 2" xmlns="http://www.w3.org/2000/svg" viewBox="0 0 70.6 70.6">
  <defs>
    <style>
      .cls-1 {
        fill: #1e1e1e;
      }
    </style>
  </defs>
  <g id="Layer_1-2" data-name="Layer 1">
    <path class="cls-1" d="m70.6,35.3c0-4-3.08-7.27-7-7.58,3.23-2.23,4.27-6.6,2.27-10.07-2-3.46-6.3-4.75-9.85-3.07,1.69-3.55.39-7.85-3.07-9.85-3.46-2-7.84-.97-10.07,2.27-.31-3.92-3.59-7-7.58-7s-7.27,3.08-7.58,7c-2.23-3.23-6.6-4.27-10.07-2.27-3.46,2-4.75,6.3-3.07,9.85-3.55-1.69-7.85-.39-9.85,3.07-2,3.46-.97,7.84,2.27,10.07-3.92.31-7,3.59-7,7.58s3.08,7.27,7,7.58c-3.23,2.23-4.27,6.6-2.27,10.07,2,3.46,6.3,4.75,9.85,3.07-1.69,3.55-.39,7.85,3.07,9.85,3.46,2,7.84.97,10.07-2.27.31,3.92,3.59,7,7.58,7s7.27-3.08,7.58-7c2.23,3.23,6.6,4.27,10.07,2.27,3.46-2,4.75-6.3,3.07-9.85,3.55,1.69,7.85.39,9.85-3.07,2-3.46.97-7.84-2.27-10.07,3.92-.31,7-3.59,7-7.58Z"/>
  </g>
</svg>