<?xml version="1.0" encoding="UTF-8"?>
<svg id="Layer_2" data-name="Layer 2" xmlns="http://www.w3.org/2000/svg" viewBox="0 0 70.6 70.6">
  <defs>
    <style>
      .cls-1 {
        fill: #1e1e1e;
      }
    </style>
  </defs>
  <g id="Layer_1-2" data-name="Layer 1">
    <polygon class="cls-1" points="70.6 35.3 51.15 37.82 68.88 46.21 49.6 42.58 63.86 56.06 46.64 46.64 56.06 63.86 42.58 49.6 46.21 68.88 37.82 51.15 35.3 70.6 32.78 51.15 24.39 68.88 28.02 49.6 14.54 63.86 23.96 46.64 6.74 56.06 21 42.58 1.72 46.21 19.45 37.82 0 35.3 19.45 32.78 1.72 24.39 21 28.02 6.74 14.54 23.96 23.96 14.54 6.74 28.02 21 24.39 1.72 32.78 19.45 35.3 0 37.82 19.45 46.21 1.72 42.58 21 56.06 6.74 46.64 23.96 63.86 14.54 49.6 28.02 68.88 24.39 51.15 32.78 70.6 35.3"/>
  </g>
</svg>