<?xml version="1.0" encoding="UTF-8"?>
<svg id="Layer_2" data-name="Layer 2" xmlns="http://www.w3.org/2000/svg" viewBox="0 0 70.6 70.6">
  <defs>
    <style>
      .cls-1 {
        fill: #1e1e1e;
      }
    </style>
  </defs>
  <g id="Layer_1-2" data-name="Layer 1">
    <path class="cls-1" d="m64.43,26.62h-8.17l5.78-5.78c2.41-2.41,2.41-6.32,0-8.73l-3.55-3.55c-2.41-2.41-6.32-2.41-8.73,0l-5.78,5.78V6.17c0-3.41-2.76-6.17-6.17-6.17h-5.02c-3.41,0-6.17,2.76-6.17,6.17v8.17l-5.78-5.78c-2.41-2.41-6.32-2.41-8.73,0l-3.55,3.55c-2.41,2.41-2.41,6.32,0,8.73l5.78,5.78H6.17c-3.41,0-6.17,2.76-6.17,6.17v5.02c0,3.41,2.76,6.17,6.17,6.17h8.17l-5.78,5.78c-2.41,2.41-2.41,6.32,0,8.73l3.55,3.55c2.41,2.41,6.32,2.41,8.73,0l5.78-5.78v8.17c0,3.41,2.76,6.17,6.17,6.17h5.02c3.41,0,6.17-2.76,6.17-6.17v-8.17l5.78,5.78c2.41,2.41,6.32,2.41,8.73,0l3.55-3.55c2.41-2.41,2.41-6.32,0-8.73l-5.78-5.78h8.17c3.41,0,6.17-2.76,6.17-6.17v-5.02c0-3.41-2.76-6.17-6.17-6.17Z"/>
  </g>
</svg>