<?xml version="1.0" encoding="UTF-8"?>
<svg id="Layer_2" data-name="Layer 2" xmlns="http://www.w3.org/2000/svg" viewBox="0 0 70.84 70.6">
  <defs>
    <style>
      .cls-1 {
        fill: #1e1e1e;
      }
    </style>
  </defs>
  <g id="Layer_1-2" data-name="Layer 1">
    <polygon class="cls-1" points="70.84 35.3 57.31 37.12 70.36 41.12 56.72 40.7 68.93 46.8 55.54 44.12 66.57 52.17 53.82 47.31 63.37 57.06 51.58 50.18 59.41 61.36 48.91 52.64 54.8 64.95 45.87 54.63 49.65 67.74 42.56 56.08 44.11 69.64 39.04 56.97 38.34 70.6 35.42 57.27 32.5 70.6 31.79 56.97 26.73 69.64 28.28 56.08 21.19 67.74 24.97 54.63 16.04 64.95 21.93 52.64 11.43 61.36 19.26 50.18 7.47 57.06 17.02 47.31 4.27 52.17 15.3 44.12 1.91 46.8 14.12 40.7 .48 41.12 13.53 37.12 0 35.3 13.53 33.48 .48 29.48 14.12 29.9 1.91 23.8 15.3 26.48 4.27 18.43 17.02 23.29 7.47 13.54 19.26 20.42 11.43 9.24 21.93 17.96 16.04 5.65 24.97 15.97 21.19 2.86 28.28 14.52 26.73 .96 31.79 13.63 32.5 0 35.42 13.33 38.34 0 39.04 13.63 44.11 .96 42.56 14.52 49.65 2.86 45.87 15.97 54.8 5.65 48.91 17.96 59.41 9.24 51.58 20.43 63.37 13.54 53.82 23.29 66.57 18.44 55.54 26.48 68.93 23.8 56.72 29.9 70.36 29.48 57.31 33.48 70.84 35.3"/>
  </g>
</svg>