<?xml version="1.0" encoding="UTF-8"?>
<svg id="Layer_2" data-name="Layer 2" xmlns="http://www.w3.org/2000/svg" viewBox="0 0 70.6 70.6">
  <defs>
    <style>
      .cls-1 {
        fill: #1e1e1e;
      }
    </style>
  </defs>
  <g id="Layer_1-2" data-name="Layer 1">
    <path class="cls-1" d="m65.23,29.93h-9.9l8.57-4.95c2.57-1.48,3.45-4.77,1.96-7.33h0c-1.48-2.57-4.76-3.45-7.33-1.96l-8.57,4.95,4.95-8.57c1.48-2.57.6-5.85-1.96-7.33h0c-2.57-1.48-5.85-.6-7.33,1.96l-4.95,8.57V5.37c0-2.96-2.4-5.37-5.37-5.37h0c-2.96,0-5.37,2.4-5.37,5.37v9.9l-4.95-8.57c-1.48-2.57-4.77-3.45-7.33-1.96h0c-2.57,1.48-3.45,4.77-1.96,7.33l4.95,8.57-8.57-4.95c-2.57-1.48-5.85-.6-7.33,1.96h0c-1.48,2.57-.6,5.85,1.96,7.33l8.57,4.95H5.37c-2.96,0-5.37,2.4-5.37,5.37h0c0,2.96,2.4,5.37,5.37,5.37h9.9l-8.57,4.95c-2.57,1.48-3.45,4.76-1.96,7.33h0c1.48,2.57,4.77,3.45,7.33,1.96l8.57-4.95-4.95,8.57c-1.48,2.57-.6,5.85,1.96,7.33h0c2.57,1.48,5.85.6,7.33-1.96l4.95-8.57v9.9c0,2.96,2.4,5.37,5.37,5.37h0c2.96,0,5.37-2.4,5.37-5.37v-9.9l4.95,8.57c1.48,2.57,4.76,3.45,7.33,1.96h0c2.57-1.48,3.45-4.77,1.96-7.33l-4.95-8.57,8.57,4.95c2.57,1.48,5.85.6,7.33-1.96h0c1.48-2.57.6-5.85-1.96-7.33l-8.57-4.95h9.9c2.96,0,5.37-2.4,5.37-5.37h0c0-2.96-2.4-5.37-5.37-5.37Z"/>
  </g>
</svg>