<?xml version="1.0" encoding="UTF-8"?>
<svg id="Layer_2" data-name="Layer 2" xmlns="http://www.w3.org/2000/svg" viewBox="0 0 130.37 44.91">
  <defs>
    <style>
      .cls-1 {
        fill: #1e1e1e;
      }
    </style>
  </defs>
  <g id="Layer_1-2" data-name="Layer 1">
    <polygon class="cls-1" points="123 41.17 130.37 37.43 123 33.68 130.37 29.94 123 26.2 130.37 22.46 123 18.71 130.37 14.97 123 11.23 130.37 7.49 123 3.74 130.37 0 105.76 0 24.62 0 0 0 7.37 3.74 0 7.49 7.37 11.23 0 14.97 7.37 18.71 0 22.46 7.37 26.2 0 29.94 7.37 33.68 0 37.43 7.37 41.17 0 44.91 24.62 44.91 105.76 44.91 130.37 44.91 123 41.17"/>
  </g>
</svg>