<?xml version="1.0" encoding="utf-8"?>
<!-- Generator: Adobe Illustrator 27.5.0, SVG Export Plug-In . SVG Version: 6.00 Build 0)  -->
<svg version="1.1" id="Layer_1" xmlns="http://www.w3.org/2000/svg" xmlns:xlink="http://www.w3.org/1999/xlink" x="0px" y="0px"
	 viewBox="0 0 500 500" style="enable-background:new 0 0 500 500;" xml:space="preserve">
<path d="M284.6,55.1c34.7,82.2,28.9,78.2,116.8,67.4c32.7-3.6,54.1,33.5,34.6,60c-14.8,24-57.3,59.4-33,89.8c0,0,33,45.1,33,45.1
	c19.4,26.6-1.9,63.6-34.6,60c0,0-55.5-6-55.5-6c-38.4-5.9-48,48.9-61.3,73.5c-13.3,30.1-56,30.1-69.3,0
	c-13.4-24.8-22.8-79.3-61.3-73.5c0,0-55.5,6-55.5,6c-32.7,3.6-54.1-33.4-34.6-60c53.9-71.2,53.3-64.2,0-134.9
	c-19.4-26.6,1.9-63.6,34.6-60c0,0,55.5,6,55.5,6c38.4,5.9,48-48.9,61.3-73.5C228.6,25,271.4,25,284.6,55.1z"/>
</svg>
