<?xml version="1.0" encoding="utf-8"?>
<!-- Generator: Adobe Illustrator 27.5.0, SVG Export Plug-In . SVG Version: 6.00 Build 0)  -->
<svg version="1.1" id="Layer_1" xmlns="http://www.w3.org/2000/svg" xmlns:xlink="http://www.w3.org/1999/xlink" x="0px" y="0px"
	 viewBox="0 0 500 500" style="enable-background:new 0 0 500 500;" xml:space="preserve">
<path d="M426.2,97.2c-45.6-45.6-119.6-45.7-165.3,0L250,108.1l-10.9-10.9C217.2,75.3,187.5,63,156.5,63C92,63,39.6,115.3,39.6,179.9
	c0,25,4.9,48.4,13.3,70.1c43.6,113.9,180,181.3,186.9,184.7c3.2,1.5,6.7,2.3,10.2,2.3c3.5,0,7-0.8,10.2-2.3
	c6.9-3.4,143.2-71.1,186.8-184.7c8.4-21.7,13.3-45.2,13.3-70.1C460.4,148.9,448.1,119.2,426.2,97.2z"/>
</svg>
