<?xml version="1.0" encoding="utf-8"?>
<!-- Generator: Adobe Illustrator 27.5.0, SVG Export Plug-In . SVG Version: 6.00 Build 0)  -->
<svg version="1.1" id="Layer_1" xmlns="http://www.w3.org/2000/svg" xmlns:xlink="http://www.w3.org/1999/xlink" x="0px" y="0px"
	 viewBox="0 0 500 500" style="enable-background:new 0 0 500 500;" xml:space="preserve">
<style type="text/css">
	.st0{fill:#FF00C0;}
</style>
<path class="st0" d="M83,194.3c0-51.2,41.5-92.8,92.8-92.8c24.6,0,48.2,9.8,65.6,27.2l8.6,8.6V0H0v250h93.5
	C86.9,232.8,83,214.2,83,194.3z"/>
<path class="st0" d="M250,0v137.3l8.6-8.6c36.2-36.2,95-36.2,131.2,0c17.4,17.4,27.2,41,27.2,65.6c0,19.8-4,38.4-10.6,55.7H500V0
	H250z"/>
<path class="st0" d="M241.9,396.6c-5.4-2.6-113.8-56.2-148.4-146.6H0v250h250V398.4C247.2,398.4,244.4,397.8,241.9,396.6z"/>
<path class="st0" d="M258.1,396.6c-2.5,1.2-5.3,1.9-8.1,1.9V500h250V250h-93.6C371.8,340.1,263.6,393.9,258.1,396.6z"/>
<path d="M389.8,128.7c-36.2-36.2-95-36.2-131.2,0l-8.6,8.6l-8.6-8.6c-17.4-17.4-41-27.2-65.6-27.2c-51.2,0-92.8,41.5-92.8,92.8
	c0,19.8,3.9,38.4,10.5,55.7c34.6,90.4,142.9,143.9,148.4,146.6c2.5,1.2,5.3,1.9,8.1,1.9c2.8,0,5.6-0.6,8.1-1.9
	c5.5-2.7,113.6-56.5,148.3-146.6c6.6-17.3,10.6-35.8,10.6-55.7C417,169.7,407.2,146.1,389.8,128.7z"/>
</svg>
