<?xml version="1.0" encoding="UTF-8"?>
<svg id="Layer_1" data-name="Layer 1" xmlns="http://www.w3.org/2000/svg" viewBox="0 0 500 500">
  <defs>
    <style>
      .cls-1 {
        fill: #ee2a7b;
      }
    </style>
  </defs>
  <polygon class="cls-1" points="500 0 500 105 395 0 500 0"/>
  <polygon class="cls-1" points="0 395 105 500 0 500 0 395"/>
  <path class="cls-1" d="m496.33,378.39c-4.09-.77-7.17-16.23-14.8-9.45-8.67-4.03-13.31-4.74-14.91-9.57.57,1.32,2.93-11.1-14.39-11.33-4.34-.69-9.41-4.35-10.13-11.99-4.18-.69-1.73-5.31-7.71-13.95,1.17-7.05-4.13-8.07-6.34-14.99-5.66-13.1,5.44-8.53-6.04-15.13-1.02-8.27-10.04-16.11-6.79-14.34,4.61-2.88,3.64-7.88-7.77-14.26-4.19-10.23,2.68-20.46-9.18-15.61-6.14-3.01-3.66-13.79-9.82-13.23-3.11-9.97-4.77-2.21-9.86-8.31-5.12-.4,3.09-1.53-10.86-7.91-11.11-2.69-10.1,1.2-9.2-9.72-7.66-7.59-6.46-10.23-8.51-13.34-2.49-2.99-5.74-5.1-13-8.09-6.83-.71-3.7-3.74-10.1-5.42-3.22-3.46-3.81-8.09-10.41-4.77-3.54,1.7-11.01,1.94-13.55-2.07-.13-.41-.34-.89-.67-1.5.15.56.39,1.05.67,1.5,1.22,3.73-5.16-.07-10.6-5.68,7.47,2.7-5.47-11.44-11.65-9.46-4.65-9.66-6.97-3.5-8.6-10.39-2.27-2.71-3-8.46-5.68-10.72,4.63-5.53-4.76-9.06-5.53-11.32-.61.1-6.3-7.25-7.94-14.26-1.13-5.05,2.69-3.4-9.68-15.35,2.94-3.85-7.82-8.38-11.4-14.15-6.37-.65-8.18-10.99-13.1-10.66-.67-2.32-20.17,5.81-12.8-5.43-16.48-7.38,7.15,11.44-12.96-4.04-4.11-4.41-2.38,10.33-13.33-6.75-2.07-4.93,2.62-.92-9.77-6.94,13.18-3.97-9.36-16.8-9.7-7.84-2.54,5.09-6.64-3.47-8.27-8.83-2.68-7.26-10.14-9.62-7.4-14.06.32-6.41-.59-8.34-2.77-11.44-.03-.8-1.22-3.89-3.18-7.57h256.43l105,105v277.08c-1-.96-2.19-2.16-3.67-3.7Z"/>
  <path class="cls-1" d="m0,120.71c.09.15.18.29.28.45,10.64,3.85,9.99,10.75,13.08,13.95.76,6.65,7.74,11.53,12.69,14.34,1.46,1.84,6.19,13.88,13.03,14.08,5.34,12.68,6.36,5.99,13.47,10,7.91.48,11.02,9.5,12.85,9.71-4.9,2.71,5.59,5.34,4.79,7.97,6.18-2.9,3.21-5.71,3.5,8.59,5.28-1.68,2.87,11.27,7.92,10.99,2.05,12.76,7.02,2.07,9.18,10.2,1.98,2.64,9.44,7.66,8.07,10.63,13.88,10.51-6.49,11.59,6.13,12.87,2.03,6.06,12.03,9.91,5.08,13.75-8.28-11.59,5.02,8.04,5.6,13.27-3.45-.72,18.68,6.66,7.69,11.45-1.12-1.01,8.59,11.91,11.52,12.67,5.02,3.24,8.98,5.08,12.1,11.13,6.41,8.03,8.99,4.66,11.39,6.08,5.57,5.67,10.05,8.27,11.98,5.23,8.14-7.76,15.95,5.59,11.01,8.41,11.36,8.96,10.95.68,7.6,10.06-3.43,10.95,1.61,2.17,6.68,8.34-4.8,4.05,4.6,8.67,10.59,6.76,7.54-.98,14.49,8.79,12.9,4.49,2.12.36,8.67,1.88,11.84,4.82,3.79-.12,6.02,3.71,10.86,9.36,9.56,4.49,5.07,10.77,9.41,12.38,7.66,6.86.91,11.57,9.08,12.8,7.25,8.72,5.02,8.31,8.95,12.95,9.49-.93-1.19,7.89,9,12.85,2.8.86,8.24,4.09,11.21,11.56,2.24-3.47,12.29,12.17,12.94,9.75,4.35,1.52,5.5,5.83,11.87,10.11-.15-4.2,10.95,7.18,8.02,12.63,9.05,4.05-2.05-.69.2,6.69-1.6,3.03-4.7,1.07.29,6.36-.86,2.55,8.16,4.21,7.46,10.02-2.18,3.15,9.78,13.48,9.42,8.84,1.72-1.4,3.26.44,4.87,2.74H105L0,395V120.71Z"/>
</svg>