<?xml version="1.0" encoding="UTF-8"?>
<svg id="Layer_1" data-name="Layer 1" xmlns="http://www.w3.org/2000/svg" viewBox="0 0 500 500">
  <defs>
    <style>
      .cls-1 {
        fill: #ee2a7b;
      }
    </style>
  </defs>
  <path class="cls-1" d="m397.59,301.75c-43.34,47.26-93.71,93.37-114.79,117.58-15.81,18.16-27.01,31.95-31.63,37.72v2.95s-.41-.53-1.17-1.48c-.76.95-1.17,1.48-1.17,1.48v-2.95c-4.61-5.76-15.81-19.56-31.63-37.72-21.08-24.21-71.45-70.32-114.79-117.58-43.34-47.26-46.85-94.52-38.65-133.72,8.2-39.19,49.2-76.08,113.62-68.01,20.23,2.53,35.01,12.23,45.79,24.33-7.24-55.48-37.22-84.35-37.22-84.35h124.94c-22.81,25.48-30.89,61.58-33.79,84.03,10.76-11.95,25.47-21.5,45.52-24.01,64.42-8.07,105.42,28.82,113.62,68.01,8.2,39.19,4.69,86.46-38.65,133.72Z"/>
</svg>