<?xml version="1.0" encoding="UTF-8"?>
<svg id="Layer_1" data-name="Layer 1" xmlns="http://www.w3.org/2000/svg" viewBox="0 0 500 500">
  <defs>
    <style>
      .cls-1 {
        fill: #ee2a7b;
      }
    </style>
  </defs>
  <path class="cls-1" d="m487.71,500l-68.41-68.4c-28.16,24.02-70.53,22.7-97.18-3.94-26.64-26.63-27.95-69-3.93-97.15l-68.4-68.39-83.46,83.45h.01s0,0,0,0c0,.01.01.01.01.01h-.01s0,0,0,0h-.01c-2-3.19-4.37-6.19-7.13-8.96-3.45-3.45-7.26-6.3-11.32-8.57-.74-.41-1.48-.8-2.23-1.17-7.16-3.54-14.96-5.31-22.76-5.31-1.65,0-3.29.07-4.93.23-.81.08-1.63.18-2.44.28-.41.07-.81.13-1.22.2-.41.07-.82.14-1.22.22-1.21.24-2.42.51-3.61.83h0c-.4.11-.8.23-1.2.35-1.19.35-2.36.75-3.54,1.18-.4.14-.79.3-1.17.46-.77.32-1.54.64-2.3,1-.38.18-.76.35-1.14.54-.56.28-1.13.57-1.68.88-.55.3-1.1.61-1.65.93-.73.43-1.45.88-2.16,1.35-2.84,1.87-5.55,4.07-8.05,6.57s-4.68,5.19-6.56,8.03c-.48.71-.93,1.43-1.36,2.16-.32.55-.64,1.1-.94,1.66-.3.55-.59,1.12-.87,1.68-.18.37-.37.76-.54,1.13-.35.76-.69,1.52-1,2.3-.15.39-.3.78-.46,1.17-.44,1.16-.83,2.35-1.18,3.54-.12.4-.23.8-.34,1.2h0c-.16.61-.31,1.2-.45,1.8-.13.6-.26,1.2-.38,1.81-.16.81-.3,1.63-.42,2.44-.11.81-.2,1.63-.28,2.44-.15,1.64-.23,3.29-.23,4.93,0,2.06.12,4.11.37,6.15.09.82.2,1.63.34,2.43.08.4.15.81.23,1.22.15.81.33,1.61.52,2.42,0,0,0,0,0,0,.39,1.61.85,3.19,1.4,4.76.69,1.96,1.5,3.89,2.43,5.77.37.75.76,1.5,1.17,2.23,2.26,4.06,5.11,7.87,8.56,11.32,2.76,2.76,5.77,5.13,8.95,7.13h.01s0,0,0,0h.01s-.02.03-.02.03c0,0,0-.03-.01-.04L12.1,499.76"/>
  <path class="cls-1" d="m12.29,0l68.4,68.39c28.16-24.02,70.53-22.7,97.17,3.93,26.64,26.64,27.96,69,3.94,97.16l68.41,68.4,83.46-83.44s-.03,0-.04-.01l.02-.02h.01s0,.02,0,.02h0c2.01,3.19,4.36,6.19,7.13,8.96,3.45,3.45,7.26,6.3,11.33,8.56.73.42,1.48.8,2.23,1.17,1.89.93,3.82,1.74,5.77,2.43,1.57.55,3.15,1.02,4.76,1.4.01,0,0,0,0,0,.81.19,1.61.37,2.42.52.41.08.82.15,1.22.23.81.14,1.61.25,2.43.34,2.04.25,4.09.37,6.15.37,1.64,0,3.29-.08,4.92-.24.82-.08,1.63-.18,2.44-.28.53-.08,1.06-.16,1.58-.26.29-.05.57-.11.86-.16.61-.12,1.22-.25,1.82-.38.6-.14,1.2-.29,1.8-.45h0c.4-.11.8-.23,1.2-.35.79-.23,1.57-.49,2.36-.76.78-.28,1.56-.58,2.34-.89.77-.31,1.54-.64,2.3-1,.38-.18.76-.36,1.14-.54,1.13-.56,2.24-1.17,3.34-1.81.73-.43,1.45-.88,2.16-1.35,2.84-1.87,5.54-4.06,8.03-6.56,2.5-2.5,4.7-5.21,6.58-8.05.48-.71.93-1.43,1.36-2.16.65-1.09,1.25-2.2,1.81-3.34.19-.38.37-.76.54-1.13.35-.76.68-1.53,1-2.3.31-.77.61-1.54.89-2.34.27-.79.52-1.57.76-2.36.12-.4.23-.8.34-1.2h0c.16-.61.3-1.2.45-1.8.14-.61.26-1.21.38-1.82.06-.28.11-.57.16-.86.03-.11.04-.23.06-.35.06-.42.13-.82.19-1.23.12-.81.21-1.63.28-2.44.17-1.63.24-3.27.24-4.92,0-7.8-1.77-15.6-5.31-22.76-.37-.75-.76-1.49-1.17-2.23-2.27-4.06-5.12-7.87-8.57-11.32-2.76-2.76-5.77-5.13-8.95-7.13h-.01s-.02-.02-.02-.02h.01s0,0,.01,0h0v.02S487.91.24,487.91.24"/>
  <path class="cls-1" d="m.18,487.88l68.35-68.34c-24.04-28.18-22.76-70.54,3.86-97.16,26.61-26.61,68.99-27.89,97.17-3.85l68.34-68.33-83.54-83.52h0s0,.02,0,.02c-.01,0-.01.01-.01.01h-.01s0-.02.02-.02h.01c3.17-2.01,6.18-4.37,8.94-7.14,3.45-3.45,6.3-7.26,8.56-11.31.41-.74.8-1.48,1.17-2.23,3.54-7.16,5.3-14.95,5.29-22.75,0-1.65-.07-3.29-.24-4.93-.08-.81-.18-1.63-.29-2.44-.07-.41-.13-.81-.2-1.22-.07-.41-.14-.82-.22-1.22-.24-1.21-.51-2.42-.83-3.61h0c-.11-.4-.22-.81-.34-1.2-.35-1.19-.75-2.37-1.18-3.54-.15-.4-.3-.79-.46-1.17-.32-.77-.64-1.54-1-2.3-.18-.38-.35-.76-.54-1.14-.28-.56-.57-1.13-.88-1.68-.3-.56-.61-1.1-.93-1.65-.44-.73-.88-1.45-1.36-2.16-1.87-2.85-4.08-5.55-6.58-8.06s-5.19-4.69-8.04-6.56c-.71-.48-1.43-.93-2.16-1.36-.55-.32-1.1-.64-1.66-.94-.56-.3-1.12-.59-1.68-.87-.37-.18-.76-.37-1.14-.54-.76-.35-1.52-.69-2.3-1-.39-.15-.78-.3-1.17-.46-1.16-.44-2.35-.83-3.54-1.18-.4-.12-.8-.23-1.2-.34h0c-.6-.16-1.19-.32-1.8-.45-.6-.13-1.2-.27-1.81-.39-.81-.16-1.63-.3-2.44-.42-.81-.11-1.63-.2-2.44-.28-1.64-.15-3.29-.23-4.93-.24-2.06,0-4.11.12-6.15.37-.82.09-1.63.2-2.43.34-.4.08-.81.14-1.22.23-.81.15-1.61.33-2.42.52,0,0,0,0,0,0-1.61.38-3.18.85-4.76,1.4-1.96.69-3.88,1.5-5.77,2.43-.75.37-1.5.76-2.23,1.17-4.06,2.26-7.87,5.1-11.32,8.55-2.76,2.76-5.13,5.77-7.12,8.94h0s0,.02,0,.02h-.01s-.02,0-.02,0c0,0,.03,0,.04-.01L0,12.35"/>
  <path class="cls-1" d="m499.82,12.1l-68.34,68.33c24.04,28.18,22.76,70.54-3.85,97.15-26.62,26.61-68.99,27.9-97.17,3.86l-68.35,68.34,83.53,83.51s0-.03.01-.04l.02.02h-.01s0,.02,0,.02h-.01c-3.18,2-6.17,4.36-8.94,7.12-3.45,3.45-6.3,7.26-8.55,11.32-.42.73-.8,1.48-1.17,2.23-.93,1.89-1.73,3.81-2.43,5.77-.55,1.57-1.01,3.15-1.4,4.75,0,.01,0,0,0,0-.19.81-.37,1.61-.52,2.42-.08.41-.15.82-.23,1.22-.14.81-.25,1.61-.34,2.43-.25,2.04-.37,4.09-.37,6.15,0,1.64.08,3.29.24,4.92.08.82.18,1.63.28,2.44.08.53.16,1.06.26,1.58.05.29.11.57.16.86.12.61.25,1.22.38,1.82.15.6.29,1.2.45,1.8h0c.11.4.22.81.34,1.2.23.79.49,1.57.76,2.36.28.78.58,1.56.89,2.34.32.77.64,1.54,1,2.3.18.38.36.76.54,1.14.56,1.13,1.17,2.24,1.81,3.34.43.73.88,1.45,1.36,2.16,1.87,2.85,4.06,5.54,6.56,8.04s5.21,4.71,8.06,6.58c.71.48,1.43.93,2.16,1.36,1.09.65,2.2,1.26,3.34,1.81.38.19.76.37,1.14.54.76.35,1.53.68,2.3,1,.77.32,1.55.61,2.34.89.79.27,1.57.52,2.36.76.4.12.8.23,1.2.34h0c.6.16,1.2.31,1.8.45.61.14,1.21.27,1.82.38.28.06.57.11.86.16.11.03.23.04.35.06.42.06.82.13,1.23.2.81.12,1.63.22,2.44.28,1.63.17,3.27.25,4.92.24,7.8,0,15.6-1.75,22.76-5.29.75-.37,1.49-.76,2.23-1.17,4.05-2.26,7.86-5.11,11.31-8.56,2.76-2.75,5.13-5.77,7.12-8.94h.01s0-.03,0-.03h.01s-.01.01-.01.03h-.02s83.54,83.53,83.54,83.53"/>
</svg>