<?xml version="1.0" encoding="UTF-8"?>
<svg id="Layer_1" data-name="Layer 1" xmlns="http://www.w3.org/2000/svg" viewBox="0 0 500 500">
  <defs>
    <style>
      .cls-1 {
        fill: #ee2a7b;
      }
    </style>
  </defs>
  <path class="cls-1" d="m445.15,234.85c-2.78-3.8-6.52-6.56-10.28-9.14-1.88-1.29-3.71-2.55-5.52-3.87-1.84-1.31-3.58-2.69-5.15-4.24-1.56-1.56-2.94-3.29-4.19-5.29-1.25-2.01-2.12-4.34-2.9-7.06-.78-2.72-1.02-5.23-.98-7.58,0-2.33.36-4.54.97-6.68,1.24-4.28,3.18-8.22,5.21-12.37,1.97-4.12,3.7-8.33,4.34-13.08.47-4.65-.14-9.92-3.48-15.56-6.68-11.37-16.25-12.8-25.25-13.51-4.58-.33-8.96-.6-13.3-1.65-2.16-.54-4.2-1.36-6.26-2.49-2.08-1.11-4.04-2.65-6.04-4.65-2-2-3.54-3.97-4.65-6.04-1.13-2.06-1.95-4.1-2.49-6.26-1.05-4.34-1.32-8.72-1.65-13.3-.71-9-2.14-18.57-13.51-25.25-5.64-3.34-10.9-3.95-15.56-3.48-4.75.64-8.95,2.37-13.08,4.34-4.15,2.03-8.08,3.97-12.36,5.21-2.14.61-4.34.98-6.68.97-2.35.04-4.86-.2-7.58-.98-2.72-.79-5.06-1.65-7.06-2.91-2.01-1.25-3.74-2.64-5.29-4.19-1.55-1.57-2.93-3.31-4.24-5.15-1.31-1.82-2.57-3.65-3.87-5.53-2.59-3.75-5.35-7.5-9.14-10.28-3.79-2.9-8.63-4.85-15.16-4.85s-11.37,1.95-15.16,4.85c-3.8,2.78-6.56,6.52-9.15,10.28-1.29,1.88-2.55,3.71-3.87,5.52-1.31,1.84-2.69,3.58-4.24,5.15-1.56,1.56-3.29,2.94-5.29,4.19-2.01,1.25-4.34,2.12-7.06,2.9-2.72.78-5.23,1.02-7.58.98-2.33,0-4.54-.36-6.68-.97-4.28-1.23-8.22-3.18-12.37-5.21-4.12-1.97-8.33-3.7-13.08-4.34-4.65-.47-9.92.14-15.56,3.48-11.36,6.68-12.8,16.25-13.5,25.24-.33,4.58-.6,8.96-1.65,13.3-.54,2.16-1.36,4.2-2.49,6.26-1.11,2.08-2.65,4.04-4.65,6.04-2,2-3.97,3.54-6.04,4.65-2.06,1.13-4.1,1.95-6.26,2.49-4.34,1.05-8.72,1.32-13.3,1.65-9,.7-18.57,2.14-25.25,13.51-3.35,5.64-3.95,10.9-3.48,15.56.64,4.75,2.37,8.96,4.34,13.08,2.02,4.15,3.97,8.08,5.21,12.37.61,2.14.98,4.34.97,6.68.04,2.35-.2,4.86-.98,7.58-.79,2.72-1.65,5.06-2.9,7.06-1.25,2.01-2.64,3.74-4.19,5.29-1.57,1.55-3.31,2.93-5.15,4.24-1.82,1.31-3.65,2.57-5.52,3.87-3.75,2.59-7.5,5.35-10.28,9.15-2.9,3.78-4.85,8.63-4.85,15.16s1.95,11.37,4.85,15.15c2.78,3.8,6.52,6.56,10.28,9.14,1.88,1.29,3.71,2.55,5.52,3.86,1.84,1.31,3.58,2.69,5.15,4.24,1.56,1.56,2.94,3.29,4.19,5.29,1.25,2,2.12,4.34,2.9,7.06.78,2.72,1.02,5.23.98,7.58,0,2.33-.36,4.54-.97,6.68-1.24,4.28-3.18,8.22-5.21,12.37-1.97,4.12-3.7,8.33-4.34,13.08-.47,4.65.14,9.92,3.48,15.56,6.68,11.37,16.25,12.8,25.25,13.51,4.58.33,8.96.6,13.3,1.65,2.16.54,4.2,1.36,6.26,2.49,2.08,1.11,4.04,2.65,6.04,4.65,2,2,3.54,3.97,4.65,6.04,1.13,2.06,1.95,4.1,2.49,6.26,1.05,4.34,1.32,8.72,1.65,13.3.71,9,2.14,18.57,13.51,25.25,5.64,3.34,10.9,3.95,15.56,3.48,4.75-.64,8.95-2.37,13.08-4.34,4.15-2.03,8.08-3.97,12.36-5.21,2.14-.61,4.34-.98,6.68-.97,2.35-.04,4.86.2,7.58.98,2.72.79,5.06,1.65,7.06,2.9,2.01,1.25,3.74,2.64,5.29,4.19,1.55,1.57,2.93,3.31,4.24,5.15,1.31,1.82,2.57,3.65,3.87,5.53,2.59,3.75,5.35,7.5,9.15,10.28,3.78,2.9,8.63,4.85,15.16,4.85,6.53,0,11.37-1.95,15.16-4.85,3.8-2.78,6.56-6.52,9.15-10.28,1.29-1.88,2.55-3.71,3.87-5.53,1.31-1.84,2.69-3.58,4.24-5.15,1.56-1.56,3.29-2.94,5.29-4.19,2.01-1.25,4.34-2.12,7.06-2.9,2.72-.78,5.23-1.02,7.58-.98,2.33,0,4.54.36,6.68.97,4.28,1.23,8.22,3.18,12.37,5.21,4.12,1.97,8.33,3.7,13.08,4.34,4.65.47,9.92-.14,15.56-3.48,11.36-6.68,12.8-16.25,13.5-25.24.33-4.58.6-8.96,1.65-13.3.54-2.16,1.36-4.2,2.49-6.26,1.11-2.08,2.65-4.04,4.65-6.04,2-2,3.97-3.54,6.04-4.65,2.06-1.13,4.1-1.95,6.26-2.49,4.34-1.05,8.72-1.32,13.3-1.65,9-.71,18.57-2.14,25.25-13.51,3.35-5.64,3.95-10.91,3.48-15.56-.64-4.75-2.37-8.96-4.34-13.08-2.02-4.15-3.97-8.08-5.21-12.37-.61-2.14-.98-4.34-.97-6.68-.04-2.35.2-4.86.98-7.58.79-2.72,1.65-5.06,2.9-7.06,1.25-2.01,2.64-3.74,4.19-5.29,1.57-1.55,3.31-2.93,5.15-4.24,1.82-1.31,3.65-2.57,5.52-3.87,3.75-2.59,7.5-5.35,10.28-9.15,2.9-3.79,4.85-8.63,4.85-15.16,0-6.53-1.95-11.37-4.85-15.15Z"/>
</svg>