<?xml version="1.0" encoding="UTF-8"?>
<svg id="Layer_1" data-name="Layer 1" xmlns="http://www.w3.org/2000/svg" viewBox="0 0 500 500">
  <defs>
    <style>
      .cls-1 {
        fill: #ee2a7b;
      }
    </style>
  </defs>
  <path class="cls-1" d="m31.79,280.29l149.56-4.5c5.38-.16,9.92,3.96,10.28,9.33l12.2,182.47c.39,5.76-4.18,10.66-9.96,10.67l-162.6.33c-5.55.01-10.05-4.5-10.02-10.05l.85-178.3c.03-5.39,4.31-9.79,9.7-9.95Z"/>
  <path class="cls-1" d="m31.24,21.9l256.11.04c5.87,0,10.48,5.04,9.96,10.89l-20.26,225.93c-.45,5.04-4.59,8.94-9.65,9.1l-234.99,7.31c-5.63.18-10.29-4.33-10.31-9.96l-.87-233.28c-.02-5.54,4.46-10.04,10-10.04Z"/>
  <path class="cls-1" d="m206.42,275.73l261.64-8.37c5.66-.18,10.34,4.37,10.32,10.04l-.85,190.89c-.02,5.5-4.48,9.94-9.98,9.96l-248.55.52c-5.27.01-9.65-4.07-10-9.33l-12.24-183.05c-.38-5.65,4-10.48,9.66-10.66Z"/>
  <path class="cls-1" d="m313.03,21.93l154.83-.34c5.52-.01,10.01,4.45,10.02,9.98l.52,220.61c.01,5.43-4.31,9.88-9.74,10.02l-176.07,4.54c-5.99.15-10.77-4.95-10.22-10.91l20.72-224.81c.47-5.14,4.78-9.07,9.94-9.08Z"/>
</svg>