<?xml version="1.0" encoding="UTF-8"?>
<svg id="Layer_1" data-name="Layer 1" xmlns="http://www.w3.org/2000/svg" viewBox="0 0 500 500">
  <defs>
    <style>
      .cls-1 {
        fill: #ee2a7b;
      }
    </style>
  </defs>
  <path class="cls-1" d="m422.82,11.22h67.32m-234.14,151.77c-2.55.58-5.19.89-7.91.89-3.4,0-6.68-.47-9.79-1.35-.57-.16-1.12-.34-1.68-.52-5.27-1.78-9.97-4.75-13.81-8.59-.81-.81-1.58-1.65-2.31-2.54-.36-.44-.71-.89-1.06-1.34-.17-.24-.34-.47-.5-.7-.17-.24-.34-.47-.49-.71-.48-.71-.94-1.44-1.37-2.18h0c-.14-.25-.29-.51-.42-.76-.41-.76-.79-1.53-1.16-2.32-.12-.27-.24-.53-.35-.8-.22-.53-.44-1.07-.64-1.62-.1-.27-.2-.55-.29-.83-.14-.42-.27-.84-.4-1.26-.12-.42-.24-.84-.35-1.27-.14-.57-.28-1.15-.4-1.73-.48-2.32-.73-4.73-.73-7.2s.25-4.86.73-7.18c.11-.58.25-1.16.4-1.73.11-.43.23-.86.35-1.28.12-.42.26-.84.4-1.25.09-.27.19-.55.29-.83.2-.55.41-1.09.64-1.62.12-.27.24-.53.35-.8.35-.79.75-1.56,1.16-2.32.14-.25.28-.51.42-.76h0c.22-.38.43-.74.66-1.11.23-.36.46-.72.7-1.08.32-.48.65-.95.99-1.41.35-.45.7-.9,1.06-1.34.73-.88,1.5-1.73,2.31-2.54,1.01-1.01,2.08-1.96,3.21-2.84.45-.36.9-.7,1.37-1.03.24-.16.47-.33.71-.49.47-.32.96-.63,1.45-.93,0,0,0,0,0,0,.98-.6,1.99-1.15,3.03-1.65,1.3-.62,2.65-1.17,4.04-1.64.55-.19,1.11-.37,1.68-.52,3.11-.89,6.39-1.36,9.79-1.36,2.72,0,5.37.32,7.91.89V11.22h234.14v233.91h-67.32c-2.04-25.67-23.54-45.88-49.75-45.88s-47.71,20.2-49.75,45.88h-67.32v-82.14Z"/>
  <path class="cls-1" d="m244.14,337c2.55-.58,5.19-.89,7.91-.89,3.4,0,6.68.47,9.79,1.36.57.16,1.12.34,1.68.52,1.38.47,2.73,1.02,4.04,1.64,1.04.5,2.05,1.05,3.03,1.65,0,0,0,0,0,0,.49.3.97.61,1.45.93.24.16.48.33.71.49.47.33.92.67,1.37,1.03,1.13.88,2.2,1.83,3.21,2.84.81.81,1.58,1.66,2.3,2.54.37.44.71.89,1.06,1.34.22.3.44.6.65.91.12.17.23.34.34.5.24.36.48.72.71,1.08.22.37.45.73.66,1.1h0c.14.25.29.51.42.76.27.5.53,1.01.79,1.53.25.52.48,1.05.71,1.59.22.53.44,1.07.64,1.62.1.27.2.55.29.83.28.83.53,1.68.75,2.53.15.57.28,1.15.4,1.73.48,2.32.73,4.72.73,7.18s-.25,4.88-.73,7.2c-.11.58-.25,1.16-.4,1.73-.22.86-.47,1.7-.75,2.53-.09.28-.19.55-.29.83-.2.55-.42,1.09-.64,1.62-.22.53-.46,1.06-.71,1.59-.25.52-.52,1.03-.79,1.53-.14.25-.28.51-.42.76h0c-.22.38-.44.74-.66,1.11-.23.37-.47.73-.71,1.08-.11.17-.22.33-.34.5-.04.07-.09.14-.14.2-.17.24-.34.47-.51.7-.34.46-.7.91-1.06,1.34-.72.89-1.49,1.73-2.3,2.54-3.84,3.84-8.54,6.81-13.81,8.59-.55.19-1.11.36-1.68.52-3.11.88-6.39,1.35-9.79,1.35-2.71,0-5.37-.32-7.91-.89v82.14H10v-233.91h67.32c2.04,25.67,23.54,45.88,49.75,45.88s47.72-20.2,49.75-45.88h67.32v82.13Z"/>
  <path class="cls-1" d="m10,78.49V11.22m82.2,233.94H10V11.22h234.11v67.26c-25.7,2.04-45.92,23.52-45.92,49.71s20.22,47.67,45.92,49.71v67.26h-82.21c.58,2.54.89,5.19.89,7.9,0,3.39-.47,6.67-1.35,9.78-.16.56-.34,1.12-.52,1.68-1.78,5.26-4.75,9.96-8.59,13.8-.81.81-1.65,1.58-2.54,2.31-.44.36-.89.71-1.34,1.06-.24.17-.47.34-.7.5-.24.17-.47.34-.71.49-.71.48-1.44.94-2.19,1.37h0c-.25.14-.5.29-.76.42-.76.41-1.53.79-2.32,1.16-.27.12-.53.24-.8.35-.53.22-1.07.44-1.62.64-.27.1-.55.2-.83.29-.42.14-.84.27-1.26.4-.42.12-.84.24-1.27.35-.57.14-1.15.28-1.73.4-2.32.48-4.74.73-7.2.73s-4.86-.25-7.18-.73c-.58-.11-1.16-.25-1.73-.4-.43-.11-.86-.23-1.28-.35-.42-.12-.84-.26-1.25-.4-.27-.09-.55-.19-.83-.29-.55-.2-1.09-.41-1.62-.64-.27-.12-.53-.24-.8-.35-.79-.35-1.56-.74-2.32-1.16-.25-.14-.51-.28-.76-.42h0c-.37-.22-.74-.43-1.11-.66-.36-.23-.72-.46-1.08-.7-.48-.32-.95-.65-1.41-.99-.45-.35-.9-.7-1.34-1.06-.88-.73-1.73-1.5-2.54-2.31-1.01-1.01-1.96-2.08-2.84-3.21-.36-.45-.7-.9-1.03-1.37-.16-.24-.33-.47-.49-.71-.32-.47-.63-.96-.93-1.45,0,0,0,0,0,0-.6-.98-1.15-1.99-1.65-3.03-.62-1.3-1.17-2.65-1.65-4.03-.19-.55-.37-1.11-.52-1.68-.89-3.11-1.36-6.38-1.36-9.78,0-2.72.32-5.36.89-7.9Z"/>
  <path class="cls-1" d="m490.14,421.52v67.26m-82.21-233.94h82.21v233.94h-234.11v-67.26c25.7-2.04,45.92-23.52,45.92-49.71s-20.22-47.68-45.92-49.71v-67.26h82.2c-.58-2.55-.89-5.18-.89-7.9,0-3.39.47-6.67,1.36-9.78.16-.56.34-1.12.52-1.68.47-1.38,1.02-2.73,1.65-4.03.5-1.04,1.05-2.05,1.65-3.03,0,0,0,0,0,0,.3-.49.61-.97.93-1.45.16-.24.33-.48.49-.71.33-.47.67-.92,1.03-1.37.88-1.13,1.83-2.2,2.84-3.21.81-.81,1.66-1.58,2.54-2.3.44-.37.89-.71,1.34-1.06.3-.22.6-.44.91-.65.17-.12.34-.23.5-.34.36-.24.72-.48,1.08-.71.37-.22.73-.45,1.11-.66h0c.25-.14.5-.29.76-.42.5-.27,1.01-.53,1.53-.79.52-.25,1.06-.48,1.59-.71.53-.22,1.07-.44,1.62-.64.27-.1.55-.2.83-.29.83-.28,1.68-.53,2.53-.75.57-.15,1.15-.28,1.73-.4,2.32-.48,4.73-.73,7.18-.73s4.88.25,7.2.73c.58.11,1.16.25,1.73.4.86.22,1.7.47,2.53.75.28.09.55.19.83.29.55.2,1.09.42,1.62.64.53.22,1.06.46,1.59.71.52.25,1.03.51,1.53.79.25.14.51.28.76.42h0c.37.22.74.44,1.11.66.37.23.73.47,1.08.71.17.11.34.22.5.34.07.04.14.09.2.14.24.17.47.34.7.51.46.34.91.69,1.34,1.06.89.72,1.73,1.49,2.54,2.3,3.84,3.83,6.81,8.54,8.59,13.8.19.55.36,1.11.52,1.68.88,3.11,1.35,6.38,1.35,9.78,0,2.71-.32,5.36-.89,7.9Zm-151.9,0"/>
</svg>