<?xml version="1.0" encoding="UTF-8"?>
<svg id="Layer_1" data-name="Layer 1" xmlns="http://www.w3.org/2000/svg" viewBox="0 0 500 500">
  <defs>
    <style>
      .cls-1 {
        fill: #ee2a7b;
      }
    </style>
  </defs>
  <path class="cls-1" d="m228.83,125.18c-22.32-24.39-56.62-9.92-56.62-9.92,9.59-10.25,15.99-18.39,14.79-35.19.02-.57.04-1.14.04-1.71,0-26.71-21.65-48.36-48.36-48.36s-48.36,21.65-48.36,48.36c0,3.36.35,6.65,1,9.82,1.1,11.62,6.85,18.63,14.75,27.08,0,0-34.31-14.47-56.62,9.92-22.32,24.39-11.16,53.32-4.13,62.82,7.03,9.51,17.56,25.47,42.37,23.63,21.95-1.63,25.19-5.37,40.3-17.43-1.8,33.15-21.91,55.8-21.91,55.8h66.13c-12.16-12.79-22.92-42.11-21.51-55.48,14.76,11.8,18.15,15.5,39.9,17.11,24.81,1.84,35.34-14.12,42.37-23.63,7.03-9.51,18.19-38.44-4.13-62.82Z"/>
  <path class="cls-1" d="m364.98,31.55c2.42,3.02,8.28,10.25,16.57,19.76,11.04,12.68,37.43,36.83,60.13,61.59,22.7,24.76,24.54,49.51,20.25,70.04-4.29,20.53-25.77,39.85-59.52,35.63-10.5-1.32-18.21-6.32-23.84-12.58,1.52,11.76,5.75,30.67,17.7,44.02h-65.45s15.7-15.12,19.49-44.18c-5.65,6.34-13.39,11.42-23.99,12.74-33.75,4.23-55.22-15.1-59.52-35.63-4.3-20.53-2.45-45.29,20.25-70.04,22.7-24.76,49.09-48.91,60.13-61.59,8.28-9.51,14.15-16.74,16.57-19.76l.61-.77"/>
  <path class="cls-1" d="m192.13,272.81c-41.29-.99-50.8,30.54-52.99,45.71-2.19-15.17-11.7-46.7-52.99-45.71-54.3,1.31-61.49,62.15-42.52,92.9,18.97,30.75,28.78,40.56,47.76,60.19,17.87,18.48,39.21,39.29,47.1,52.03,0,0,.42,1.49.65,1.09.23.4.65-1.09.65-1.09,7.89-12.74,29.23-33.54,47.1-52.03,18.97-19.63,28.78-29.44,47.76-60.19,18.97-30.75,11.78-91.59-42.52-92.9Z"/>
  <polygon class="cls-1" points="363.2 265.93 273.36 375.05 363.2 485.93 455.37 375.93 363.2 265.93"/>
</svg>