<?xml version="1.0" encoding="UTF-8"?>
<svg id="Layer_1" data-name="Layer 1" xmlns="http://www.w3.org/2000/svg" viewBox="0 0 500 500">
  <defs>
    <style>
      .cls-1 {
        fill: #ee2a7b;
      }
    </style>
  </defs>
  <path class="cls-1" d="m450,342.08c-.03-22.97-31.35-22.99-31.35-46.01s31.34-23.04,31.34-46.08-31.34-23.03-31.34-46.07,31.34-23.04,31.34-46.08-31.35-23.05-31.35-46.09,43.05-40.87,26.75-57.17c-16.29-16.29-34.12,26.74-57.16,26.74s-23.04-31.33-46.07-31.33-23.04,31.33-46.07,31.33-23.04-31.33-46.08-31.33-23.04,31.33-46.08,31.33-23.04-31.33-46.08-31.33-23.04,31.33-46.09,31.33-40.87-43.04-57.16-26.74c-16.29,16.3,26.75,34.12,26.75,57.17s-31.34,23.05-31.34,46.09,31.34,23.03,31.34,46.07-31.34,23.04-31.34,46.08,31.34,23.03,31.34,46.07-31.34,23.04-31.34,46.08,31.34,23.05,31.34,46.09-43.05,40.87-26.75,57.17c16.29,16.29,34.12-26.74,57.16-26.74s23.04,31.33,46.09,31.33,23.04-31.33,46.07-31.33,23.04,31.33,46.08,31.33,23.04-31.33,46.08-31.33,23.04,31.33,46.08,31.33v-.03c23.03-.01,23.04-31.33,46.08-31.33s40.87,43.04,57.18,26.75c16.3-16.29-26.75-34.12-26.75-57.16s31.37-23.1,31.34-46.14Z"/>
</svg>