<?xml version="1.0" encoding="UTF-8"?>
<svg id="Layer_1" data-name="Layer 1" xmlns="http://www.w3.org/2000/svg" viewBox="0 0 500 500">
  <defs>
    <style>
      .cls-1 {
        fill: #ee2a7b;
      }
    </style>
  </defs>
  <path class="cls-1" d="m0,339.63c1.43-.15,3.6-.26,5.34-.43-.5-.54,12.9,3,10.06,4.04,6.67-1.45,7.87,3.01,9.2,3.62,2.59,3.02,11.74-2.54,12.16,1.65-3.16,2.71,10.94,3.74,11.55.37,3.23-4.12,9.99.54,11.06-1.62,6.51-.19,3.3-.91,4.21-3.84,6.1-3.25-3.93-7.28,4.36-4.11,1.59-5.31,15.82-5.48,13.07-2.92,6.74,1.33,10.2-.68,13.91,1.12-1.12,1.94,15.14-1.6,14.36,2.02,6.61-2.85,12.09-1.44,14.41-.22,9.59,3.32,8.41-9.04,13.83-2.44,5.43-.45,3.75-1.61,13.86-2.53,5.95,4.39,4.66-2.86,13.85-2.35,3.76,1.72,4.89-5.09,13.79-1.88,6.64-.51,10.47-1.52,12.8.95,3.87.14,8.98,3.33,10.55,4.44-3.73,1.71,6.86-.07,11.01,5.32,2.58,5,11.46,8.02,10.98,2.42,7.11-.69,4.74,8.05,9.5-1.05,3.82-8.06-1.68-3.08,11.18-1.56-1.34-4.91,12.05-8.42,12.29,1.64-.7,3.15,3.78,4.34,10.89,4.27,2.42.61,1.91,4.39,11.05,3.36,5.8-1.86,9.47-.52,14.7.61,2.34,1.38,16.66-.66,15.31-.73-3.92-9.99,14.76-.65,12.11-2.38,3.68-2.94,24.52-6.95,11.95-4.86-1.98-6.83,6.79-2.94,11.91-5.49,8.79,7.18-3.42-6.4,12.02-4.27,1.01-2.74,8.91-1.2,11.84-1.62,6.51-3.78,2.89,6.13,12.26-.65,3.02,3.38,9.69-6.35,11.97-1.94,9.23-8.87,5.58-8.97,7.65-3.22,1.16-2.17,9.47,2.81,8.08-2.01,1.3,1.03,8.97-2.71,14.28,1.99,7.04,1.96,3.45,6.84,14.85,2.19,4.46,4.21,15.07-.42,17.16-.66,4.91,1.36,12.42,2.69,17.11-1.04,3.99-.08,7.95-4.85,17.11-.55,4.75-1.27,8.05-1.01,10.41-.23v-166.8c-.34.04-.71.1-1.11.17-6.37,5.73-5.62,2.95-10.25.66-7.48.57-15.74,3.87-16.69,4.76-3.34.58-5.14,1.23-9,5.49-1.08,4.54-7.29,1.32-13.58,4.21-4.43,2.36-12.44,5.18-10.82.36,5.46-5.89-16.93-12.03-11.1-1.18-11.66-4.03-6.15-3.6-10.58-1.79-17.75,3.88-7.32-4.36-12.71-4.16-22.53-2.93,4.34.11-10.76-5.64-2.45,11.77-9.65-5.71-11.54-4.67-2.91-3.32-10.6,2.08-15.04-1.54-5.93,1.38-15.6-2.56-16.17,1.74-15.4-.27-11.93,1.1-15.84,3.59-5.48,3.4-13.73,4.45-14.05,4-1.92.94-10.09-2.77-10.67,3.66-3.13-.27-7.23,2.91-10.38,3.19-5.39,3.33-2.96-2.04-12.02,1.14-2.66-5.17-19.8-4.41-13.36-1.39-7,.11-13.44-1.52-10.31-3.11-4.14.93-8.72-3.94-9.89-7.26-2.07-6.28-5.38-3.72-9.61-3.57-5.11-2.99-5.05.91-9.82-2.96-6.49-2.7-9.88-3.42-13.35-3.11-3.27.67-4.17,3.1-13.83,3.06-6.34,7.48-3.25,5.66-11.98.33-12.87-4.79-8.39,1.12-11.88-1.87-7.09.64-3.22-5.32-11.5-.98-3.55-4.25-8.8,4.14-14.59,2.16-4.43-10.58-6.56.25-15.68,4.07-11.26-3.18-15.04-.63-13.94,4.11,3.17.93-7.5.18-13.38,4.78-11.44-3.09-1.52,1.04-13.4,5.75-5.79,2.98-9.78.27-13.51,5.47-9.25,1.68-10.63,6.15-13.71,3.95-5.29,4.38-10.81,3.49-14,1.18-11.11-10.82-17.48-1.47-16.28-1.94-4.08,2.05-7.46-.44-15.5-3.38-.54-9.12-12.28-1.28-15.35-3.38C4.65,174.27,2.43,173.61,0,172.9"/>
  <path class="cls-1" d="m250.26,250.69c-.1-.46-.26-.92-.52-1.37.17.59.35,1.03.52,1.37Z"/>
</svg>