<?xml version="1.0" encoding="UTF-8"?>
<svg id="Layer_1" data-name="Layer 1" xmlns="http://www.w3.org/2000/svg" viewBox="0 0 500 500">
  <defs>
    <style>
      .cls-1 {
        fill: #ee2a7b;
      }
    </style>
  </defs>
  <path class="cls-1" d="m450,250c-9.1-17.38-20.26-32.51-32.89-44.77,4.76-16.91,7.07-35.67,6.05-55.27-16.47-10.66-33.9-17.93-50.85-22.3-4.37-16.95-11.64-34.38-22.3-50.84-19.6-1.01-38.36,1.3-55.26,6.07-12.26-12.63-27.39-23.79-44.76-32.89-17.38,9.1-32.51,20.26-44.76,32.9-16.9-4.76-35.66-7.07-55.26-6.06-10.65,16.46-17.92,33.9-22.29,50.84-16.94,4.37-34.38,11.64-50.85,22.3-1.01,19.6,1.3,38.36,6.06,55.26-12.63,12.26-23.79,27.39-32.89,44.76,9.1,17.38,20.26,32.51,32.89,44.77-4.76,16.91-7.07,35.67-6.05,55.27,16.47,10.66,33.9,17.93,50.85,22.3,4.37,16.95,11.64,34.38,22.31,50.84,19.6,1.01,38.36-1.3,55.26-6.07,12.26,12.63,27.39,23.79,44.76,32.89,17.37-9.1,32.51-20.26,44.76-32.9,16.9,4.76,35.66,7.07,55.26,6.06,10.65-16.46,17.92-33.9,22.29-50.84,16.94-4.37,34.38-11.64,50.84-22.3,1.01-19.6-1.3-38.36-6.06-55.26,12.63-12.26,23.79-27.39,32.89-44.76Z"/>
</svg>