<?xml version="1.0" encoding="UTF-8"?>
<svg id="Layer_1" data-name="Layer 1" xmlns="http://www.w3.org/2000/svg" viewBox="0 0 500 500">
  <defs>
    <style>
      .cls-1 {
        fill: #ee2a7b;
      }
    </style>
  </defs>
  <path class="cls-1" d="m243.9,158.11c2.65.6,5.41.93,8.24.93,3.54,0,6.95-.49,10.19-1.41.59-.17,1.17-.35,1.75-.54,5.49-1.85,10.39-4.94,14.39-8.95.85-.84,1.65-1.72,2.41-2.64.38-.46.74-.92,1.11-1.4.17-.25.35-.48.52-.73.17-.25.35-.49.51-.74.5-.74.98-1.5,1.42-2.28h0c.15-.26.3-.53.44-.79.43-.79.83-1.6,1.21-2.42.13-.28.25-.56.36-.83.23-.56.46-1.12.67-1.69.1-.28.21-.57.3-.86.14-.43.28-.87.41-1.31.13-.44.25-.88.37-1.32.15-.59.29-1.2.41-1.8.5-2.42.76-4.93.76-7.5s-.26-5.06-.76-7.48c-.12-.61-.26-1.21-.41-1.8-.12-.45-.24-.89-.37-1.33-.13-.44-.27-.87-.41-1.31-.1-.28-.2-.58-.3-.86-.21-.57-.43-1.13-.67-1.69-.12-.28-.25-.56-.36-.83-.37-.82-.78-1.63-1.21-2.42-.14-.26-.29-.53-.44-.79h0c-.23-.39-.45-.78-.69-1.16-.24-.37-.48-.75-.73-1.12-.33-.5-.68-.99-1.04-1.47-.36-.47-.73-.94-1.11-1.4-.76-.92-1.57-1.8-2.41-2.64-1.05-1.05-2.17-2.04-3.34-2.96-.47-.37-.94-.73-1.42-1.07-.25-.17-.49-.34-.74-.51-.49-.34-1-.66-1.51-.97,0,0,0,0,0,0-1.02-.63-2.07-1.2-3.16-1.72-1.36-.65-2.76-1.22-4.2-1.71-.58-.19-1.16-.38-1.75-.54-3.24-.92-6.66-1.42-10.19-1.42-2.83,0-5.59.33-8.24.93h0s0,0,0,0h-.01v-.02s.02.01.03.01V.02h-70.12c-2.12,26.74-24.52,47.79-51.82,47.79S72.25,26.76,70.13.02H0v243.65h70.13c2.12-26.74,24.52-47.79,51.83-47.79s49.7,21.04,51.82,47.79h70.12v-85.56Z"/>
  <path class="cls-1" d="m256.1,341.87c-2.66-.6-5.4-.93-8.24-.93-3.54,0-6.95.49-10.19,1.42-.59.16-1.17.35-1.75.54-1.44.49-2.85,1.07-4.2,1.71-1.09.52-2.13,1.09-3.16,1.72,0,0,0,0,0,0-.51.32-1.02.64-1.51.97-.25.17-.5.34-.74.51-.49.34-.96.7-1.42,1.07-1.18.92-2.29,1.91-3.34,2.96-.84.84-1.64,1.73-2.4,2.64-.38.46-.74.92-1.11,1.4-.23.31-.46.63-.68.94-.12.17-.24.35-.36.52-.25.37-.5.75-.74,1.12-.23.38-.47.76-.69,1.15h0c-.15.26-.3.53-.44.79-.28.52-.56,1.05-.82,1.6-.26.54-.5,1.1-.74,1.65-.23.56-.46,1.12-.67,1.69-.1.28-.21.58-.3.86-.29.87-.55,1.75-.78,2.64-.16.59-.29,1.2-.41,1.8-.5,2.42-.76,4.92-.76,7.48s.26,5.08.76,7.5c.12.61.26,1.21.41,1.8.23.89.49,1.77.78,2.64.1.29.2.58.3.86.21.57.43,1.13.67,1.69.23.56.48,1.11.74,1.65.27.54.54,1.07.82,1.6.14.26.29.53.44.79h0c.23.39.46.78.69,1.16.24.38.49.76.74,1.12.12.17.23.35.36.52.05.07.1.14.15.21.18.25.36.48.53.73.36.48.72.94,1.11,1.4.75.92,1.55,1.8,2.4,2.64,4,4,8.9,7.09,14.39,8.95.58.19,1.16.37,1.75.54,3.24.92,6.66,1.41,10.19,1.41,2.83,0,5.59-.33,8.24-.93h.01s.01,0,.01,0h0s0,0-.01.01h-.01s0,85.55,0,85.55h70.13c2.12-26.74,24.52-47.79,51.83-47.79s49.7,21.04,51.82,47.79h70.12v-243.65h-70.12c-2.12,26.74-24.52,47.79-51.82,47.79s-49.71-21.04-51.83-47.79h-70.13v85.55Z"/>
  <path class="cls-1" d="m341.74,243.69c-.6,2.65-.93,5.4-.93,8.23,0,3.54.49,6.95,1.41,10.19.17.59.35,1.17.54,1.75,1.86,5.48,4.95,10.38,8.95,14.37.84.85,1.72,1.65,2.65,2.4.46.37.92.74,1.4,1.11.25.17.49.35.73.52.25.17.49.35.74.51.74.5,1.5.98,2.28,1.42h0c.26.15.52.3.79.44.79.43,1.6.83,2.42,1.21.28.13.56.25.83.36.56.23,1.12.46,1.69.67.28.1.57.21.86.3.43.14.87.28,1.31.41.44.13.88.25,1.33.37.6.15,1.2.29,1.8.41,2.42.5,4.94.76,7.5.76s5.06-.26,7.48-.76c.61-.12,1.21-.26,1.8-.41.45-.12.89-.24,1.33-.37.44-.13.87-.27,1.31-.41.28-.1.58-.2.86-.3.57-.21,1.13-.43,1.69-.67.28-.12.56-.25.83-.36.82-.37,1.63-.78,2.42-1.21.27-.14.53-.29.79-.44h0c.39-.23.77-.45,1.15-.69.38-.24.75-.48,1.13-.73.5-.33.99-.68,1.47-1.03.47-.36.94-.73,1.4-1.11.92-.76,1.8-1.56,2.65-2.4,1.05-1.05,2.04-2.17,2.96-3.34.38-.47.73-.94,1.07-1.42.17-.25.34-.49.51-.74.34-.49.66-1,.97-1.51,0,0,0,0,0,0,.63-1.02,1.2-2.07,1.72-3.15.65-1.36,1.22-2.76,1.71-4.2.19-.58.38-1.16.54-1.75.93-3.24,1.42-6.65,1.42-10.19,0-2.83-.33-5.58-.93-8.23h0v-.03h.02s-.01.02-.01.03h85.63v-70.06c-26.77-2.12-47.83-24.5-47.83-51.78s21.06-49.66,47.83-51.78V0h-243.87v70.07c26.77,2.12,47.83,24.5,47.83,51.78s-21.06,49.66-47.83,51.78v70.06h85.63Z"/>
  <path class="cls-1" d="m158.28,256.31c.6-2.66.93-5.4.93-8.23,0-3.54-.49-6.95-1.42-10.19-.16-.59-.35-1.17-.54-1.75-.49-1.44-1.07-2.84-1.71-4.2-.52-1.09-1.09-2.13-1.72-3.15,0,0,0,0,0,0-.32-.51-.64-1.01-.97-1.51-.17-.25-.34-.5-.51-.74-.34-.48-.7-.96-1.07-1.42-.92-1.18-1.91-2.29-2.96-3.34-.84-.84-1.73-1.64-2.65-2.4-.46-.38-.92-.74-1.4-1.11-.31-.23-.63-.46-.94-.68-.17-.12-.35-.24-.52-.36-.38-.25-.75-.5-1.13-.74-.38-.23-.76-.47-1.15-.69h0c-.26-.15-.52-.3-.79-.44-.52-.28-1.05-.56-1.6-.82-.54-.26-1.1-.5-1.66-.74-.56-.23-1.12-.46-1.69-.67-.28-.1-.58-.21-.86-.3-.87-.29-1.75-.55-2.64-.78-.6-.16-1.2-.29-1.8-.41-2.42-.5-4.92-.76-7.48-.76s-5.08.26-7.5.76c-.61.12-1.21.26-1.8.41-.89.23-1.77.48-2.64.78-.29.1-.58.2-.86.3-.57.21-1.13.43-1.69.67-.56.23-1.11.48-1.66.74-.54.26-1.07.54-1.6.82-.27.14-.53.29-.79.44h0c-.39.23-.77.46-1.15.69-.38.24-.76.48-1.13.74-.17.12-.35.23-.52.36-.07.05-.14.1-.21.15-.25.18-.49.36-.73.53-.48.36-.94.72-1.4,1.11-.92.75-1.8,1.55-2.65,2.4-4,3.99-7.1,8.89-8.95,14.37-.19.58-.38,1.16-.54,1.75-.92,3.24-1.41,6.65-1.41,10.19,0,2.82.33,5.58.93,8.23h0s0,.03,0,.03h-.01s0,0,0-.01h0s-85.63-.01-85.63-.01v70.07c26.77,2.12,47.83,24.5,47.83,51.78S26.81,427.82.05,429.94v70.06h243.87v-70.06c-26.77-2.12-47.83-24.5-47.83-51.78s21.06-49.66,47.83-51.78v-70.07h-85.63Z"/>
</svg>