<?xml version="1.0" encoding="UTF-8"?>
<svg id="Layer_1" data-name="Layer 1" xmlns="http://www.w3.org/2000/svg" viewBox="0 0 500 500">
  <defs>
    <style>
      .cls-1 {
        fill: #ee2a7b;
      }
    </style>
  </defs>
  <path class="cls-1" d="m2.64,107.42c.81,1.58,1.16-4.36,1.85-2.25,1.41.2,3.24-3.77,4.88-.71.98-6.2,1.97.46,2.94.06,1.81,3.41,2.07,2.82,3.45-1.85.8,4.66,1.71-1.03,2.69-.54,1.24-1.52.71,2.38,1.47.8,1.68-6.73,3.23-1.59,4.99.9,1.06-1.36,1.47,1.28,2.64,1.42,1.45,6.82,2.98,3.4,4.45.79,1.48-1.78,4.32-1.21,5.57-.13.08-1.98-.15-1.97.73-2.31.97-.22,2.71,1.32,3.8.07,1.83-4.65,2.36-2.21,2.66-3.68,3.06-3.59,5.37-3.89,8.3-4.08,1.15-2.52,2.64.64,3.81.13,1.94-.39,3.46,1.14,5.08-1.48,1.12,4.69,2.79-3.32,3.69-3.19.92-1.87.31-.66,1.8-2.38,2.24-2.08,4.9-.9,7.2,1.66,1.01,1.69,2.04-.65,3.05-.03,3.24,4.03,4.91,1.55,7.34,3.82,2.06-.71,4.18,6.36,6.26,6.39,1.91,3.9,4.84,4.46,7.38,4.45,1.48-1.39,3.09-.63,4.58-.05,2.73-2,5.47,1.34,8.2.02,2.55,4.48,4.55-3.07,7.12-.27,1.05,1.59,2.23.83,3.32,1.94.72,2.78,1.8-2.45,2.28-1.32.72-1.46,1.22-2.32,1.85-1.52.87,1.64,1.05-.02,2.11-1.35,1.36.16,2.08,2.95,3.6-1.37,1.03,4.78,2.07,1.28,3.1.02,1.24,1.76,3.7.33,4.82.08.76-.34.97-1.97,1.75-1.71.6,2.84,1.84-3.51,2.46.23,4.06,1.02,8.51,2.38,12.67,1.23,2.06-.92,3.86-2.2,6.05-.61,2.39-1.15,3.64,10.28,5.86,3.13,2.09-1.67,4.11,1.29,6.17,4.12,2.06,1.38,4.16,5.9,6.42,3.54,3.93-.63,6.7-2.53,10.3-.98.53-3.73,1.97-4.45,2.65-1.87,1.86-4.62,2.54,1.15,3.78,3.13,1.89,1.69,5.57.91,7.81.48,2.04,3.93,4.09,1.48,6.13,0,2.57-1.21,5.15-3.21,7.72,0,2.24-2.23,4.2,1.98,6.34-.79,2.42,3.53,5.14,2.5,7.49.07,1.71,3.41,1.43,3.25,2.4-2.57,1.87-6.43,5.39.68,7.57-1.23,2.44,1.41,4.89-1,6.58-5.5,2.31-2.67,5.59-2.42,8.72-1.49,2.27-4.74,2.09-2.5,3.55-2.47,1.12-2.75,2.82-.26,4.3-2.79.71-.24,1.39-1.34,2.04-.49.39,2.23.86-.57,1.4-1.05,2.14-.48,5.82.52,8.05-.13,2.62,1.67,5.26-1.2,7.9-.13,2.64-1.99,5.27-1.46,7.89.06,3.01-1.31,5.4,1.9,8.3,3.16,1.25,3.56,2.56,1.92,3.79.5,1.01-2.5,1.31-3.77,2.44,1.85,1.47.62,2.5-.68,4.13.82,1.73,2.51,4.17,3.41,6.16,2.84,1.33-3.4,4.97-.05,6.51,2.1,1.5-.38,3.28,1.13,4.76,2.51,1.33-.72,2.92.08,4.3.12,2.26.72,4.25-1.8,6.5.76,2.31.5,5-2.01,7.23.3,3.61,1.54,6.98,6.67,10.62,1.17,1.87.95,3.52-2.06,5.49-2.23,1.99-1.7,2.15-2.92,3.43-3.16,1.06-.54,2.1-1,3.53-2.29,2.23-.2,4.63-1.13,6.89-.64,1.79-.2,2.69,3.12,4.27-1.01,2.47-1.42,4.4-.69,7.01-1.33,1.66-.09,2.69-2.48,4.12-1.62.94-1.1-.03.06,1.56-.73,1.06-3.63,2.09-.09,3.16-.42,1.12,1.2,1.88-3.42,2.74-1.53.2-2.02.27-2.75.49-1.01.53-1.46,2.45,1.95,3.12-.13,1.52-.22,3.07-.13,4.58-.05,2.57-2.89,4.82-1.05,7.45-.7,3.13-.36,6.26,1.05,9.39,0,2.15-.88,4.3-.87,6.44-.02,1.82.96,2.12-3.75,3.73,1.42,2.35.64,5.81,1.63,8.17.13,1.41-1.2,2.82-.87,4.23,0,2.93,1.23,4.28,5.31,6.54,4.64,2.86,7.15,6.88,1.16,10.35,1.51,1.63-3.02,4.25-.55,5.76.12.97,3.4,2.43,3.36,3.13,3.1,1.61-1.23,1.98,2.22,4.55,2.94,2.28-1.29,4.58,1.07,6.86-.01,3.84.86,7.68.3,11.52,0,.98-.61,1.97-.73,2.95.04.04.07.09.12.14.17V0H0v107.66c.08-.02.17-.05.25-.11.67.07,1.74-1.74,2.39-.13Z"/>
  <path class="cls-1" d="m2.24,300.72c.58-.76.46-2.73,1.12-1.91.76,1.19,2.71,1.69,3.67-.76,1.27,3.68,2.09-5.18,3.43-1.22,3.59-2.39,6.91-1.13,10.26-4.41,3.35.15,6.72-1.85,10.39-1.71,2.43-1.88,4.78,1.87,7.27,1.98,1.5-.53,3.06-1.25,4.54-.08,2.47,2.4,3.9.2,6.12,3.34,1.73-.28,3.64-3.47,5.2,1.78,2,2.32,2.94,4.25,4.97,6.2,1.44,2.2,2.65-.68,4.09.84,2.19.74,3.25,2.64,5.61,4.92,1.78,3.73,3.85-1.15,5.68.11,1.03-.86,2.04,1.44,3.06.14.81.35,1.58-1.31,2.39,1.42,2.43,1.03,5.56.77,8.07.15,4,.62,8.06.81,12.06.02,2.41.26,5.18-2.92,7.3-3.02,1.28-.2,1.76-4.75,3.17-2.57,3.66.53,8.74-.77,12.4.43,2.58,2.19,4.81.2,7.49.88,1.77.43,2.93-2.66,4.35.8,1.21,1.08,2.1,6.99,3.46,3.74,2.51,8.94,5.69.69,8.36-.27,2.49,2.22,4.98-.75,7.47,0,1.41,3.96,3.29.05,4.56-.36.67-1.82,1.06,1.25,1.86-1.84.88-8.11,1.67,2.02,2.58-.38.85-1.71,1.67-.17,2.5.09,3.72,2.53,7.3-2.12,11.05.8,3.34-3.86,6.68-.07,10.01-.02.93-4.99,3.16,4.04,4.09.07,1.14,4.81.59-.57,1.48-1.59.88-2.67.34.27,1.91-1.06.47-2.36.95-4.6,1.43.08,2.07-.79,4.5.64,6.87-1.25,2.37-2.26,4.68-2.75,6.5-3.32.96-.82,1.13-.12,2.26-2.21,1.03-1.63,3.29,1.63,4.2-.14,1.78-6.19,3.97.49,5.7-.17,1.99.17,3.32.48,5.37.38,2.54,1.92,4.99,2.22,7.75,1.37,1.59.75,3.11-1.06,4.79-1.77,1.73,3.3,3.49,3.23,5.24-1.46,2.15,1.32,4.38-.28,6.54-.04,1.85-1.35,4.78-2.18,6.49.15.52,5.31.9.53,1.38,1.42.7-1.1,1.48.05,2.22.54,1.17,2.64,2.53,4.38,3.63,2.32.82-.06,1.19.92,1.94,1.78,1.03-.22,1.79.62,2.89,2.11.52,2.31,1,5.71,1.49,1.59,1.3,2.25,2.94-.11,4.32.35,2.04.73,3.89-2.55,5.9.67,2.55,1.59,5.24,1.14,7.93.55,2.7.42,5.4.86,7.99-.36,2.56,1.94,5.12-1.03,7.68,0,2.56,3.68,5.12-.28,7.68,0,1.59-2.99,3.21.38,4.8.05,2.36-5.94,3.28-1.35,5.21-2.6.9,1.75,2.79-5.83,3.45-3.1.55-2.05.4-.48.98-3.41.43-4.71.97-1.14,1.32-2.04.28-5.4.3-.57.71-2.63.95-1.45,2.27,4.5,3.6-1.82,1.79,2.98,3.19,1.38,5.15-1.63,1.08-2.98,2.2-1.55,3.28.1,2.35.69,4.53-2.53,6.79-3.96,1.52-4.03,1.29-2.56,2.36-1.9.55-2.04,1.68-3.03,2.31-.38,3.81.74,7.2-1.89,10.79-4.07,1.32-2.21,2.5-.56,3.84-.66.51,4.42,1.89,2.24,2.34.72,1.33.34,2,.91,3.29,3.58,3.36,7.35,7.29,2.37,9.64,9.27,1.14,1.08,2.28,7.26,3.64,5.94,1.69,4.96,4.11,7.85,6.19,2.49,2.09,5.01,3.88-2.31,5.95,2.49,1.91-2.45,4.03,3.03,6,1.04,2.47,1.04,3.81-.94,5.9,1.84,3.01,5.16,6.27,4.16,9.95,4.15,3.37,2.6,5.53-.91,8.39-3.01,1.3-3.02,2.46-2.22,3.66-3.23,2.82-1.53,6.42.69,9.74-3.29,3.19,3.02,6.08,2.62,9.26-.78,2.27-1.75,4.55-3.22,6.83-.08,4.18,2.03,7.72,2.72,11.77,3.31,1.65-1.42,4.17-1.89,5.85.07,2.63-2.33,3.87-4.85,6.18-5.71,3.31-5.25,7-1.89,10.73-2.22,2.58-.47,5.17.07,7.68.32v-93.76c-1.73.13-3.47,1.31-5.2.48-2.44-4.94-4.89-1.51-7.33,0-2.44-4.82-4.89-8.02-7.33,0-2.39,1.49-5.19,3.17-7.5-.15-1.77-4.59-2.66,5.01-4.54-1.58-1.85-.59-3.71.39-5.56.02-3.03,1.17-6.05-.24-9.08,0-1.54-.44-3.16-.44-4.68.19-2-.79-2.9,3.62-4.77-.34-1.54.62-2.56-1.56-4.45-2.5-1.4,2.62-2.54,2.56-3.91.89-2.18-.62-4.23-.42-6.43,1.71-1.63-2.32-2.42,6.23-3.63,2.89-.31-1-.77-.64-1.37,1.48-.16-2.21-.32-2.64-.48-.18-1.02.49-2,2.38-3.06,2.51-2.19,1.96-4.62,2.31-7.1,2.06-2.47-.08-4.98-3.69-7.32-.12-1.54-.86-4.78,2.45-6.14.1-.83-.53-1.06-.65-2.01,2.5-.43.23-1.74-2.44-2.16-.06-2.31-1.84-4.61,6.01-6.84.63-2.98.86-5.59,9.13-8.82,4.61-2.66,2.05-5.54,2.62-8.21-.1-1.82.8-3.65.78-5.47-.02-1.26-4.31-2.5-2.86-3.74.17-.47,3.07-.43,3.82-.9,1.81-1.16-.42-3.27,1.15-4.67-.41-3.87-.86-7.36-2.42-11.23-4.14-2.64-.59-4.68-.04-7.24-1.08-2-.01-4.27-.14-6.55-.98-2.29,1.06-4.59-4.51-6.66.34-2.08-2.63-3.93,4.12-6.08.89-2.13.15-4-1.9-6.05-.83-1.51-2.4-2.96-5.49-4.46-2.26-1.68-1.63-2.28,2.68-3.92.56-.8-.65-1.72,3.43-2.53-.05-1.96,1.07-3.73,1.92-5.66-.9-.9-.82-1.89-.64-2.79.06-1.92,1.94-1.39-1.64-2.64-.87-3.62-3.38-5.37.07-8.89,1.61-3.48.02-7.65-.07-11.19.1-1.24-.25-2.72-1.3-3.92-.15-.76-.05-1.72-3.14-2.47-1.75-1.97-2.89-3.22-2.43-5.4-2.38-1.38.18-2.6,1.29-3.87-.5-.97-1.25-1.4-3.02-2.51-1.27-1.75-1.2-3.67-1.33-5.45.06-1.55,1.22-3.28-.11-4.8.06-2.05,2.72-3.16-1.6-5.38-2.65-.92-.44-2.11-1.57-3.02-.07-1.7-1.6-2.6,1.64-4.5,1.89-2.14.38-3.91-.4-5.67,1.1-.93.89-1.5-.89-2.78,3.22-.65,1.7-1.98,0-2.6-.13-3.36,4.49-6.8.37-10.09,1.02.06,3.06.02,3.72-.13,1.4-2.56.81-5.21-2.74-7.79.15-.83,1.32-2.04,1.42-2.82-.09-1.17.25-2.19,3.79-3.33,2.04-1.11,3.25-1.59.89-2.53,1.97-3.67,1.38-7.2-1.23-10.72-2.27-1.72-1.96-3.13,3-4.84-.79-1.26-2.69-2.25-2.48-3.52-2.64-1.57,2.16-3.28,1.23-4.77-.37-1.81.26-3.45-.29-5.33-4.68-3.46-1.86-7.86-3.5-11.68-5.5-2.51-2.27-4.97-4.83-7.6-3.18-1.28.49-2.73,5.71-3.89,1.98-2.1.88-3.03,2.08-5.45,3.26-1.42-.33-2.78-.84-4.21,1.65-3.49,2.72-7.18.23-10.75.92-2.76-2.45-6.96-2.66-9.39.4-3.18.04-5.6,5.48-9.25,6.51-1.85-.6-3.96.04-5.76-.09-1.35,4.4-2.5,3.09-3.97.91-3.3-.59-6.6,2.01-9.9-.02-.32.48-2.03-1.41-2.36-.09-.61,2.91-.73.56-1.35,1.65-1.65.32-4.53.79-6.45.34-4.05.18-8.26,3.56-12.23,4.27-2.14-2.05-3.46,2.44-5.72,1.53-3.12-1.01-5.81-.49-8.85-1.57-2.57-3.22-4.84-2.87-7.32.52-2.07-.69-4.33,1.96-6.41,0-2.06.3-4.26-1.45-6.32-.87-1.1,1.64-2.37.37-3.51-.75-1.55.97-2.15.8-3.57,2.76-1.24-1.15-4.01-3.31-5.31-.04-2.14,2.45-4.04-2.45-6.26-1.83-2.26-2.83-2.81,1.52-4.41,3.57-.36,1.08-.78,1.89-1.24,2.48v79.46c.8-.58,1.56-1.99,2.24-4.6Z"/>
  <path class="cls-1" d="m493.44,411.8c-.96-1.13-1.09,1.57-1.86-3.71-1.55-2.86-2.97-2.53-5.19-2.19-.98-4.87-1.96-1.46-2.95.36-.78,1.86-1.47-5.03-2.07,1.3-2.64.51-6.09.66-8.82.14-1.96,1.61-4.1-1.18-6.04.06-1.23,1.13-2.22-3.98-3.42-1.59-.1,1.76-2.62,1.74-5.44,2.49-2.81-3.23-5.91.25-7.19-.14-4.15-2.46-7.36-.65-10.61-6.19-2.1-.52-3.82-6.13-6.35-2.57-2.07-.95-3.99-.45-6.09.79-2.36,3.23-5.37,2.02-7.65,2.17-1.61.01-3.16-1.55-4.83,1.8-3.36,2.54-7.31-.1-10.79.83-2.74-.07-5.28.41-7.99-1.66-2.26,3.24-4.63-2.86-6.98-.11-2.35,2.48-4.68,2.11-6.87,1.16-4.08.95-7.97.98-12.21,1.42-3.77-2.96-5.88-6.4-9.5-6.45-2.45-.57-5.43-.24-7.9.06-1.42-1.98-2.43,1.86-3.72.57-2.12,3.8-4.42,2.37-6.61,2.24-1.89,1.7-3.81,2.35-5.75.32-2.95-2.11-5.38,4.45-8.27,2.47-1.55-.88-3.56-1.45-5.07.08-1.32,4.11-3.17,2.38-4.3,2.68-.85,2.44-1.33-.87-2.08,2.63-.24,2.34-.87-1.02-1.07.29-2.59,3.62-5.38,2.53-8.26,2.19-3.69,3.38-8.51,4.21-11.82-.97-3.04,3-5.82-8.61-9.39-6.19-3.27-5.29-6.91.54-10.2.04-2.35-.16-4.78.73-7.2-.2-2.42.83-4.82-1.24-7.12.78-2.23,3.49-4.26-.14-6.32,2.55-2.06,1.05-4.17,3.96-6.55,1.68-1.98.57-3.97,1.76-5.95-.06-1.63.56-3.82,1.1-5.29.74-1.19,1.85-1.82,4.8-3.11,3.13-1.79.08-3.56-.4-5.61,1.71-1.49-3.31-3.09-1.4-4.56.03-.72-3.07-1.3,1.33-2.05.77-1.71,2.21-3.68,3.14-5.43-.03-4-.94-7.58-4.39-11.45-1.59-2.38,2.46-4.44,3.15-6.89-1.58-4.03-1.33-8.08,2.6-12.11-.02-2.56-1.84-4.92-.39-7.45,2.2-1.06-1.49-1.75,1.96-2.64,1.13-.78,2.07-1.05.63-2.07,2.15-2.14.23-5.27-1.07-7.5.07-.95,3.41-1.89.39-2.84,0-1.23,1.63-2.46-2.62-3.69,0-1.26-1.4-2.61-3.13-3.86.08-2.03-.72-3.76-3.36-5.68-3-2.42-1.69-5.9-2.55-7.96-3.39-.91,1.11-1.27,1.7-2.32-2.42-1.81,6.8-3.55-1.6-5.58-.78-2.35.02-4.7,2.23-7.05,0-3.95-1.06-7.94,1.23-11.38,2.38-.94.7-1.44.53-2.57,2.42-1.15,1.41-2.56-2.57-3.82.71-1.32,1.85-2.52-.39-3.9,1.47-2.08-1.73-3.57,2.06-5.36,1.9-2.25,1.71-5.01,8-7.53,2.85-2.37-.51-4.74-2.27-7.12.75-2.37,2.5-4.75-.06-7.12.59-2.39,3.37-4.79,1.65-7.2.44-2.41,2.95-4.82,2.49-7.23-.04-3.06-1.3-6.23-1.77-9.28-.03-1.09-1.23-1.89-1.29-3,1.11-1.91-1.55-3.44,3.98-5.32,3.4-.95,7.02-1.52.52-2.37.32-1.73.71-3.24.67-4.86,3.16-1.96,1.07-4.08,1.63-6.25,2.28-2.17,3.24-4.4-9.85-6.55-.13-2.09-1.48-4.1-1.3-6.14-1.62-1.68.91-3.27,3.73-4.81-1.29-2.59-.5-4.53-1.9-7.49-2.47-2.76,3.53-5.52-1.97-8.27.01-.1.19-.2.36-.31.5v70.8h30.52c7.24.29,15.18.07,23.72,0,8.54-.02,17.69-.11,27.34,0,9.65,1.17,19.8-.5,30.35,0,10.55.25,21.51-.39,32.77,0,11.26.33,22.82-.44,34.58,0,11.76.06,23.72-.06,35.78,0,12.06,0,24.22-.04,36.39,0,12.16,0,24.32-.51,36.39,0,12.06,0,24.02.44,35.78,0,11.76,0,23.32.54,34.58,0,11.26,0,22.21-.47,32.77,0,10.55,0,20.71-.18,30.35,0,9.65,0,18.8.1,27.34,0,8.54,0,16.48,0,23.72,0h27.64v-82.86c-1.12-.21-2.18-.63-2.98-1.12-1.1-2.18-2.48-7.16-3.58-3.8Z"/>
</svg>