<?xml version="1.0" encoding="UTF-8"?>
<svg id="Layer_1" data-name="Layer 1" xmlns="http://www.w3.org/2000/svg" viewBox="0 0 500 500">
  <defs>
    <style>
      .cls-1 {
        fill: #ee2a7b;
      }
    </style>
  </defs>
  <path class="cls-1" d="m245.03,156.51c-.29-21.33-42.79-71.04-104.95-60.1-52.85,9.3-90.02,53.57-90.02,106.89,0,29.76,11.25,56.7,27.13,79.37,43.7,62.4,112.43,104.56,167.93,122.48.03,0,.06-.02.09-.03l-.09-248.6h-.09Z"/>
  <path class="cls-1" d="m254.97,156.51c.29-21.33,42.79-71.04,104.95-60.1,52.85,9.3,90.02,53.57,90.02,106.89,0,29.76-11.25,56.7-27.13,79.37-43.7,62.4-112.43,104.56-167.93,122.48-.03,0-.06-.02-.09-.03l.09-248.6h.09Z"/>
</svg>