<?xml version="1.0" encoding="UTF-8"?>
<svg id="Layer_1" data-name="Layer 1" xmlns="http://www.w3.org/2000/svg" viewBox="0 0 500 500">
  <defs>
    <style>
      .cls-1 {
        fill: #ee2a7b;
      }
    </style>
  </defs>
  <path class="cls-1" d="m208.91,175.07l-185.52,5.26c-5.63.16-10.28-4.36-10.28-9.98l-.17-147.4c0-5.54,4.49-10.03,10.03-10.01l182.38.51c5.42.02,9.84,4.35,9.97,9.77l3.31,141.63c.13,5.5-4.21,10.07-9.71,10.23Z"/>
  <path class="cls-1" d="m476.92,341.27l-180.78-1.95c-5.39-.06-9.76-4.38-9.89-9.76l-3.21-136.11c-.13-5.49,4.19-10.05,9.67-10.23l183.17-6.02c5.63-.18,10.3,4.31,10.33,9.94l.82,144.08c.03,5.59-4.52,10.12-10.11,10.06Z"/>
  <path class="cls-1" d="m266.97,339.28l-241.82-.78c-5.48-.02-9.93-4.44-9.97-9.92l-.98-126.81c-.04-5.46,4.3-9.94,9.76-10.07l239.12-5.74c5.51-.13,10.08,4.21,10.24,9.72l3.68,133.33c.16,5.64-4.39,10.29-10.03,10.28Z"/>
  <path class="cls-1" d="m348.47,171.33l-109.11,2.74c-5.53.14-10.12-4.23-10.25-9.76l-3.33-140.96c-.13-5.62,4.39-10.24,10.01-10.24l108.25.12c5.4,0,9.82,4.3,9.98,9.7l4.2,138.1c.17,5.54-4.2,10.16-9.74,10.3Z"/>
  <path class="cls-1" d="m476.99,167.02l-97.72,2.78c-5.53.16-10.14-4.21-10.28-9.74l-3.52-136.69c-.15-5.63,4.38-10.26,10.01-10.26l101.18.12c5.52,0,9.99,4.48,9.99,10l.06,133.8c0,5.41-4.3,9.85-9.72,10Z"/>
  <path class="cls-1" d="m165.83,486.89H23.1c-5.52,0-9.99-4.47-10-9.99l-.16-120.33c0-5.56,4.53-10.06,10.09-10.01l126.92,1.15c4.98.04,9.16,3.74,9.82,8.67l15.97,119.18c.8,6-3.86,11.33-9.91,11.33Z"/>
  <path class="cls-1" d="m311.74,486.89h-115.55c-5.02,0-9.26-3.72-9.91-8.7l-15.61-118.77c-.79-6.04,3.95-11.38,10.04-11.3l139.37,1.79c5.75.07,10.25,4.97,9.85,10.7l-8.21,116.98c-.37,5.24-4.72,9.3-9.98,9.3Z"/>
  <path class="cls-1" d="m476.93,486.9l-135.32.16c-5.81,0-10.4-4.92-9.99-10.71l8.35-116.55c.38-5.27,4.79-9.34,10.08-9.29l127.13,1.31c5.49.06,9.9,4.53,9.9,10.01l-.16,115.08c0,5.51-4.48,9.98-9.99,9.99Z"/>
</svg>