<?xml version="1.0" encoding="UTF-8"?>
<svg id="Layer_1" data-name="Layer 1" xmlns="http://www.w3.org/2000/svg" viewBox="0 0 500 500">
  <defs>
    <style>
      .cls-1 {
        fill: #ee2a7b;
      }
    </style>
  </defs>
  <path class="cls-1" d="m449.93,293.29c-.1-2.51-.46-4.8-.98-6.97-.5-2.16-1.05-4.21-1.68-6.2-2.57-8.13-5.2-15.63-5.12-30.11-.08-14.49,2.55-21.99,5.12-30.12.63-2,1.18-4.04,1.68-6.2.53-2.17.88-4.46.98-6.97.31-5.04-.29-11.01-2.79-18.51-2.51-7.49-5.74-12.64-8.99-16.57-3.36-3.89-6.69-6.62-10.22-9.13l-5.22-3.85c-1.8-1.31-3.59-2.72-5.39-4.37-3.68-3.25-7.45-7.39-11.89-13.26-4.45-5.87-7.33-10.63-9.43-14.99-2.02-4.42-3.45-8.25-4.78-12.3-1.53-3.87-2.98-7.98-5.88-12.14-2.82-4.23-6.93-8.73-13.5-13.37-6.58-4.63-12.31-6.98-17.33-8.3-2.54-.63-4.9-1.01-7.16-1.27-2.27-.25-4.49-.27-6.66-.33-8.74-.17-17.04-.04-31.3-4.66-7.18-2.23-12.42-4.46-16.78-6.78-2.17-1.21-4.12-2.42-5.98-3.58-1.86-1.19-3.62-2.42-5.4-3.65-3.59-2.33-7.29-4.69-12.17-6.5-2.44-.87-5.16-1.7-8.3-2.26-3.13-.56-6.69-.9-10.75-.9s-7.62.34-10.74.9c-3.15.56-5.86,1.39-8.3,2.26-4.87,1.81-8.58,4.17-12.16,6.5-1.79,1.23-3.54,2.46-5.4,3.65-1.87,1.16-3.82,2.37-5.98,3.58-4.36,2.32-9.59,4.55-16.78,6.78-14.26,4.62-22.56,4.49-31.3,4.66-2.17.07-4.39.08-6.66.34-2.26.26-4.62.65-7.16,1.28-5.03,1.32-10.76,3.67-17.34,8.3-6.57,4.63-10.68,9.13-13.5,13.37-2.9,4.17-4.35,8.28-5.88,12.14-1.33,4.06-2.76,7.89-4.78,12.3-2.1,4.36-4.98,9.11-9.42,14.99-4.44,5.88-8.21,10.01-11.89,13.26-1.8,1.65-3.6,3.06-5.39,4.37l-5.22,3.85c-6.88,5.06-14.01,10.73-19.22,25.7-2.5,7.49-3.1,13.47-2.79,18.5.1,2.51.46,4.8.98,6.97.5,2.16,1.05,4.21,1.68,6.2,2.57,8.13,5.2,15.63,5.12,30.11.08,14.49-2.55,21.99-5.12,30.12-.63,2-1.18,4.04-1.68,6.2-.53,2.17-.88,4.46-.98,6.97-.31,5.04.29,11.01,2.79,18.51,2.51,7.49,5.74,12.64,8.99,16.57,3.36,3.89,6.69,6.62,10.22,9.13l5.22,3.85c1.8,1.31,3.59,2.72,5.39,4.37,3.68,3.25,7.45,7.39,11.89,13.26,4.44,5.87,7.33,10.63,9.43,14.99,2.02,4.42,3.44,8.25,4.78,12.3,1.53,3.87,2.98,7.98,5.88,12.14,2.82,4.23,6.93,8.73,13.5,13.37,6.58,4.63,12.31,6.98,17.33,8.3,2.54.63,4.9,1.01,7.16,1.27,2.27.25,4.49.27,6.66.33,8.74.17,17.04.04,31.3,4.66,7.18,2.23,12.42,4.46,16.78,6.78,2.17,1.21,4.12,2.42,5.98,3.58,1.86,1.19,3.62,2.42,5.4,3.65,3.59,2.33,7.29,4.69,12.17,6.5,2.44.87,5.16,1.7,8.3,2.26,3.13.56,6.69.9,10.75.9s7.62-.34,10.74-.9c3.15-.56,5.86-1.39,8.3-2.26,4.87-1.81,8.58-4.17,12.17-6.5,1.79-1.23,3.54-2.46,5.4-3.65,1.87-1.16,3.82-2.37,5.98-3.58,4.36-2.32,9.6-4.55,16.78-6.78,14.26-4.62,22.56-4.49,31.3-4.66,2.17-.06,4.39-.08,6.66-.34,2.26-.26,4.62-.65,7.16-1.28,5.03-1.32,10.76-3.67,17.34-8.3,6.57-4.63,10.68-9.13,13.5-13.37,2.9-4.17,4.35-8.28,5.88-12.14,1.33-4.06,2.76-7.89,4.78-12.3,2.1-4.36,4.98-9.11,9.43-14.99,4.44-5.88,8.21-10.01,11.89-13.26,1.8-1.65,3.6-3.06,5.39-4.37l5.22-3.85c6.88-5.06,14.01-10.73,19.21-25.7,2.5-7.49,3.09-13.47,2.79-18.5Z"/>
</svg>