<?xml version="1.0" encoding="UTF-8"?>
<svg id="Layer_1" data-name="Layer 1" xmlns="http://www.w3.org/2000/svg" viewBox="0 0 500 500">
  <defs>
    <style>
      .cls-1 {
        fill: #ee2a7b;
      }
    </style>
  </defs>
  <path class="cls-1" d="m355.98,50.04c-82.58-1.93-101.6,59.22-105.98,88.63-4.38-29.41-23.4-90.56-105.98-88.63-108.6,2.54-122.99,120.51-85.04,180.13,37.94,59.62,57.57,78.65,95.51,116.7,35.74,35.84,78.43,76.18,94.2,100.89,0,0,.84,2.89,1.31,2.11.47.78,1.31-2.11,1.31-2.11,15.78-24.71,58.47-65.04,94.2-100.89,37.94-38.05,57.57-57.08,95.51-116.7,37.94-59.62,23.55-177.59-85.04-180.13Z"/>
</svg>