<?xml version="1.0" encoding="UTF-8"?>
<svg id="Layer_1" data-name="Layer 1" xmlns="http://www.w3.org/2000/svg" viewBox="0 0 500 500">
  <defs>
    <style>
      .cls-1 {
        fill: #ee2a7b;
      }

      .cls-2 {
        fill: #124676;
      }
    </style>
  </defs>
  <path class="cls-1" d="m339.63,500c-.15-1.43-.26-3.6-.43-5.34-.54.5,3-12.9,4.04-10.06-1.45-6.67,3.01-7.87,3.62-9.2,3.02-2.59-2.54-11.74,1.65-12.16,2.71,3.16,3.74-10.94.37-11.55-4.12-3.23.54-9.99-1.62-11.06-.19-6.51-.91-3.3-3.84-4.21-3.25-6.1-7.28,3.93-4.11-4.36-5.31-1.59-5.48-15.82-2.92-13.07,1.33-6.74-.68-10.2,1.12-13.91,1.94,1.12-1.6-15.14,2.02-14.36-2.85-6.61-1.44-12.09-.22-14.41,3.32-9.59-9.04-8.41-2.44-13.83-.45-5.43-1.61-3.75-2.53-13.86,4.39-5.95-2.86-4.66-2.35-13.85,1.72-3.76-5.09-4.89-1.88-13.79-.51-6.64-1.52-10.47.95-12.8.14-3.87,3.33-8.98,4.44-10.55,1.71,3.73-.07-6.86,5.32-11.01,5-2.58,8.02-11.46,2.42-10.98-.69-7.11,8.05-4.74-1.05-9.5-8.06-3.82-3.08,1.68-1.56-11.18-4.91,1.34-8.42-12.05,1.64-12.29,3.15.7,4.34-3.78,4.27-10.89.61-2.42,4.39-1.91,3.36-11.05-1.86-5.8-.52-9.47.61-14.7,1.38-2.34-.66-16.66-.73-15.31-9.99,3.92-.65-14.76-2.37-12.11-2.94-3.68-6.95-24.52-4.86-11.95-6.83,1.98-2.94-6.79-5.49-11.91,7.18-8.79-6.4,3.42-4.27-12.02-2.74-1.01-1.2-8.91-1.62-11.84-3.78-6.51,6.13-2.89-.65-12.26,3.38-3.02-6.35-9.69-1.94-11.97-8.87-9.23-8.97-5.58-3.22-7.65-2.17-1.16,2.81-9.47-2.01-8.08,1.03-1.3-2.71-8.97,1.99-14.28,1.96-7.04,6.84-3.45,2.19-14.85,4.21-4.46-.42-15.07-.66-17.16,1.36-4.91,2.69-12.42-1.04-17.11-.08-3.99-4.85-7.95-.55-17.11C324,5.66,324.27,2.35,325.04,0h-166.8c.04.34.1.71.17,1.11,5.73,6.37,2.95,5.62.66,10.25.57,7.48,3.87,15.74,4.76,16.69.58,3.34,1.23,5.14,5.49,9,4.54,1.08,1.32,7.29,4.21,13.58,2.36,4.43,5.18,12.44.36,10.82-5.89-5.46-12.03,16.93-1.18,11.1-4.03,11.66-3.6,6.15-1.79,10.58,3.88,17.75-4.36,7.32-4.16,12.71-2.93,22.53.11-4.34-5.64,10.76,11.77,2.45-5.71,9.65-4.67,11.54-3.32,2.91,2.08,10.6-1.54,15.04,1.38,5.93-2.56,15.6,1.74,16.17-.27,15.4,1.1,11.93,3.59,15.84,3.4,5.48,4.45,13.73,4,14.05.94,1.92-2.77,10.09,3.66,10.67-.27,3.13,2.91,7.23,3.19,10.38,3.33,5.39-2.04,2.96,1.14,12.02-5.17,2.66-4.41,19.8-1.39,13.36.11,7-1.52,13.44-3.11,10.31.93,4.14-3.94,8.72-7.26,9.89-6.28,2.07-3.72,5.38-3.57,9.61-2.99,5.11.91,5.05-2.96,9.82-2.7,6.49-3.42,9.88-3.11,13.35.67,3.27,3.1,4.17,3.06,13.83,7.48,6.34,5.66,3.25.33,11.98-4.79,12.87,1.12,8.39-1.87,11.88.64,7.09-5.32,3.22-.98,11.5-4.25,3.55,4.14,8.8,2.16,14.59-10.58,4.43.25,6.56,4.07,15.68-3.18,11.26-.63,15.04,4.11,13.94.93-3.17.18,7.5,4.78,13.38-3.09,11.44,1.04,1.52,5.75,13.4,2.98,5.79.27,9.78,5.47,13.51,1.68,9.25,6.15,10.63,3.95,13.71,4.38,5.29,3.49,10.81,1.18,14-10.82,11.11-1.47,17.48-1.94,16.28,2.05,4.08-.44,7.46-3.38,15.5-9.12.54-1.28,12.28-3.38,15.35.15,8.19-.51,10.41-1.22,12.84h166.73Z"/>
  <path class="cls-2" d="m448.64,499.58c-8.54.1-17.69,0-27.34,0-9.65-.18-19.8,0-30.35,0-10.55-.47-21.51,0-32.77,0-11.26.54-22.82,0-34.58,0-11.76.44-23.72,0-35.78,0-12.06-.51-24.22,0-36.39,0-12.16-.04-24.32,0-36.39,0-12.06-.06-24.02.06-35.78,0-11.76-.44-23.32.33-34.58,0-11.26-.39-22.21.25-32.77,0-10.55-.5-20.71,1.17-30.35,0-9.65-.11-18.8-.02-27.34,0-8.54.07-16.48.29-23.72,0H0v.42h500v-.42h-27.64c-7.24,0-15.18,0-23.72,0Z"/>
</svg>