<?xml version="1.0" encoding="UTF-8"?>
<svg id="Layer_1" data-name="Layer 1" xmlns="http://www.w3.org/2000/svg" viewBox="0 0 500 500">
  <defs>
    <style>
      .cls-1 {
        fill: #ee2a7b;
      }
    </style>
  </defs>
  <path class="cls-1" d="m256,11.22v82.13c-2.55-.58-5.19-.89-7.91-.89-3.4,0-6.68.47-9.79,1.36-.57.16-1.12.34-1.68.52-1.38.47-2.73,1.02-4.04,1.64-1.04.5-2.05,1.05-3.03,1.65,0,0,0,0,0,0-.49.3-.97.61-1.45.93-.24.16-.48.33-.71.49-.47.33-.92.67-1.37,1.03-1.13.88-2.2,1.83-3.21,2.84-.81.81-1.58,1.66-2.31,2.54-.36.44-.71.89-1.06,1.34-.34.46-.68.93-.99,1.41-.24.36-.47.72-.7,1.08-.23.37-.45.73-.66,1.1h0c-.14.25-.29.51-.42.76-.42.76-.81,1.53-1.16,2.32-.11.27-.23.53-.35.8-.23.53-.44,1.07-.64,1.62-.1.27-.2.55-.29.83-.14.42-.27.83-.4,1.25-.12.42-.24.85-.35,1.28-.15.57-.29,1.15-.4,1.73-.48,2.32-.73,4.72-.73,7.18s.25,4.88.73,7.2c.12.58.25,1.16.4,1.73.11.43.23.85.35,1.27.12.42.26.84.4,1.26.09.28.19.55.29.83.2.55.42,1.09.64,1.62.11.27.22.53.35.8.37.79.75,1.56,1.16,2.32.14.25.28.51.42.76h0c.43.75.89,1.48,1.37,2.19.16.24.32.47.49.71.17.24.34.47.5.7.35.45.7.9,1.06,1.34.73.89,1.5,1.73,2.31,2.54,3.84,3.84,8.54,6.81,13.81,8.59.55.19,1.11.36,1.68.52,3.11.88,6.39,1.35,9.79,1.35,2.72,0,5.37-.32,7.91-.89v82.14h67.32c2.04-25.67,23.54-45.88,49.75-45.88s47.72,20.2,49.75,45.88h67.32V11.22h-234.14Z"/>
  <path class="cls-1" d="m244.14,337c2.55-.58,5.19-.89,7.91-.89,3.4,0,6.68.47,9.79,1.36.57.16,1.12.34,1.68.52,1.38.47,2.73,1.02,4.04,1.64,1.04.5,2.05,1.05,3.03,1.65,0,0,0,0,0,0,.49.3.97.61,1.45.93.24.16.48.33.71.49.47.33.92.67,1.37,1.03,1.13.88,2.2,1.83,3.21,2.84.81.81,1.58,1.66,2.3,2.54.37.44.71.89,1.06,1.34.22.3.44.6.65.91.12.17.23.34.34.5.24.36.48.72.71,1.08.22.37.45.73.66,1.1h0c.14.25.29.51.42.76.27.5.53,1.01.79,1.53.25.52.48,1.05.71,1.59.22.53.44,1.07.64,1.62.1.27.2.55.29.83.28.83.53,1.68.75,2.53.15.57.28,1.15.4,1.73.48,2.32.73,4.72.73,7.18s-.25,4.88-.73,7.2c-.11.58-.25,1.16-.4,1.73-.22.86-.47,1.7-.75,2.53-.09.28-.19.55-.29.83-.2.55-.42,1.09-.64,1.62-.22.53-.46,1.06-.71,1.59-.25.52-.52,1.03-.79,1.53-.14.25-.28.51-.42.76h0c-.22.38-.44.74-.66,1.11-.23.37-.47.73-.71,1.08-.11.17-.22.33-.34.5-.04.07-.09.14-.14.2-.17.24-.34.47-.51.7-.34.46-.7.91-1.06,1.34-.72.89-1.49,1.73-2.3,2.54-3.84,3.84-8.54,6.81-13.81,8.59-.55.19-1.11.36-1.68.52-3.11.88-6.39,1.35-9.79,1.35-2.71,0-5.37-.32-7.91-.89v82.14H10v-233.91h67.32c2.04,25.67,23.54,45.88,49.75,45.88s47.72-20.2,49.75-45.88h67.32v82.13Z"/>
  <path class="cls-1" d="m10,245.16h82.2c-.58,2.54-.89,5.19-.89,7.9,0,3.39.47,6.67,1.36,9.78.16.56.34,1.12.52,1.68.47,1.38,1.02,2.73,1.65,4.03.5,1.04,1.05,2.05,1.65,3.03,0,0,0,0,0,0,.3.49.61.97.93,1.45.16.24.33.48.49.71.33.47.67.92,1.03,1.37.88,1.13,1.83,2.2,2.84,3.21.81.81,1.66,1.58,2.54,2.31.44.36.89.71,1.34,1.06.46.34.93.68,1.41.99.36.24.72.47,1.08.7.37.23.73.45,1.11.66h0c.25.14.5.29.76.42.76.42,1.53.81,2.32,1.16.27.11.53.23.8.35.53.23,1.07.44,1.62.64.27.1.55.2.83.29.42.14.83.27,1.25.4.42.12.85.24,1.28.35.57.15,1.15.29,1.73.4,2.32.48,4.73.73,7.18.73s4.88-.25,7.2-.73c.58-.12,1.16-.25,1.73-.4.43-.11.85-.23,1.27-.35.42-.12.84-.26,1.26-.4.28-.09.55-.19.83-.29.55-.2,1.09-.42,1.62-.64.27-.11.53-.22.8-.35.79-.37,1.56-.75,2.32-1.16.25-.14.51-.28.76-.42h0c.75-.43,1.47-.89,2.19-1.37.24-.16.47-.32.71-.49.24-.17.47-.34.7-.5.45-.35.9-.7,1.34-1.06.89-.73,1.73-1.5,2.54-2.31,3.84-3.83,6.81-8.54,8.59-13.8.19-.55.36-1.11.52-1.68.88-3.11,1.35-6.38,1.35-9.78,0-2.72-.32-5.36-.89-7.9h82.21v-67.26c-25.7-2.04-45.92-23.52-45.92-49.71s20.22-47.68,45.92-49.71V11.22H10v233.94Z"/>
  <path class="cls-1" d="m256.03,488.78v-67.26c25.7-2.04,45.92-23.52,45.92-49.71s-20.22-47.68-45.92-49.71v-67.26h82.2c-.58-2.55-.89-5.18-.89-7.9,0-3.39.47-6.67,1.36-9.78.16-.56.34-1.12.52-1.68.47-1.38,1.02-2.73,1.65-4.03.5-1.04,1.05-2.05,1.65-3.03,0,0,0,0,0,0,.3-.49.61-.97.93-1.45.16-.24.33-.48.49-.71.33-.47.67-.92,1.03-1.37.88-1.13,1.83-2.2,2.84-3.21.81-.81,1.66-1.58,2.54-2.3.44-.37.89-.71,1.34-1.06.3-.22.6-.44.91-.65.17-.12.34-.23.5-.34.36-.24.72-.48,1.08-.71.37-.22.73-.45,1.11-.66h0c.25-.14.5-.29.76-.42.5-.27,1.01-.53,1.53-.79.52-.25,1.06-.48,1.59-.71.53-.22,1.07-.44,1.62-.64.27-.1.55-.2.83-.29.83-.28,1.68-.53,2.53-.75.57-.15,1.15-.28,1.73-.4,2.32-.48,4.73-.73,7.18-.73s4.88.25,7.2.73c.58.11,1.16.25,1.73.4.86.22,1.7.47,2.53.75.28.09.55.19.83.29.55.2,1.09.42,1.62.64.53.22,1.06.46,1.59.71.52.25,1.03.51,1.53.79.25.14.51.28.76.42h0c.37.22.74.44,1.11.66.37.23.73.47,1.08.71.17.11.34.22.5.34.07.04.14.09.2.14.24.17.47.34.7.51.46.34.91.69,1.34,1.06.89.72,1.73,1.49,2.54,2.3,3.84,3.83,6.81,8.54,8.59,13.8.19.55.36,1.11.52,1.68.88,3.11,1.35,6.38,1.35,9.78,0,2.71-.32,5.36-.89,7.9h82.21v233.94h-234.11Zm0-233.94"/>
</svg>