<?xml version="1.0" encoding="UTF-8"?>
<svg id="Layer_1" data-name="Layer 1" xmlns="http://www.w3.org/2000/svg" viewBox="0 0 500 500">
  <defs>
    <style>
      .cls-1 {
        fill: #ee2a7b;
      }
    </style>
  </defs>
  <path class="cls-1" d="m175.35,487.16c2.1-3.07-5.74-14.81,3.38-15.35,2.94-8.04,5.43-11.42,3.38-15.5.47,1.2-8.88-5.17,1.94-16.28,2.31-3.19,3.2-8.71-1.18-14,2.2-3.08-2.27-4.45-3.95-13.71-5.2-3.72-2.49-7.72-5.47-13.51-4.71-11.87-8.84-1.96-5.75-13.4-4.59-5.88-3.84-16.55-4.78-13.38-4.74,1.09-7.29-2.68-4.11-13.94-3.82-9.13-14.65-11.25-4.07-15.68,1.99-5.79-6.41-11.04-2.16-14.59-4.34-8.28,1.62-4.41.98-11.5,2.99-3.5-2.92.99,1.87-11.88,5.33-8.73,7.15-5.63-.33-11.98.05-9.66-2.39-10.56-3.06-13.83-.31-3.47.41-6.86,3.11-13.35,3.87-4.77-.03-4.71,2.96-9.82-.15-4.22-2.7-7.53,3.57-9.61,3.32-1.17,8.19-5.74,7.26-9.89-.18-.35-.35-.78-.52-1.37.26.45.42.91.52,1.37,1.59,3.14,3.22-3.31,3.11-10.31-3.02,6.43-3.78-10.7,1.39-13.36-3.17-9.06,2.2-6.63-1.14-12.02-.28-3.15-3.46-7.25-3.19-10.38-6.43-.57-2.72-8.74-3.66-10.67.44-.32-.6-8.57-4-14.05-2.48-3.91-3.85-.45-3.59-15.84-4.3-.58-.35-10.25-1.74-16.17,3.62-4.45-1.78-12.13,1.54-15.04-1.05-1.89,16.44-9.08,4.67-11.54,5.76-15.1,2.72,11.77,5.64-10.76-.19-5.4,8.04,5.03,4.16-12.71-1.81-4.43-2.24,1.08,1.79-10.58-10.85,5.83-4.71-16.56,1.18-11.1,4.83,1.62,2.01-6.4-.36-10.82-2.9-6.29.33-12.51-4.21-13.58-4.26-3.85-4.9-5.66-5.49-9-.89-.95-4.19-9.21-4.76-16.69,2.29-4.62,5.07-3.87-.66-10.25-.08-.41-.13-.77-.17-1.11H0v500h174.47c.71-2.43,1.04-4.65.89-12.84Z"/>
  <path class="cls-1" d="m326.28,0c-.78,2.35-1.04,5.66.23,10.41-4.3,9.17.48,13.12.55,17.11,3.73,4.69,2.4,12.2,1.04,17.11.24,2.09,4.87,12.7.66,17.16,4.65,11.41-.23,7.82-2.19,14.85-4.7,5.31-.96,12.99-1.99,14.28,4.82-1.39-.16,6.92,2.01,8.08-5.75,2.07-5.65-1.58,3.22,7.65-4.41,2.28,5.32,8.95,1.94,11.97,6.78,9.37-3.13,5.75.65,12.26.42,2.92-1.13,10.83,1.62,11.84-2.13,15.44,11.45,3.23,4.27,12.02,2.55,5.12-1.34,13.89,5.49,11.91-2.09-12.57,1.91,8.26,4.86,11.95,1.73-2.64-7.61,16.04,2.38,12.11.07-1.35,2.1,12.97.73,15.31-1.13,5.23-2.47,8.9-.61,14.7,1.03,9.14-2.75,8.64-3.36,11.05.06,7.11-1.13,11.59-4.27,10.89-10.06.24-6.56,13.64-1.64,12.29-1.52,12.86-6.5,7.36,1.56,11.18,9.1,4.76.36,2.39,1.05,9.5,5.6-.47,2.57,8.4-2.42,10.98-5.39,4.15-3.61,14.74-5.32,11.01-1.11,1.57-4.3,6.68-4.44,10.55-2.47,2.32-1.46,6.16-.95,12.8-3.21,8.9,3.6,10.02,1.88,13.79-.51,9.19,6.74,7.9,2.35,13.85.93,10.11,2.08,8.44,2.53,13.86-6.6,5.42,5.75,4.24,2.44,13.83-1.23,2.32-2.63,7.8.22,14.41-3.61-.78-.07,15.48-2.02,14.36-1.79,3.71.21,7.17-1.12,13.91-2.56-2.75-2.39,11.48,2.92,13.07-3.17,8.29.86-1.74,4.11,4.36,2.93.91,3.65-2.3,3.84,4.21,2.16,1.07-2.5,7.83,1.62,11.06,3.37.62,2.34,14.72-.37,11.55-4.19.42,1.37,9.57-1.65,12.16-.61,1.33-5.07,2.53-3.62,9.2-1.04-2.84-4.57,10.56-4.04,10.06.17,1.74.23,3.91.38,5.34h159.18V0h-173.72Z"/>
</svg>