<?xml version="1.0" encoding="UTF-8"?>
<svg id="Layer_1" data-name="Layer 1" xmlns="http://www.w3.org/2000/svg" viewBox="0 0 500 500">
  <defs>
    <style>
      .cls-1 {
        fill: #ee2a7b;
      }
    </style>
  </defs>
  <path class="cls-1" d="m147.85,200.95l.75.94c2.97,3.71,10.17,12.58,20.33,24.25,13.55,15.56,45.93,45.2,73.8,75.59,27.86,30.38,30.12,60.77,24.85,85.96-5.27,25.2-31.63,48.91-73.04,43.72-13-1.63-22.51-7.86-29.44-15.64,4.66,35.66,23.93,54.23,23.93,54.23h-80.32c14.66-16.38,19.85-39.59,21.72-54.02-6.92,7.68-16.37,13.82-29.26,15.43-41.42,5.19-67.77-18.53-73.04-43.72-5.27-25.2-3.01-55.58,24.85-85.96,27.86-30.38,60.24-60.03,73.8-75.59,10.17-11.67,17.37-20.54,20.33-24.25l.75-.94Z"/>
  <path class="cls-1" d="m237.78,146.81c27.39-29.93,69.49-12.17,69.49-12.17-11.77-12.58-19.63-22.57-18.15-43.19-.02-.7-.05-1.4-.05-2.1,0-32.78,26.57-59.35,59.35-59.35s59.35,26.57,59.35,59.35c0,4.13-.42,8.16-1.23,12.05-1.35,14.26-8.4,22.87-18.1,33.24,0,0,42.1-17.75,69.49,12.17,27.39,29.93,13.7,65.44,5.07,77.1-8.62,11.67-21.55,31.26-52,28.99-26.94-2-30.92-6.59-49.45-21.39,2.21,40.69,26.88,68.48,26.88,68.48h-81.16c14.92-15.69,28.13-51.67,26.4-68.09-18.12,14.48-22.27,19.02-48.97,21-30.45,2.26-43.37-17.33-52-28.99-8.62-11.67-22.32-47.17,5.07-77.1Z"/>
</svg>