<?xml version="1.0" encoding="UTF-8"?>
<svg id="Layer_1" data-name="Layer 1" xmlns="http://www.w3.org/2000/svg" viewBox="0 0 500 500">
  <defs>
    <style>
      .cls-1 {
        fill: #ee2a7b;
      }
    </style>
  </defs>
  <path class="cls-1" d="m31.08,241.94l205,2.74c5.51.07,9.92,4.59,9.87,10.1l-2.07,213.56c-.05,5.48-4.5,9.89-9.98,9.9l-202.25.34c-5.52,0-10-4.45-10.02-9.97l-.69-216.65c-.02-5.59,4.55-10.11,10.13-10.03Z"/>
  <path class="cls-1" d="m31.69,21.91l177.53.3c5.37,0,9.78,4.26,9.98,9.63l7.26,196.11c.21,5.7-4.38,10.42-10.08,10.37l-184.62-1.7c-5.48-.05-9.9-4.51-9.91-9.99l-.17-194.71c0-5.53,4.48-10.02,10.02-10.01Z"/>
  <path class="cls-1" d="m260.97,244.56l207.09,2.4c5.48.06,9.88,4.52,9.88,10v211.23c0,5.54-4.5,10.02-10.03,10l-208.81-.69c-5.54-.02-10.01-4.54-9.97-10.08l1.72-212.95c.04-5.54,4.58-9.98,10.12-9.92Z"/>
  <path class="cls-1" d="m236.38,22.29l231.88-.69c5.55-.02,10.05,4.49,10.03,10.03l-.68,199c-.02,5.54-4.54,10.01-10.08,9.97l-225.05-1.73c-5.37-.04-9.75-4.32-9.92-9.69l-6.15-196.58c-.18-5.63,4.33-10.3,9.97-10.31Z"/>
</svg>