<?xml version="1.0" encoding="UTF-8"?>
<svg id="Layer_1" data-name="Layer 1" xmlns="http://www.w3.org/2000/svg" viewBox="0 0 500 500">
  <defs>
    <style>
      .cls-1 {
        fill: #ee2a7b;
      }
    </style>
  </defs>
  <path class="cls-1" d="m421.22,221.71c-42.61-46.55-108.1-18.94-108.1-18.94,18.3-19.56,30.53-35.11,28.24-67.18.04-1.09.08-2.17.08-3.27,0-50.99-41.33-92.32-92.32-92.32s-92.32,41.33-92.32,92.32c0,6.42.66,12.69,1.91,18.74,2.1,22.18,13.07,35.58,28.16,51.71,0,0-65.49-27.62-108.1,18.94-42.61,46.55-21.3,101.79-7.89,119.94,13.41,18.15,33.52,48.62,80.88,45.1,41.91-3.11,48.1-10.26,76.93-33.27-3.44,63.29-41.82,106.52-41.82,106.52h126.25c-23.21-24.41-43.75-80.38-41.07-105.93,28.19,22.53,34.65,29.58,76.18,32.67,47.36,3.52,67.47-26.95,80.88-45.1,13.41-18.15,34.72-73.38-7.89-119.94Z"/>
</svg>