<?xml version="1.0" encoding="UTF-8"?>
<svg id="Layer_1" data-name="Layer 1" xmlns="http://www.w3.org/2000/svg" viewBox="0 0 500 500">
  <defs>
    <style>
      .cls-1 {
        fill: #ee2a7b;
      }
    </style>
  </defs>
  <path class="cls-1" d="m429.88,374.89c0-31.23,14.99-31.23,14.99-62.46s-14.99-31.23-14.99-62.46,14.99-31.23,14.99-62.46-14.99-31.23-14.99-62.44c0-31.22,34.88-45.67,12.79-67.75-22.09-22.08-36.53,12.8-67.77,12.8s-31.23-14.99-62.46-14.99-31.23,14.99-62.46,14.99-31.23-14.99-62.46-14.99-31.23,14.99-62.45,14.99-45.67-34.88-67.75-12.79c-22.08,22.09,12.79,36.53,12.79,67.76,0,31.22-14.99,31.22-14.99,62.44s14.99,31.23,14.99,62.46-14.99,31.23-14.99,62.46,14.99,31.22,14.99,62.45-34.88,45.67-12.79,67.75c22.09,22.08,36.53-12.8,67.77-12.8s31.23,14.99,62.46,14.99,31.23-14.99,62.46-14.99,31.23,14.99,62.46,14.99,31.23-14.99,62.45-14.99,45.67,34.88,67.75,12.79c22.08-22.09-12.79-36.53-12.79-67.77Z"/>
</svg>