<?xml version="1.0" encoding="UTF-8"?>
<svg id="Layer_1" data-name="Layer 1" xmlns="http://www.w3.org/2000/svg" viewBox="0 0 500 500">
  <defs>
    <style>
      .cls-1 {
        fill: #ee2a7b;
      }
    </style>
  </defs>
  <path class="cls-1" d="M450.08,236.83c-28.5-8.18-55.02-20.8-78.82-37.05,5.32-28.36,15.17-56.08,29.6-82.02l.37-.68c6.49-12.03-7.16-24.88-18.82-17.72h0c-26.02,14.39-53.81,24.21-82.25,29.52-16.35-23.81-29.03-50.35-37.23-78.87h0c-3.56-13.33-22.53-13.33-26.09,0h0c-8.2,28.53-20.88,55.07-37.23,78.88-28.44-5.31-56.23-15.13-82.25-29.52h0c-10.4-10.37-27.24,2.13-20.27,15.04l1.82,3.37c14.43,25.95,24.28,53.66,29.6,82.02-23.87,16.3-50.49,28.95-79.09,37.13h0c-12.54,4.17-12.54,21.85,0,26.02h0c28.6,8.18,55.22,20.83,79.09,37.13-5.32,28.36-15.17,56.08-29.6,82.02h0c-6.83,11.93,6.49,25.22,18.45,18.41h0c26.02-14.39,53.81-24.22,82.25-29.52,16.35,23.81,29.03,50.35,37.23,78.87l.05.2c3.58,13.38,22.67,13.23,26.04-.2h0c8.19-28.52,20.88-55.07,37.23-78.87,28.44,5.31,56.23,15.13,82.25,29.52h0c10.15,6.44,18.46,1.9,18.46-10.1v-8.29c-14.43-25.95-24.28-53.67-29.6-82.03,23.87-16.3,50.49-28.95,79.09-37.13h0c13.01-3.99,12.8-22.35-.28-26.1Z"/>
</svg>