<?xml version="1.0" encoding="UTF-8"?>
<svg id="Layer_1" data-name="Layer 1" xmlns="http://www.w3.org/2000/svg" viewBox="0 0 500 500">
  <defs>
    <style>
      .cls-1 {
        fill: #ee2a7b;
      }
    </style>
  </defs>
  <path class="cls-1" d="m244.97,156.51c-.29-21.33-42.79-71.04-104.95-60.1-52.85,9.3-90.02,53.57-90.02,106.89,0,29.76,11.25,56.7,27.13,79.37,43.7,62.4,112.43,104.56,167.93,122.48.03,0,.06-.02.09-.03l-.09-248.6h-.09Z"/>
  <path class="cls-1" d="m359.98,96.41c-5.86-1.03-11.54-1.52-17.03-1.55-52.77-.27-87.67,42.35-87.92,61.66h-.09s-.09-.01-.09-.01h0s.09,248.61.09,248.61v.03c55.5-17.92,124.23-60.08,167.93-122.48,15.88-22.67,27.13-49.61,27.13-79.37,0-53.32-37.17-97.58-90.02-106.89Z"/>
</svg>