<?xml version="1.0" encoding="UTF-8"?>
<svg id="Layer_1" data-name="Layer 1" xmlns="http://www.w3.org/2000/svg" viewBox="0 0 500 500">
  <defs>
    <style>
      .cls-1 {
        fill: #ee2a7b;
      }
    </style>
  </defs>
  <path class="cls-1" d="M320.41,103.04c3.81-16.73,45.63-48.68,92.69-29.59,40,16.23,61.79,57.32,52.8,99.26-5.02,23.41-18.41,42.71-34.72,57.87-44.9,41.72-106.07,63.3-152.76,68.04-40.64-23.45-87.6-68.21-111.46-124.66-8.67-20.51-12.98-43.6-7.96-67.01,8.99-41.94,45.69-70.5,88.84-68.91,50.74,1.87,75.93,48.18,72.57,65.01h0Z"/>
  <path class="cls-1" d="M132.16,320.24c-5.25-12.16,5.17-50.65,41.61-59.47,30.97-7.5,62.31,8.62,75.82,38.87,7.54,16.88,8.27,34.88,5.41,51.58-7.86,45.96-34.4,86.49-59.92,110.08-34.59,3.26-82.49-4.04-121.96-28.87-14.34-9.02-27.25-21.58-34.79-38.47-13.5-30.24-4.58-64.34,21.68-82.4,30.89-21.23,66.59-3.35,72.15,8.68h0Z"/>
</svg>