<?xml version="1.0" encoding="UTF-8"?>
<svg id="Layer_1" data-name="Layer 1" xmlns="http://www.w3.org/2000/svg" viewBox="0 0 500 500">
  <defs>
    <style>
      .cls-1 {
        fill: #022c46;
      }

      .cls-2 {
        fill: #ee2a7b;
      }
    </style>
  </defs>
  <path class="cls-1" d="m235.98,307.87c-.46.1-.92.26-1.37.52.59-.17,1.03-.35,1.37-.52Z"/>
  <g>
    <path class="cls-2" d="m487.16,301.47c-3.07-2.1-14.81,5.74-15.35-3.38-8.04-2.94-11.42-5.43-15.5-3.38,1.2-.47-5.17,8.88-16.28-1.94-3.19-2.31-8.71-3.2-14,1.18-3.08-2.2-4.45,2.27-13.71,3.95-3.72,5.2-7.72,2.49-13.51,5.47-11.87,4.71-1.96,8.84-13.4,5.75-5.88,4.59-16.55,3.84-13.38,4.78,1.09,4.74-2.68,7.29-13.94,4.11-9.13,3.82-11.25,14.65-15.68,4.07-5.79-1.99-11.04,6.41-14.59,2.16-8.28,4.34-4.41-1.62-11.5-.98-3.5-2.99.99,2.92-11.88-1.87-8.73-5.33-5.63-7.15-11.98.33-9.66-.05-10.56,2.39-13.83,3.06-3.47.31-6.86-.41-13.35-3.11-4.77-3.87-4.71.03-9.82-2.96-4.22.15-7.53,2.7-9.61-3.57-1.17-3.32-5.74-8.19-9.89-7.26-.35.18-.78.35-1.37.52.45-.26.91-.42,1.37-.52,3.14-1.59-3.31-3.22-10.31-3.11,6.43,3.02-10.7,3.78-13.36-1.39-9.06,3.17-6.63-2.2-12.02,1.14-3.15.28-7.25,3.46-10.38,3.19-.57,6.43-8.74,2.72-10.67,3.66-.32-.44-8.57.6-14.05,4-3.91,2.48-.45,3.85-15.84,3.59-.58,4.3-10.25.35-16.17,1.74-4.45-3.62-12.13,1.78-15.04-1.54-1.89,1.05-9.08-16.44-11.54-4.67-15.1-5.76,11.77-2.72-10.76-5.64-5.4.19,5.03-8.04-12.71-4.16-4.43,1.81,1.08,2.24-10.58-1.79,5.83,10.85-16.56,4.71-11.1-1.18,1.62-4.83-6.4-2.01-10.82.36-6.29,2.9-12.51-.33-13.58,4.21-3.85,4.26-5.66,4.9-9,5.49-.95.89-9.21,4.19-16.69,4.76-4.62-2.29-3.87-5.07-10.25.66-.41.08-.77.13-1.11.17v182.66h500v-197.56c-2.43-.71-4.65-1.12-12.84-.97Z"/>
    <path class="cls-2" d="m0,173.72c2.35.78,5.66,1.04,10.41-.23,9.17,4.3,13.12-.48,17.11-.55,4.69-3.73,12.2-2.4,17.11-1.04,2.09-.24,12.7-4.87,17.16-.66,11.41-4.65,7.82.23,14.85,2.19,5.31,4.7,12.99.96,14.28,1.99-1.39-4.82,6.92.16,8.08-2.01,2.07,5.75-1.58,5.65,7.65-3.22,2.28,4.41,8.95-5.32,11.97-1.94,9.37-6.78,5.75,3.13,12.26-.65,2.92-.42,10.83,1.13,11.84-1.62,15.44,2.13,3.23-11.45,12.02-4.27,5.12-2.55,13.89,1.34,11.91-5.49-12.57,2.09,8.26-1.91,11.95-4.86-2.64-1.73,16.04,7.61,12.11-2.38-1.35-.07,12.97-2.1,15.31-.73,5.23,1.13,8.9,2.47,14.7.61,9.14-1.03,8.64,2.75,11.05,3.36,7.11-.06,11.59,1.13,10.89,4.27.24,10.06,13.64,6.56,12.29,1.64,12.86,1.52,7.36,6.5,11.18-1.56,4.76-9.1,2.39-.36,9.5-1.05-.47-5.6,8.4-2.57,10.98,2.42,4.15,5.39,14.74,3.61,11.01,5.32,1.57,1.11,6.68,4.3,10.55,4.44,2.32,2.47,6.16,1.46,12.8.95,8.9,3.21,10.02-3.6,13.79-1.88,9.19.51,7.9-6.74,13.85-2.35,10.11-.93,8.44-2.08,13.86-2.53,5.42,6.6,4.24-5.75,13.83-2.44,2.32,1.23,7.8,2.63,14.41-.22-.78,3.61,15.48.07,14.36,2.02,3.71,1.79,7.17-.21,13.91,1.12-2.75,2.56,11.48,2.39,13.07-2.92,8.29,3.17-1.74-.86,4.36-4.11.91-2.93-2.3-3.65,4.21-3.84,1.07-2.16,7.83,2.5,11.06-1.62.62-3.37,14.72-2.34,11.55.37.42,4.19,9.57-1.37,12.16,1.65,1.33.61,2.53,5.07,9.2,3.62-2.84,1.04,10.56,4.57,10.06,4.04,1.74-.17,3.31-.34,4.74-.49l.6-159.07H0v173.72Z"/>
  </g>
</svg>