<?xml version="1.0" encoding="UTF-8"?>
<svg id="Layer_1" data-name="Layer 1" xmlns="http://www.w3.org/2000/svg" viewBox="0 0 500 500">
  <defs>
    <style>
      .cls-1, .cls-2 {
        fill: #ee2a7b;
      }

      .cls-2 {
        stroke: #fff;
        stroke-miterlimit: 10;
        stroke-width: 3px;
      }
    </style>
  </defs>
  <path class="cls-1" d="M260.09,143.92c.28-21.86,43.87-72.85,107.61-61.63,54.19,9.54,92.3,54.93,92.3,109.59,0,30.52-11.53,58.13-27.81,81.38-44.81,63.98-115.28,107.21-172.19,125.58-56.9-18.37-127.38-61.6-172.19-125.58-16.28-23.25-27.81-50.87-27.81-81.38,0-54.67,38.12-100.06,92.3-109.59,63.73-11.22,107.49,39.76,107.79,61.63h0Z"/>
  <path class="cls-2" d="M140.05,291.84c.14-10.93,21.93-36.42,53.8-30.81,27.09,4.77,46.15,27.46,46.15,54.8,0,15.26-5.77,29.07-13.91,40.69-22.4,31.99-57.64,53.6-86.09,62.79-28.45-9.18-63.69-30.8-86.09-62.79-8.14-11.62-13.91-25.43-13.91-40.69,0-27.33,19.06-50.03,46.15-54.8,31.86-5.61,53.75,19.88,53.89,30.81h0Z"/>
</svg>