<?xml version="1.0" encoding="UTF-8"?>
<svg id="Layer_1" data-name="Layer 1" xmlns="http://www.w3.org/2000/svg" viewBox="0 0 500 500">
  <defs>
    <style>
      .cls-1 {
        fill: #ee2a7b;
      }
    </style>
  </defs>
  <path class="cls-1" d="m197.05,174.9c.28-.45.52-.94.67-1.5-.33.61-.54,1.09-.67,1.5Z"/>
  <g>
    <path class="cls-1" d="m107.42,497.36c1.58-.81-4.36-1.16-2.25-1.85.2-1.41-3.77-3.24-.71-4.88-6.2-.98.46-1.97.06-2.94,3.41-1.81,2.82-2.07-1.85-3.45,4.66-.8-1.03-1.71-.54-2.69-1.52-1.24,2.38-.71.8-1.47-6.73-1.68-1.59-3.23.9-4.99-1.36-1.06,1.28-1.47,1.42-2.64,6.82-1.45,3.4-2.98.79-4.45-1.78-1.48-1.21-4.32-.13-5.57-1.98-.08-1.97.15-2.31-.73-.22-.97,1.32-2.71.07-3.8-4.65-1.83-2.21-2.36-3.68-2.66-3.59-3.06-3.89-5.37-4.08-8.3-2.52-1.15.64-2.64.13-3.81-.39-1.94,1.14-3.46-1.48-5.08,4.69-1.12-3.32-2.79-3.19-3.69-1.87-.92-.66-.31-2.38-1.8-2.08-2.24-.9-4.9,1.66-7.2,1.69-1.01-.65-2.04-.03-3.05,4.03-3.24,1.55-4.91,3.82-7.34-.71-2.06,6.36-4.18,6.39-6.26,3.9-1.91,4.46-4.84,4.45-7.38-1.39-1.48-.63-3.09-.05-4.58-2-2.73,1.34-5.47.02-8.2,4.48-2.55-3.07-4.55-.27-7.12,1.59-1.05.83-2.23,1.94-3.32,2.78-.72-2.45-1.8-1.32-2.28-1.46-.72-2.32-1.22-1.52-1.85,1.64-.87-.02-1.05-1.35-2.11.16-1.36,2.95-2.08-1.37-3.6,4.78-1.03,1.28-2.07.02-3.1,1.76-1.24.33-3.7.08-4.82-.34-.76-1.97-.97-1.71-1.75,2.84-.6-3.51-1.84.23-2.46,1.02-4.06,2.38-8.51,1.23-12.67-.92-2.06-2.2-3.86-.61-6.05-1.15-2.39,10.28-3.64,3.13-5.86-1.67-2.09,1.29-4.11,4.12-6.17,1.38-2.06,5.9-4.16,3.54-6.42-.63-3.93-2.53-6.7-.98-10.3-3.73-.53-4.45-1.97-1.87-2.65-4.62-1.86,1.15-2.54,3.13-3.78,1.69-1.89.91-5.57.48-7.81,3.93-2.04,1.48-4.09,0-6.13-1.21-2.57-3.21-5.15,0-7.72-2.23-2.24,1.98-4.2-.79-6.34,3.53-2.42,2.5-5.14.07-7.49,3.41-1.71,3.25-1.43-2.57-2.4-6.43-1.87.68-5.39-1.23-7.57,1.41-2.44-1-4.89-5.5-6.58-2.67-2.31-2.42-5.59-1.49-8.72-4.74-2.27-2.5-2.09-2.47-3.55-2.75-1.12-.26-2.82-2.79-4.3-.24-.71-1.34-1.39-.49-2.04,2.23-.39-.57-.86-1.05-1.4-.48-2.14.52-5.82-.13-8.05,1.67-2.62-1.2-5.26-.13-7.9-1.99-2.64-1.46-5.27.06-7.89-1.31-3.01,1.9-5.4,3.16-8.3,3.56-1.25,1.92-2.56.5-3.79-2.5-1.01-3.77-1.31,1.85-2.44.62-1.47-.68-2.5.82-4.13,2.51-1.73,3.41-4.17,2.84-6.16-3.4-1.33-.05-4.97,2.1-6.51-.38-1.5,1.13-3.28,2.51-4.76-.72-1.33.08-2.92.12-4.3.72-2.26-1.8-4.25.76-6.5.5-2.31-2.01-5,.3-7.23,1.54-3.61,6.67-6.98,1.17-10.62.95-1.87-2.06-3.52-2.23-5.49-1.7-1.99-2.92-2.15-3.16-3.43-.54-1.06-1-2.1-2.29-3.53-.2-2.23-1.13-4.63-.64-6.89-.2-1.79,3.12-2.69-1.01-4.27-1.42-2.47-.69-4.4-1.33-7.01-.09-1.66-2.48-2.69-1.62-4.12-1.1-.94.06.03-.73-1.56-3.63-1.06-.09-2.09-.42-3.16,1.2-1.12-3.42-1.88-1.53-2.74-2.02-.2-2.75-.27-1.01-.49-1.46-.53,1.95-2.45-.13-3.12-.22-1.52-.13-3.07-.05-4.58-2.89-2.57-1.05-4.82-.7-7.45-.36-3.13,1.05-6.26,0-9.39-.88-2.15-.87-4.3-.02-6.44.96-1.82-3.75-2.12,1.42-3.73.64-2.35,1.63-5.81.13-8.17-1.2-1.41-.87-2.82,0-4.23,1.23-2.93,5.31-4.28,4.64-6.54,7.15-2.86,1.16-6.88,1.51-10.35-3.02-1.63-.55-4.25.12-5.76,3.4-.97,3.36-2.43,3.1-3.13-1.23-1.61,2.22-1.98,2.94-4.55-1.29-2.28,1.07-4.58-.01-6.86.86-3.84.3-7.68,0-11.52-.61-.98-.73-1.97.04-2.95.07-.04.12-.09.17-.14H0s0,500,0,500h107.66c-.02-.08-.05-.17-.11-.25.07-.67-1.74-1.74-.13-2.39Z"/>
    <path class="cls-1" d="m300.72,497.76c-.76-.58-2.73-.46-1.91-1.12,1.19-.76,1.69-2.71-.76-3.67,3.68-1.27-5.18-2.09-1.22-3.43-2.39-3.59-1.13-6.91-4.41-10.26.15-3.35-1.85-6.72-1.71-10.39-1.88-2.43,1.87-4.78,1.98-7.27-.53-1.5-1.25-3.06-.08-4.54,2.4-2.47.2-3.9,3.34-6.12-.28-1.73-3.47-3.64,1.78-5.2,2.32-2,4.25-2.94,6.2-4.97,2.2-1.44-.68-2.65.84-4.09.74-2.19,2.64-3.25,4.92-5.61,3.73-1.78-1.15-3.85.11-5.68-.86-1.03,1.44-2.04.14-3.06.35-.81-1.31-1.58,1.42-2.39,1.03-2.43.77-5.56.15-8.07.62-4,.81-8.06.02-12.06.26-2.41-2.92-5.18-3.02-7.3-.2-1.28-4.75-1.76-2.57-3.17.53-3.66-.77-8.74.43-12.4,2.19-2.58.2-4.81.88-7.49.43-1.77-2.66-2.93.8-4.35,1.08-1.21,6.99-2.1,3.74-3.46,8.94-2.51.69-5.69-.27-8.36,2.22-2.49-.75-4.98,0-7.47,3.96-1.41.05-3.29-.36-4.56-1.82-.67,1.25-1.06-1.84-1.86-8.11-.88,2.02-1.67-.38-2.58-1.71-.85-.17-1.67.09-2.5,2.53-3.72-2.12-7.3.8-11.05-3.86-3.34-.07-6.68-.02-10.01-4.99-.93,4.04-3.16.07-4.09,4.81-1.14-.57-.59-1.59-1.48-2.67-.88.27-.34-1.06-1.91-2.36-.47-4.6-.95.08-1.43-.79-2.07.64-4.5-1.25-6.87-2.26-2.37-2.75-4.68-3.32-6.5-.82-.96-.12-1.13-2.21-2.26-1.63-1.03,1.63-3.29-.14-4.2-6.19-1.78.49-3.97-.17-5.7.17-1.99.48-3.32.38-5.37,1.92-2.54,2.22-4.99,1.37-7.75.75-1.59-1.06-3.11-1.77-4.79,3.3-1.73,3.23-3.49-1.46-5.24,1.32-2.15-.28-4.38-.04-6.54-1.35-1.85-2.18-4.78.15-6.49,5.31-.52.53-.9,1.42-1.38-1.1-.7.05-1.48.54-2.22,2.64-1.17,4.38-2.53,2.32-3.63-.06-.82.92-1.19,1.78-1.94-.22-1.03.62-1.79,2.11-2.89,2.31-.52,5.71-1,1.59-1.49,2.25-1.3-.11-2.94.35-4.32.73-2.04-2.55-3.89.67-5.9,1.59-2.55,1.14-5.24.55-7.93.42-2.7.86-5.4-.36-7.99,1.94-2.56-1.03-5.12,0-7.68,3.68-2.56-.28-5.12,0-7.68-2.99-1.59.38-3.21.05-4.8-5.94-2.36-1.35-3.28-2.6-5.21,1.75-.9-5.83-2.79-3.1-3.45-2.05-.55-.48-.4-3.41-.98-4.71-.43-1.14-.97-2.04-1.32-5.4-.28-.57-.3-2.63-.71-1.45-.95,4.5-2.27-1.82-3.6,2.98-1.79,1.38-3.19-1.63-5.15-2.98-1.08-1.55-2.2.1-3.28.69-2.35-2.53-4.53-3.96-6.79-4.03-1.52-2.56-1.29-1.9-2.36-2.04-.55-3.03-1.68-.38-2.31.74-3.81-1.89-7.2-4.07-10.79-2.21-1.32-.56-2.5-.66-3.84,4.42-.51,2.24-1.89.72-2.34.34-1.33.91-2,3.58-3.29,7.35-3.36,2.37-7.29,9.27-9.64,1.08-1.14,7.26-2.28,5.94-3.64,4.96-1.69,7.85-4.11,2.49-6.19,5.01-2.09-2.31-3.88,2.49-5.95-2.45-1.91,3.03-4.03,1.04-6,1.04-2.47-.94-3.81,1.84-5.9,5.16-3.01,4.16-6.27,4.15-9.95,2.6-3.37-.91-5.53-3.01-8.39-3.02-1.3-2.22-2.46-3.23-3.66-1.53-2.82.69-6.42-3.29-9.74,3.02-3.19,2.62-6.08-.78-9.26-1.75-2.27-3.22-4.55-.08-6.83,2.03-4.18,2.72-7.72,3.31-11.77-1.42-1.65-1.89-4.17.07-5.85-2.33-2.63-4.85-3.87-5.71-6.18-5.25-3.31-1.89-7-2.22-10.73-.47-2.58.07-5.17.32-7.68h-93.76c.13,1.73,1.31,3.47.48,5.2-4.94,2.44-1.51,4.89,0,7.33-4.82,2.44-8.02,4.89,0,7.33,1.49,2.39,3.17,5.19-.15,7.5-4.59,1.77,5.01,2.66-1.58,4.54-.59,1.85.39,3.71.02,5.56,1.17,3.03-.24,6.05,0,9.08-.44,1.54-.44,3.16.19,4.68-.79,2,3.62,2.9-.34,4.77.62,1.54-1.56,2.56-2.5,4.45,2.62,1.4,2.56,2.54.89,3.91-.62,2.18-.42,4.23,1.71,6.43-2.32,1.63,6.23,2.42,2.89,3.63-1,.31-.64.77,1.48,1.37-2.21.16-2.64.32-.18.48.49,1.02,2.38,2,2.51,3.06,1.96,2.19,2.31,4.62,2.06,7.1-.08,2.47-3.69,4.98-.12,7.32-.86,1.54,2.45,4.78.1,6.14-.53.83-.65,1.06,2.5,2.01.23.43-2.44,1.74-.06,2.16-1.84,2.31,6.01,4.61.63,6.84.86,2.98,9.13,5.59,4.61,8.82,2.05,2.66,2.62,5.54-.1,8.21.8,1.82.78,3.65-.02,5.47-4.31,1.26-2.86,2.5.17,3.74,3.07.47,3.82.43,1.81.9-.42,1.16,1.15,3.27-.41,4.67-.86,3.87-2.42,7.36-4.14,11.23-.59,2.64-.04,4.68-1.08,7.24-.01,2-.14,4.27-.98,6.55,1.06,2.29-4.51,4.59.34,6.66-2.63,2.08,4.12,3.93.89,6.08.15,2.13-1.9,4-.83,6.05-2.4,1.51-5.49,2.96-2.26,4.46-1.63,1.68,2.68,2.28.56,3.92-.65.8,3.43,1.72-.05,2.53,1.07,1.96,1.92,3.73-.9,5.66-.82.9-.64,1.89.06,2.79,1.94,1.92-1.64,1.39-.87,2.64-3.38,3.62.07,5.37,1.61,8.89.02,3.48-.07,7.65.1,11.19-.25,1.24-1.3,2.72-.15,3.92-.05.76-3.14,1.72-1.75,2.47-2.89,1.97-2.43,3.22-2.38,5.4.18,1.38,1.29,2.6-.5,3.87-1.25.97-3.02,1.4-1.27,2.51-1.2,1.75-1.33,3.67.06,5.45,1.22,1.55-.11,3.28.06,4.8,2.72,2.05-1.6,3.16-2.65,5.38-.44.92-1.57,2.11-.07,3.02-1.6,1.7,1.64,2.6,1.89,4.5.38,2.14-.4,3.91,1.1,5.67.89.93-.89,1.5,3.22,2.78,1.7.65,0,1.98-.13,2.6,4.49,3.36.37,6.8,1.02,10.09,3.06-.06,3.72-.02,1.4.13.81,2.56-2.74,5.21.15,7.79,1.32.83,1.42,2.04-.09,2.82.25,1.17,3.79,2.19,2.04,3.33,3.25,1.11.89,1.59,1.97,2.53,1.38,3.67-1.23,7.2-2.27,10.72-1.96,1.72,3,3.13-.79,4.84-2.69,1.26-2.48,2.25-2.64,3.52,2.16,1.57,1.23,3.28-.37,4.77.26,1.81-.29,3.45-4.68,5.33-1.86,3.46-3.5,7.86-5.5,11.68-2.27,2.51-4.83,4.97-3.18,7.6.49,1.28,5.71,2.73,1.98,3.89.88,2.1,2.08,3.03,3.26,5.45-.33,1.42-.84,2.78,1.65,4.21,2.72,3.49.23,7.18.92,10.75-2.45,2.76-2.66,6.96.4,9.39.04,3.18,5.48,5.6,6.51,9.25-.6,1.85.04,3.96-.09,5.76,4.4,1.35,3.09,2.5.91,3.97-.59,3.3,2.01,6.6-.02,9.9.48.32-1.41,2.03-.09,2.36,2.91.61.56.73,1.65,1.35.32,1.65.79,4.53.34,6.45.18,4.05,3.56,8.26,4.27,12.23-2.05,2.14,2.44,3.46,1.53,5.72-1.01,3.12-.49,5.81-1.57,8.85-3.22,2.57-2.87,4.84.52,7.32-.69,2.07,1.96,4.33,0,6.41.3,2.06-1.45,4.26-.87,6.32,1.64,1.1.37,2.37-.75,3.51.97,1.55.8,2.15,2.76,3.57-1.15,1.24-3.31,4.01-.04,5.31,2.45,2.14-2.45,4.04-1.83,6.26-2.83,2.26,1.52,2.81,3.57,4.41,1.08.36,1.89.78,2.48,1.24h79.46c-.58-.8-1.99-1.56-4.6-2.24Z"/>
    <path class="cls-1" d="m411.8,6.56c-1.13.96,1.57,1.09-3.71,1.86-2.86,1.55-2.53,2.97-2.19,5.19-4.87.98-1.46,1.96.36,2.95,1.86.78-5.03,1.47,1.3,2.07.51,2.64.66,6.09.14,8.82,1.61,1.96-1.18,4.1.06,6.04,1.13,1.23-3.98,2.22-1.59,3.42,1.76.1,1.74,2.62,2.49,5.44-3.23,2.81.25,5.91-.14,7.19-2.46,4.15-.65,7.36-6.19,10.61-.52,2.1-6.13,3.82-2.57,6.35-.95,2.07-.45,3.99.79,6.09,3.23,2.36,2.02,5.37,2.17,7.65.01,1.61-1.55,3.16,1.8,4.83,2.54,3.36-.1,7.31.83,10.79-.07,2.74.41,5.28-1.66,7.99,3.24,2.26-2.86,4.63-.11,6.98,2.48,2.35,2.11,4.68,1.16,6.87.95,4.08.98,7.97,1.42,12.21-2.96,3.77-6.4,5.88-6.45,9.5-.57,2.45-.24,5.43.06,7.9-1.98,1.42,1.86,2.43.57,3.72,3.8,2.12,2.37,4.42,2.24,6.61,1.7,1.89,2.35,3.81.32,5.75-2.11,2.95,4.45,5.38,2.47,8.27-.88,1.55-1.45,3.56.08,5.07,4.11,1.32,2.38,3.17,2.68,4.3,2.44.85-.87,1.33,2.63,2.08,2.34.24-1.02.87.29,1.07,3.62,2.59,2.53,5.38,2.19,8.26,3.38,3.69,4.21,8.51-.97,11.82,3,3.04-8.61,5.82-6.19,9.39-5.29,3.27.54,6.91.04,10.2-.16,2.35.73,4.78-.2,7.2.83,2.42-1.24,4.82.78,7.12,3.49,2.23-.14,4.26,2.55,6.32,1.05,2.06,3.96,4.17,1.68,6.55.57,1.98,1.76,3.97-.06,5.95.56,1.63,1.1,3.82.74,5.29,1.85,1.19,4.8,1.82,3.13,3.11.08,1.79-.4,3.56,1.71,5.61-3.31,1.49-1.4,3.09.03,4.56-3.07.72,1.33,1.3.77,2.05,2.21,1.71,3.14,3.68-.03,5.43-.94,4-4.39,7.58-1.59,11.45,2.46,2.38,3.15,4.44-1.58,6.89-1.33,4.03,2.6,8.08-.02,12.11-1.84,2.56-.39,4.92,2.2,7.45-1.49,1.06,1.96,1.75,1.13,2.64,2.07.78.63,1.05,2.15,2.07.23,2.14-1.07,5.27.07,7.5,3.41.95.39,1.89,0,2.84,1.63,1.23-2.62,2.46,0,3.69-1.4,1.26-3.13,2.61.08,3.86-.72,2.03-3.36,3.76-3,5.68-1.69,2.42-2.55,5.9-3.39,7.96,1.11.91,1.7,1.27-2.42,2.32,6.8,1.81-1.6,3.55-.78,5.58.02,2.35,2.23,4.7,0,7.05-1.06,3.95,1.23,7.94,2.38,11.38.7.94.53,1.44,2.42,2.57,1.41,1.15-2.57,2.56.71,3.82,1.85,1.32-.39,2.52,1.47,3.9-1.73,2.08,2.06,3.57,1.9,5.36,1.71,2.25,8,5.01,2.85,7.53-.51,2.37-2.27,4.74.75,7.12,2.5,2.37-.06,4.75.59,7.12,3.37,2.39,1.65,4.79.44,7.2,2.95,2.41,2.49,4.82-.04,7.23-1.3,3.06-1.77,6.23-.03,9.28-1.23,1.09-1.29,1.89,1.11,3-1.55,1.91,3.98,3.44,3.4,5.32,7.02.95.52,1.52.32,2.37.71,1.73.67,3.24,3.16,4.86,1.07,1.96,1.63,4.08,2.28,6.25,3.24,2.17-9.85,4.4-.13,6.55-1.48,2.09-1.3,4.1-1.62,6.14.91,1.68,3.73,3.27-1.29,4.81-.5,2.59-1.9,4.53-2.47,7.49,3.53,2.76-1.97,5.52.01,8.27.19.1.36.2.5.31h70.8c0-3.24,0-6.92,0-11.02,0-5.73,0-12.26,0-19.5.29-7.24.07-15.18,0-23.72-.02-8.54-.11-17.69,0-27.34,1.17-9.65-.5-19.8,0-30.35.25-10.55-.39-21.51,0-32.77.33-11.26-.44-22.82,0-34.58.06-11.76-.06-23.72,0-35.78,0-12.06-.04-24.22,0-36.39,0-12.16-.51-24.32,0-36.39,0-12.06.44-24.02,0-35.78,0-11.76.54-23.32,0-34.58,0-11.26-.47-22.21,0-32.77,0-10.55-.18-20.71,0-30.35,0-9.65.1-18.8,0-27.34,0-8.54,0-16.48,0-23.72V0s-82.86,0-82.86,0c-.21,1.12-.63,2.18-1.12,2.98-2.18,1.1-7.16,2.48-3.8,3.58Z"/>
  </g>
</svg>