<?xml version="1.0" encoding="UTF-8"?>
<svg id="Layer_1" data-name="Layer 1" xmlns="http://www.w3.org/2000/svg" viewBox="0 0 500 500">
  <defs>
    <style>
      .cls-1 {
        fill: #ee2a7b;
      }
    </style>
  </defs>
  <path class="cls-1" d="m450,146.22c0-8.64-53.98-8.64-53.98-17.28s53.98-8.66,53.98-17.3c0-5.26-19.99-7.32-35.64-10.06-1.75-.31-2.56-2.33-1.5-3.76,3.88-5.23,8.37-13.01,12.71-20.35,1.15-1.94-1.04-4.13-2.99-2.98-7.34,4.34-15.11,8.84-20.34,12.73-1.43,1.06-3.45.26-3.76-1.49-2.76-15.65-4.83-35.63-10.1-35.63-8.64,0-8.64,53.95-17.3,53.95s-8.64-53.95-17.3-53.95-8.64,53.95-17.3,53.95-8.64-53.95-17.3-53.95-8.64,53.95-17.3,53.95-8.64-53.95-17.28-53.95-8.66,53.95-17.3,53.95-8.66-53.95-17.3-53.95-8.66,53.95-17.3,53.95-8.64-53.95-17.3-53.95-8.64,53.95-17.3,53.95-8.64-53.95-17.3-53.95-8.64,53.95-17.28,53.95-8.66-53.95-17.3-53.95v-.09c-8.64,0-8.64,53.97-17.28,53.97s-8.66-53.97-17.3-53.97c-5.26,0-7.32,19.99-10.07,35.63-.31,1.75-2.33,2.56-3.76,1.5-5.23-3.88-13.02-8.37-20.35-12.7-1.94-1.15-4.14,1.04-2.98,2.99,4.34,7.33,8.84,15.11,12.73,20.34,1.06,1.42.26,3.45-1.49,3.76-15.65,2.76-35.64,4.83-35.64,10.1,0,8.64,53.96,8.64,53.96,17.3s-53.96,8.64-53.96,17.3,53.96,8.64,53.96,17.3-53.96,8.64-53.96,17.3,53.96,8.64,53.96,17.3-53.96,8.64-53.96,17.28,53.96,8.66,53.96,17.3-53.96,8.66-53.96,17.3,53.96,8.66,53.96,17.3-53.96,8.64-53.96,17.3,53.96,8.64,53.96,17.3-53.96,8.64-53.96,17.3,53.96,8.64,53.96,17.28-53.96,8.66-53.96,17.3,53.98,8.64,53.98,17.28-53.98,8.66-53.98,17.3c0,5.26,19.99,7.32,35.64,10.06,1.75.31,2.56,2.33,1.5,3.76-3.88,5.23-8.37,13.01-12.71,20.35-1.15,1.94,1.04,4.13,2.99,2.98,7.33-4.34,15.11-8.84,20.34-12.73,1.43-1.06,3.45-.26,3.76,1.49,2.76,15.65,4.83,35.63,10.1,35.63,8.64,0,8.64-53.95,17.3-53.95s8.64,53.95,17.3,53.95,8.64-53.95,17.3-53.95,8.64,53.95,17.3,53.95,8.64-53.95,17.3-53.95,8.64,53.95,17.28,53.95,8.66-53.95,17.3-53.95,8.66,53.95,17.3,53.95,8.66-53.95,17.3-53.95,8.64,53.95,17.3,53.95,8.64-53.95,17.3-53.95,8.64,53.95,17.3,53.95,8.64-53.95,17.28-53.95,8.66,53.95,17.3,53.95v.09c8.64,0,8.64-53.97,17.28-53.97s8.66,53.97,17.3,53.97c5.26,0,7.32-19.99,10.07-35.63.31-1.75,2.33-2.56,3.76-1.5,5.23,3.88,13.02,8.37,20.35,12.7,1.95,1.15,4.13-1.04,2.98-2.99-4.34-7.33-8.84-15.11-12.73-20.34-1.06-1.42-.26-3.45,1.49-3.76,15.65-2.76,35.64-4.83,35.64-10.1,0-8.64-53.96-8.64-53.96-17.3s53.96-8.64,53.96-17.3-53.96-8.64-53.96-17.3,53.96-8.64,53.96-17.3-53.96-8.64-53.96-17.3,53.96-8.64,53.96-17.28-53.96-8.66-53.96-17.3,53.96-8.66,53.96-17.3-53.96-8.66-53.96-17.3,53.96-8.64,53.96-17.3-53.96-8.64-53.96-17.3,53.96-8.64,53.96-17.3-53.96-8.64-53.96-17.28,53.96-8.66,53.96-17.3Z"/>
</svg>