<?xml version="1.0" encoding="UTF-8"?>
<svg id="Layer_1" data-name="Layer 1" xmlns="http://www.w3.org/2000/svg" viewBox="0 0 500 500">
  <defs>
    <style>
      .cls-1 {
        fill: #ee2a7b;
      }
    </style>
  </defs>
  <path class="cls-1" d="m208.99,174.89l-185.52,5.26c-5.63.16-10.28-4.36-10.28-9.98l-.17-147.4c0-5.54,4.49-10.03,10.03-10.01l182.38.51c5.42.02,9.84,4.35,9.97,9.77l3.31,141.63c.13,5.5-4.21,10.07-9.71,10.23Z"/>
  <path class="cls-1" d="m265.83,338.63l-242.93-2.61c-5.48-.06-9.89-4.52-9.89-10v-126.24c0-5.42,4.32-9.86,9.75-10l239.99-6.09c5.53-.14,10.13,4.24,10.25,9.78l2.94,134.93c.12,5.65-4.45,10.28-10.1,10.22Z"/>
  <path class="cls-1" d="m477.01,341.08l-180.78-1.95c-5.39-.06-9.76-4.38-9.89-9.76l-3.21-136.11c-.13-5.49,4.19-10.05,9.67-10.23l183.17-6.02c5.63-.18,10.3,4.31,10.33,9.94l.82,144.08c.03,5.59-4.52,10.12-10.11,10.06Z"/>
  <path class="cls-1" d="m348.56,171.14l-109.11,2.74c-5.53.14-10.12-4.23-10.25-9.76l-3.33-140.96c-.13-5.62,4.39-10.24,10.01-10.24l108.25.12c5.4,0,9.82,4.3,9.98,9.7l4.2,138.1c.17,5.54-4.2,10.16-9.74,10.3Z"/>
  <path class="cls-1" d="m477.08,166.83l-97.72,2.78c-5.53.16-10.14-4.21-10.28-9.74l-3.52-136.69c-.15-5.63,4.38-10.26,10.01-10.26l101.18.12c5.52,0,9.99,4.48,9.99,10l.06,133.8c0,5.41-4.3,9.85-9.72,10Z"/>
  <path class="cls-1" d="m165.91,486.7H23.18c-5.52,0-9.99-4.47-10-9.99l-.16-120.33c0-5.56,4.53-10.06,10.09-10.01l126.92,1.15c4.98.04,9.16,3.74,9.82,8.67l15.97,119.18c.8,6-3.86,11.33-9.91,11.33Z"/>
  <path class="cls-1" d="m311.83,486.7h-115.55c-5.02,0-9.26-3.72-9.91-8.7l-15.61-118.77c-.79-6.04,3.95-11.38,10.04-11.3l139.37,1.79c5.75.07,10.25,4.97,9.85,10.7l-8.21,116.98c-.37,5.24-4.72,9.3-9.98,9.3Z"/>
  <path class="cls-1" d="m477.01,486.71l-135.32.16c-5.81,0-10.4-4.92-9.99-10.71l8.35-116.55c.38-5.27,4.79-9.34,10.08-9.29l127.13,1.31c5.49.06,9.9,4.53,9.9,10.01l-.16,115.08c0,5.51-4.48,9.98-9.99,9.99Z"/>
</svg>