<?xml version="1.0" encoding="UTF-8"?>
<svg id="Layer_1" data-name="Layer 1" xmlns="http://www.w3.org/2000/svg" viewBox="0 0 500 500">
  <defs>
    <style>
      .cls-1 {
        fill: #ee2a7b;
      }
    </style>
  </defs>
  <path class="cls-1" d="m0,339.63c1.43-.15,3.6-.26,5.34-.43-.42-.45,8.82,1.94,10.26,3.34.37.36.9.49,1.41.44,5.26-.46,6.37,3.31,7.58,3.87,2.59,3.02,11.74-2.54,12.16,1.65-3.07,2.63,10.17,3.68,11.47.64.07-.17.14-.35.27-.49,3.3-3.73,9.82.72,10.88-1.4,5.6-.17,4.01-.72,4.03-2.74,0-.6.34-1.16.84-1.49,4.3-2.93-2.98-6.21,2.16-4.3.79.29,1.66.02,2.19-.64,2.77-3.53,11.9-3.98,12.72-2.52.3.54.74,1.02,1.35,1.1,5.68.74,8.87-.8,12.27.85-1,1.74,11.88-.91,14.07,1.09.49.45,1.21.54,1.83.33,5.91-2.03,10.73-.75,12.87.38,9.21,3.19,8.48-8.09,13.22-3.13.41.43,1.02.66,1.61.59,4.14-.49,3.47-1.52,12.15-2.37.42-.04.86.06,1.22.3,5.3,3.56,4.44-3.04,13-2.73.22,0,.43.07.64.14,3.47,1.21,4.79-4.94,13.11-2.14.25.08.52.12.77.1,6.03-.49,9.69-1.34,12,.6.27.23.59.38.95.42,2.66.28,5.76,1.81,7.9,3.06.69.41,1.44,1.09,1.32,1.88s8.22.14,11.79,4.78c2.34,4.53,9.85,7.44,10.88,3.77.26-.93,1.28-1.46,2.23-1.25,4.53,1,3.17,6.89,7.38-1.15,3.6-7.61-1.1-3.59,9.19-1.84.91.15,1.73-.42,2.04-1.29,1.41-3.96,12.02-5.73,12.23,3.21-.69,3.1,3.65,4.3,10.58,4.28.2,0,.42.02.61.09,2.08.82,2.01,4.2,10.58,3.28.12-.01.24-.04.36-.08,5.7-1.78,9.35-.45,14.53.67,2.34,1.38,16.66-.66,15.31-.73-3.92-9.99,14.76-.65,12.11-2.38,3.35-2.68,20.94-6.24,14.55-5.27-2.34.35-3.13-3.13-.83-3.7s6.21.04,9.23-.98c.6-.21,1.27-.08,1.77.31,6.93,5.41-3.2-6.4,10.1-5.08.55.05,1.09-.14,1.49-.51,1.87-1.76,8.16-.7,11.03-.94.25-.02.49-.11.71-.23,5.81-3.11,2.97,5.47,10.88.26.53-.35,1.21-.42,1.79-.16,2.87,1.25,7.75-4.78,10.31-3.48.72.37,1.59.33,2.16-.24l7.68-2.57c2.19-.07,6.2,1.69,6.86.05.28-.7.84-1.27,1.59-1.35,2.79-.32,8.22-1.76,12.34,1.61.19.16.42.28.65.35,6.35,1.96,3.48,6.37,13.5,2.48.58-.23,1.23-.13,1.75.21,4.49,2.92,13.18-.52,15.91-1.17.3-.07.6-.06.9.02,4.76,1.27,11.68,2.4,16.25-.83.29-.21.63-.32.98-.37,3.73-.44,7.63-4.43,15.96-.79.39.17.83.21,1.25.11,3.15-.77,5.63-.85,7.61-.57,1.14.16,2.15-.73,2.15-1.88v-164.42c-.18.02-.38.05-.58.08-.35.05-.68.22-.95.46-5.7,5.04-5.35,2.74-9.33.56-.32-.18-.7-.25-1.07-.21-6.83.64-14.13,3.43-15.85,4.51-.22.14-.46.24-.71.28-2.99.55-4.78,1.29-8.27,5.08-.2.21-.33.49-.43.76-1.37,3.91-7.38.99-13.46,3.79-4.43,2.36-12.44,5.18-10.82.36,4.84-5.22-12.19-10.64-12.08-4.25.02,1.33-1.32,2.27-2.57,1.79-6.8-2.58-3.26-2.12-6.85-.59-.12.05-.25.09-.37.12-17.34,3.75-7.31-4.27-12.39-4.21-.08,0-.17,0-.25-.01-21.13-2.75,1.74-.18-8.59-4.79-.99-.44-2.2.01-2.57,1.04-2.82,7.78-9.25-7.52-11.02-6.54-2.78-3.18-9.93,1.63-14.44-1.12-.41-.25-.89-.35-1.36-.28-5.43.84-13.31-1.95-15.08.67-.37.55-.97.91-1.64.9-13.9-.17-10.75,1.19-14.54,3.61-5.48,3.4-13.73,4.45-14.05,4-1.79.87-8.98-2.27-10.44,2.45-.21.67-.79,1.16-1.48,1.27-2.79.43-6.07,2.68-8.75,3.09-.25.04-.49.12-.71.25-4.71,2.76-3.02-1.68-10.42.52-.67.2-1.41.05-1.88-.45-3.26-3.42-13.66-3.5-14.15-1.88-.27.88-1.3,1.32-2.22,1.26-3.95-.28-7.11-1.08-7.45-2-.2-.54-.74-.89-1.31-1-3.48-.66-6.82-4.51-7.8-7.28-1.98-5.99-5.08-3.93-9.04-3.61-.37.03-.74-.07-1.06-.24-4.54-2.42-4.71.95-9.11-2.52-.14-.11-.3-.21-.46-.27-6.23-2.58-9.57-3.29-12.94-3.02-.11,0-.22.02-.32.05-3.04.69-4.11,2.92-12.79,3.02-.56,0-1.09.25-1.45.68-5.55,6.65-2.99,4.85-11.23-.24-.11-.07-.24-.13-.37-.18-11.87-4.38-8.68.51-11.14-1.35-.34-.26-.76-.42-1.19-.41-5.89.22-3.15-4.69-9.72-1.59-.59.28-1.31.28-1.85-.11-3.29-2.37-7.83,3.79-12.83,3.08-.62-.09-1.16-.52-1.42-1.09-4.09-8.92-6.34.7-14.69,4.63-.4.19-.87.21-1.3.1-10.74-2.89-14.34-.35-13.27,4.3,3.04.9-6.66.24-12.65,4.25-.47.32-1.05.44-1.6.3-10.06-2.64-.97,1.4-12.53,5.98-5.58,2.87-9.49.46-13.11,4.95-.29.36-.71.58-1.16.68-7.79,1.62-9.64,5.2-12.16,4.24-.55-.21-1.18-.11-1.66.24-4.95,3.56-9.98,2.71-13,.59-.08-.06-.16-.13-.24-.2-9.31-8.98-15.26-3.78-16.18-2.22-.23.39-.61.68-1.05.82-3.46,1.11-6.75-.91-13.35-3.41-.63-.24-1.08-.8-1.21-1.47-1.34-7.17-11.58-.75-14.91-2.15-.21-.09-.44-.17-.68-.16C4.58,174.25,2.4,173.6,0,172.9v166.73Z"/>
  <path class="cls-1" d="m250.26,250.69c-.1-.46-.26-.92-.52-1.37.17.59.35,1.03.52,1.37Z"/>
</svg>