<?xml version="1.0" encoding="UTF-8"?>
<svg id="Layer_1" data-name="Layer 1" xmlns="http://www.w3.org/2000/svg" viewBox="0 0 500 500">
  <defs>
    <style>
      .cls-1 {
        fill: #ee2a7b;
      }
    </style>
  </defs>
  <path class="cls-1" d="m424.11,261.39c12.99-1.98,25.89-4.79,25.89-11.39,0-6.61-12.9-9.43-25.89-11.41-7.65-1.22-15.2-2.16-20.27-3.69-.33-3.42-.79-6.8-1.34-10.15.69-.43,1.41-.85,2.22-1.29,4.43-2.38,10.46-4.87,16.45-7.51,6.03-2.65,11.87-5.42,16.11-8.39,4.19-2.95,6.83-6.15,5.92-9.31-.89-3.17-4.64-4.67-9.74-5.14-5.17-.46-11.72.08-18.21.78-6.5.7-12.91,1.53-17.95,1.69-.92.03-1.77.02-2.59,0-1.2-3.2-2.52-6.33-3.93-9.43.56-.59,1.15-1.19,1.82-1.82,3.68-3.46,8.88-7.45,13.92-11.53,10.11-8.13,20.02-17.11,16.65-22.84-.82-1.42-2.22-2.26-4.05-2.62-1.87-.34-4.15-.22-6.7.23-5.1.9-11.25,3.11-17.32,5.45-6.07,2.34-12.14,4.88-16.95,6.33-.88.26-1.7.48-2.48.66-1.99-2.77-4.04-5.5-6.2-8.13.38-.71.8-1.45,1.28-2.22,2.62-4.27,6.58-9.43,10.44-14.71,7.78-10.56,14.92-21.7,10.24-26.39-4.68-4.68-15.81,2.48-26.37,10.26-5.28,3.85-10.44,7.81-14.71,10.44-.77.48-1.51.89-2.22,1.28-2.63-2.16-5.36-4.21-8.13-6.2.19-.79.4-1.61.66-2.48,1.45-4.82,3.98-10.89,6.32-16.95,2.34-6.07,4.56-12.22,5.45-17.32.45-2.55.57-4.83.23-6.7-.37-1.83-1.2-3.23-2.62-4.05-5.72-3.37-14.71,6.54-22.84,16.65-4.08,5.04-8.07,10.24-11.53,13.92-.63.67-1.23,1.26-1.82,1.82-3.1-1.41-6.24-2.73-9.44-3.93-.02-.82-.03-1.67,0-2.59.15-5.04.98-11.45,1.68-17.95.69-6.49,1.24-13.04.78-18.21-.47-5.11-1.96-8.85-5.12-9.74-3.17-.9-6.37,1.73-9.32,5.92-2.98,4.24-5.75,10.08-8.4,16.11-2.64,6-5.13,12.03-7.51,16.45-.43.8-.86,1.53-1.28,2.22-3.35-.55-6.72-1.01-10.13-1.34-1.54-5.06-2.47-12.62-3.69-20.27-1.98-12.99-4.8-25.89-11.41-25.89-6.6,0-9.4,12.9-11.38,25.89-1.22,7.65-2.16,15.2-3.7,20.27-3.42.33-6.8.79-10.15,1.34-.43-.69-.85-1.41-1.28-2.22-2.38-4.43-4.87-10.46-7.51-16.45-2.65-6.03-5.42-11.87-8.4-16.1-2.96-4.19-6.16-6.83-9.33-5.92-3.16.89-4.66,4.63-5.12,9.74-.46,5.17.09,11.72.79,18.21.7,6.5,1.53,12.91,1.69,17.95.03.92.02,1.77,0,2.59-3.2,1.2-6.34,2.53-9.44,3.93-.59-.56-1.19-1.15-1.82-1.82-3.47-3.68-7.45-8.88-11.54-13.92-8.13-10.11-17.11-20.02-22.82-16.66-1.42.82-2.26,2.22-2.63,4.06-.35,1.87-.23,4.15.22,6.7.9,5.1,3.11,11.26,5.45,17.32,2.34,6.07,4.88,12.13,6.33,16.95.26.88.48,1.69.66,2.48-2.77,1.99-5.5,4.04-8.13,6.2-.71-.38-1.45-.8-2.22-1.28-4.27-2.62-9.44-6.58-14.72-10.43-10.56-7.78-21.69-14.93-26.37-10.25-4.69,4.69,2.46,15.82,10.24,26.39,3.85,5.28,7.81,10.44,10.44,14.71.48.77.89,1.51,1.28,2.22-2.16,2.63-4.21,5.35-6.2,8.12-.79-.19-1.6-.4-2.48-.66-4.82-1.45-10.88-3.99-16.95-6.33-6.07-2.34-12.22-4.56-17.32-5.45-2.55-.45-4.83-.57-6.7-.22-1.83.37-3.24,1.21-4.05,2.63-3.36,5.71,6.55,14.69,16.66,22.82,5.04,4.08,10.24,8.07,13.92,11.53.67.63,1.26,1.23,1.82,1.82-1.41,3.1-2.73,6.24-3.93,9.44-.82.02-1.67.03-2.59,0-5.04-.15-11.45-.99-17.95-1.68-6.49-.69-13.04-1.24-18.21-.77-5.11.47-8.86,1.97-9.74,5.14-.9,3.16,1.73,6.35,5.93,9.31,4.24,2.97,10.08,5.74,16.11,8.39,6,2.64,12.03,5.12,16.46,7.5.8.43,1.53.86,2.22,1.28-.55,3.35-1.01,6.73-1.34,10.15-5.06,1.54-12.62,2.48-20.27,3.7-12.99,1.98-25.89,4.79-25.89,11.39,0,6.61,12.9,9.43,25.89,11.41,7.65,1.22,15.2,2.16,20.27,3.69.33,3.42.79,6.8,1.34,10.15-.69.43-1.41.85-2.22,1.29-4.43,2.38-10.46,4.87-16.45,7.51-6.03,2.65-11.87,5.42-16.11,8.4-4.19,2.95-6.83,6.15-5.92,9.31.89,3.17,4.64,4.67,9.74,5.14,5.17.46,11.72-.08,18.21-.78,6.5-.7,12.91-1.53,17.95-1.69.92-.03,1.77-.02,2.59,0,1.2,3.2,2.52,6.33,3.93,9.43-.56.59-1.15,1.19-1.82,1.82-3.68,3.46-8.88,7.45-13.92,11.53-10.11,8.13-20.02,17.11-16.65,22.84.82,1.42,2.22,2.26,4.05,2.62,1.87.34,4.15.22,6.7-.23,5.1-.9,11.25-3.11,17.32-5.45,6.07-2.34,12.14-4.88,16.95-6.33.88-.26,1.7-.48,2.48-.66,1.99,2.77,4.04,5.5,6.2,8.13-.38.71-.8,1.45-1.28,2.22-2.62,4.27-6.58,9.43-10.44,14.71-7.78,10.56-14.92,21.7-10.24,26.39,4.68,4.68,15.81-2.48,26.37-10.26,5.28-3.85,10.44-7.81,14.71-10.44.77-.48,1.51-.89,2.22-1.28,2.63,2.16,5.36,4.21,8.13,6.2-.19.79-.4,1.61-.66,2.48-1.45,4.82-3.98,10.89-6.32,16.95-2.34,6.07-4.56,12.22-5.45,17.32-.45,2.55-.57,4.83-.23,6.7.37,1.83,1.2,3.23,2.62,4.05,5.72,3.37,14.71-6.54,22.84-16.65,4.08-5.04,8.07-10.24,11.53-13.92.63-.67,1.23-1.26,1.82-1.82,3.1,1.41,6.24,2.73,9.44,3.93.02.82.03,1.67,0,2.59-.15,5.04-.98,11.45-1.68,17.95-.69,6.49-1.24,13.04-.78,18.21.47,5.11,1.96,8.85,5.12,9.74,3.17.9,6.37-1.73,9.32-5.92,2.98-4.24,5.75-10.08,8.4-16.11,2.64-6,5.13-12.03,7.51-16.45.43-.8.86-1.53,1.28-2.22,3.35.55,6.72,1.01,10.13,1.34,1.54,5.06,2.48,12.62,3.69,20.27,1.98,12.99,4.8,25.89,11.41,25.89,6.6,0,9.41-12.9,11.38-25.89,1.22-7.65,2.16-15.2,3.7-20.27,3.42-.33,6.8-.79,10.15-1.34.43.69.85,1.41,1.28,2.22,2.38,4.43,4.87,10.46,7.51,16.45,2.65,6.03,5.42,11.87,8.4,16.1,2.96,4.19,6.16,6.83,9.33,5.92,3.16-.89,4.66-4.63,5.12-9.74.46-5.17-.09-11.72-.79-18.21-.7-6.5-1.54-12.91-1.69-17.95-.03-.92-.02-1.77,0-2.59,3.2-1.2,6.34-2.53,9.44-3.93.59.55,1.19,1.15,1.82,1.82,3.47,3.68,7.45,8.88,11.54,13.92,8.13,10.11,17.11,20.02,22.82,16.66,1.42-.82,2.26-2.22,2.63-4.06.34-1.87.23-4.15-.22-6.7-.89-5.1-3.11-11.26-5.45-17.32-2.34-6.07-4.88-12.13-6.33-16.95-.26-.88-.48-1.69-.66-2.48,2.77-1.99,5.5-4.04,8.13-6.2.71.38,1.45.8,2.22,1.28,4.27,2.62,9.43,6.58,14.72,10.43,10.56,7.78,21.69,14.93,26.37,10.25,4.69-4.69-2.46-15.82-10.24-26.39-3.85-5.28-7.81-10.44-10.44-14.71-.48-.77-.89-1.51-1.28-2.22,2.16-2.63,4.21-5.35,6.2-8.12.79.19,1.6.4,2.48.66,4.82,1.45,10.88,3.99,16.95,6.33,6.07,2.34,12.22,4.56,17.32,5.45,2.55.45,4.83.57,6.7.22,1.83-.37,3.24-1.21,4.05-2.63,3.36-5.71-6.55-14.69-16.66-22.82-5.04-4.08-10.24-8.07-13.92-11.53-.67-.63-1.26-1.23-1.82-1.82,1.41-3.1,2.73-6.24,3.93-9.44.82-.02,1.67-.03,2.59,0,5.04.15,11.45.99,17.95,1.68,6.49.69,13.04,1.24,18.21.77,5.11-.47,8.86-1.97,9.74-5.14.9-3.16-1.73-6.35-5.93-9.31-4.24-2.97-10.08-5.74-16.11-8.39-6-2.64-12.03-5.12-16.46-7.5-.8-.43-1.53-.86-2.22-1.28.55-3.35,1.01-6.73,1.34-10.15,5.06-1.54,12.62-2.48,20.27-3.7Z"/>
</svg>