<?xml version="1.0" encoding="UTF-8"?>
<svg id="Layer_1" data-name="Layer 1" xmlns="http://www.w3.org/2000/svg" viewBox="0 0 500 500">
  <defs>
    <style>
      .cls-1 {
        fill: #ee2a7b;
      }
    </style>
  </defs>
  <path class="cls-1" d="m418.67,203.92l31.33-46.08-31.33-46.07,26.74-57.15-57.16,26.74-46.09-31.33-46.08,31.33-46.08-31.33-46.08,31.33-46.08-31.33v-.03l-46.07,31.33-57.15-26.74,26.74,57.16-31.33,46.09,31.33,46.08-31.33,46.08,31.33,46.08-31.33,46.08h-.03l31.33,46.07-26.74,57.15,57.16-26.74,46.09,31.33,46.08-31.33,46.08,31.33,46.08-31.33,46.08,31.33v.03l46.07-31.33,57.15,26.74-26.74-57.16,31.33-46.09h.03l-31.33-46.08,31.33-46.08-31.33-46.08Z"/>
</svg>