<?xml version="1.0" encoding="UTF-8"?>
<svg id="Layer_1" data-name="Layer 1" xmlns="http://www.w3.org/2000/svg" viewBox="0 0 500 500">
  <defs>
    <style>
      .cls-1 {
        fill: #ee2a7b;
      }
    </style>
  </defs>
  <path class="cls-1" d="m240.36,198.1l-211.61,23.11c-5.9.64-11.06-3.96-11.09-9.9l-.76-183.84c-.02-5.54,4.46-10.04,10-10.04h193.67c5.08,0,9.35,3.8,9.93,8.84l18.7,160.73c.64,5.51-3.33,10.49-8.85,11.1Z"/>
  <path class="cls-1" d="m163.63,339.42l-135.6,8.54c-5.75.36-10.61-4.2-10.63-9.96l-.23-96.2c-.01-5.09,3.8-9.38,8.86-9.96l121.49-13.96c5.39-.62,10.29,3.17,11.04,8.54l14.35,101.63c.81,5.77-3.46,11.01-9.27,11.38Z"/>
  <path class="cls-1" d="m192.07,482.39l-164.03.34c-5.51.01-9.99-4.43-10.02-9.94l-.63-104.06c-.03-5.31,4.09-9.72,9.39-10.04l176.78-10.75c6.17-.38,11.2,4.88,10.55,11.03l-12.12,114.47c-.54,5.08-4.82,8.94-9.92,8.95Z"/>
  <path class="cls-1" d="m348.53,482.48l-125.89.24c-5.88.01-10.5-5.03-9.98-10.89l10.41-116.93c.44-4.91,4.39-8.78,9.32-9.09l108.71-6.99c5.55-.36,10.32,3.88,10.63,9.43l6.78,123.68c.31,5.72-4.24,10.54-9.97,10.55Z"/>
  <path class="cls-1" d="m472.64,482.95l-93.98-.7c-5.29-.04-9.63-4.19-9.91-9.47l-6.61-125.02c-.29-5.47,3.87-10.15,9.33-10.51l100.1-6.56c5.75-.38,10.63,4.18,10.65,9.94l.49,132.29c.02,5.57-4.51,10.08-10.07,10.04Z"/>
  <path class="cls-1" d="m288.56,331.98l-94.46,5.65c-5.21.31-9.79-3.44-10.5-8.61l-14.27-103.03c-.77-5.57,3.2-10.68,8.79-11.31l106.19-11.94c5.84-.66,10.98,3.83,11.11,9.71l2.53,109.32c.12,5.38-4.03,9.89-9.4,10.21Z"/>
  <path class="cls-1" d="m473.6,320.7l-154.84,9.68c-5.68.35-10.51-4.09-10.62-9.78l-2.24-110.68c-.1-5.18,3.77-9.58,8.92-10.14l156.44-17.01c5.89-.64,11.05,3.96,11.08,9.89l.64,118.01c.03,5.3-4.08,9.7-9.38,10.03Z"/>
  <path class="cls-1" d="m473.73,172.37l-203.65,22.05c-5.48.59-10.41-3.36-11.02-8.85l-17.26-156.71c-.65-5.91,3.96-11.08,9.91-11.1l220.91-.69c5.53-.02,10.03,4.46,10.03,10v135.35c0,5.11-3.85,9.39-8.92,9.94Z"/>
</svg>