<?xml version="1.0" encoding="utf-8"?>
<!-- Generator: Adobe Illustrator 27.5.0, SVG Export Plug-In . SVG Version: 6.00 Build 0)  -->
<svg version="1.1" id="Layer_1" xmlns="http://www.w3.org/2000/svg" xmlns:xlink="http://www.w3.org/1999/xlink" x="0px" y="0px"
	 viewBox="0 0 500 500" style="enable-background:new 0 0 500 500;" xml:space="preserve">
<g>
	<g>
		<path d="M234.5,472c-6.2,0-12.1-0.8-17.6-2.3c-49.3-13.6-67.7-88.3-91.1-182.7c-10.8-43.8-24.3-98.2-29.3-146.6
			c-2.7-26.3-2.5-48.1,0.5-64.9c3.5-19.4,11-32.8,22.2-39.9c7.8-5,18.3-7.5,31.2-7.5c54,0,135.3,43.1,189.2,100.3
			c31.9,33.8,69.1,87.8,65.2,152.9c-2.6,44.5-25.1,92.5-61.6,131.5C308.8,449.8,268.1,472,234.5,472z"/>
		<path d="M150.6,28.4c25.3,0,58,9.7,92.1,27.4c35.5,18.4,69.9,44.2,96.8,72.8c21.4,22.7,37.9,46.6,49,71.1
			c12.3,27.2,17.8,54.6,16.2,81.5c-2.6,44.5-25,92.3-61.5,131.3c-16.6,17.7-35.2,32.6-54,42.9c-19.2,10.6-38.1,16.2-54.6,16.2
			c-6.1,0-12-0.8-17.5-2.3c-49.1-13.6-67.5-88.1-90.8-182.4C115.5,243.1,102,188.7,97,140.3c-2.7-26.2-2.5-48.1,0.5-64.8
			c3.5-19.3,10.9-32.6,22-39.7C127.4,30.9,137.8,28.4,150.6,28.4L150.6,28.4 M150.6,27.6c-12.6,0-23.3,2.4-31.4,7.5
			c-48.4,30.6-14.9,166,6.3,251.9c23.5,94.9,41.8,169.3,91.4,183c5.6,1.6,11.5,2.3,17.7,2.3c69,0,165.1-94.5,170.9-191.1
			C413.5,144,237.8,27.6,150.6,27.6L150.6,27.6z"/>
	</g>
</g>
</svg>
