<?xml version="1.0" encoding="utf-8"?>
<!-- Generator: Adobe Illustrator 27.5.0, SVG Export Plug-In . SVG Version: 6.00 Build 0)  -->
<svg version="1.1" id="Layer_1" xmlns="http://www.w3.org/2000/svg" xmlns:xlink="http://www.w3.org/1999/xlink" x="0px" y="0px"
	 viewBox="0 0 500 500" style="enable-background:new 0 0 500 500;" xml:space="preserve">
<style type="text/css">
	.st0{fill:#E6E7E8;stroke:#231F20;stroke-linecap:round;stroke-miterlimit:10;}
</style>
<path class="st0" d="M464.4,298H36.3c-6.6,0-12-5.4-12-12V28c0-6.6,5.4-12,12-12h428.1c6.6,0,12,5.4,12,12v258
	C476.4,292.6,471,298,464.4,298z"/>
<path class="st0" d="M362,469H140c-6.6,0-12-5.4-12-12V319.8c0-6.6,5.4-12,12-12h222c6.6,0,12,5.4,12,12V457
	C374,463.6,368.6,469,362,469z"/>
</svg>
