<?xml version="1.0" encoding="utf-8"?>
<!-- Generator: Adobe Illustrator 27.5.0, SVG Export Plug-In . SVG Version: 6.00 Build 0)  -->
<svg version="1.1" id="Layer_1" xmlns="http://www.w3.org/2000/svg" xmlns:xlink="http://www.w3.org/1999/xlink" x="0px" y="0px"
	 viewBox="0 0 500 500" style="enable-background:new 0 0 500 500;" xml:space="preserve">
<style type="text/css">
	.st0{fill:#FF3399;}
</style>
<polygon class="st0" points="229.6,269.6 146,229.2 65.3,275.2 77.9,183.2 9.3,120.6 100.7,104.2 138.9,19.5 182.8,101.4 
	275.1,111.6 210.9,178.7 "/>
<polygon class="st0" points="443.6,348.6 360,308.2 279.3,354.2 291.9,262.2 223.3,199.6 314.7,183.2 352.9,98.5 396.8,180.4 
	489.1,190.6 424.9,257.7 "/>
<polygon class="st0" points="229.6,490.6 146,450.2 65.3,496.2 77.9,404.2 9.3,341.6 100.7,325.2 138.9,240.5 182.8,322.4 
	275.1,332.6 210.9,399.7 "/>
</svg>
