<?xml version="1.0" encoding="utf-8"?>
<!-- Generator: Adobe Illustrator 27.5.0, SVG Export Plug-In . SVG Version: 6.00 Build 0)  -->
<svg version="1.1" id="Layer_1" xmlns="http://www.w3.org/2000/svg" xmlns:xlink="http://www.w3.org/1999/xlink" x="0px" y="0px"
	 viewBox="0 0 500 500" style="enable-background:new 0 0 500 500;" xml:space="preserve">
<style type="text/css">
	.st0{fill:#FF3399;}
</style>
<path id="_x3C_view2_x3E_" class="st0" d="M115.5,218.3C51.5,218.9-9.6,114.5,11.6,52.2c6.1-18,22.7-43,41.7-43.4
	c24.2-0.4,33.5,39.5,57.2,38.3c22-1,25.9-35.8,52.2-40.6c20-3.5,42.6,11.9,52.3,27.3C247.4,85.2,187.3,217.7,115.5,218.3z"/>
<path id="_x3C_view1_x3E__00000067951509432673176920000007117464074911352228_" class="st0" d="M332.2,491
	c-91.1,0.8-178-147.7-147.8-236.4c8.7-25.5,32.2-61.2,59.3-61.7c34.4-0.6,47.6,56.1,81.4,54.5c31.3-1.5,36.8-51,74.3-57.7
	c28.4-5.1,60.5,16.9,74.3,38.7C519.8,301.6,434.4,490.1,332.2,491z"/>
</svg>
