<?xml version="1.0" encoding="UTF-8"?>
<svg id="Layer_2" data-name="Layer 2" xmlns="http://www.w3.org/2000/svg" viewBox="0 0 68.75 100.72">
  <defs>
    <style>
      .cls-1 {
        fill: #261200;
      }
    </style>
  </defs>
  <g id="_ÎÓÈ_1" data-name="—ÎÓÈ_1">
    <path class="cls-1" d="M67.5,51.06l1.25-.7-1.25-.7c-7.63-4.23-5.83-13.61-4.09-22.67.53-2.77,1.03-5.38,1.24-7.77.29-3.36.33-7.18-1.55-10.09-2.2-3.39-6.5-5.61-10.51-5.31-1.66.12-3.29.58-4.87,1.02-2,.56-3.89,1.09-5.79.98-2.71-.16-4.83-1.64-6.88-4.8l-.67-1.03-.67,1.03c-2.05,3.16-4.17,4.64-6.88,4.8-1.91.11-3.79-.42-5.8-.98-1.58-.44-3.21-.9-4.87-1.02-3.98-.29-8.31,1.91-10.51,5.31-1.88,2.91-1.84,6.74-1.55,10.09.21,2.38.71,5,1.24,7.76,1.74,9.06,3.54,18.44-4.09,22.67l-1.26.7,1.26.7c7.63,4.23,5.83,13.61,4.09,22.67-.53,2.77-1.03,5.38-1.24,7.76-.29,3.36-.33,7.18,1.55,10.09,2.19,3.39,6.52,5.61,10.51,5.31,1.66-.12,3.29-.58,4.87-1.02,2-.56,3.89-1.09,5.79-.98,2.71.16,4.83,1.64,6.88,4.8l.67,1.03.67-1.03c2.05-3.16,4.17-4.64,6.88-4.8,1.9-.11,3.79.42,5.79.98,1.58.44,3.21.9,4.87,1.02.24.02.48.03.72.03h0c3.79,0,7.72-2.14,9.79-5.33,1.88-2.91,1.84-6.73,1.55-10.09-.2-2.39-.71-5-1.24-7.77-1.74-9.06-3.54-18.44,4.09-22.67Z"/>
  </g>
</svg>