<?xml version="1.0" encoding="UTF-8"?>
<svg id="Layer_2" data-name="Layer 2" xmlns="http://www.w3.org/2000/svg" viewBox="0 0 78.28 102.28">
  <defs>
    <style>
      .cls-1 {
        fill: #261200;
      }
    </style>
  </defs>
  <g id="_ÎÓÈ_1" data-name="—ÎÓÈ_1">
    <path class="cls-1" d="M39.14,102.28c5.72,0,11.15-1.6,16.04-4.48h9.86c3.5,0,6.34-3.04,6.34-6.78v-10.89c4.34-8.24,6.89-18.22,6.89-28.98s-2.55-20.74-6.89-28.98v-10.89c0-3.75-2.84-6.79-6.34-6.79h-9.86C50.29,1.6,44.85,0,39.14,0s-11.15,1.6-16.04,4.48h-9.86c-3.5,0-6.34,3.04-6.34,6.79v10.89C2.55,30.4,0,40.38,0,51.14s2.55,20.74,6.89,28.98v10.89c0,3.75,2.84,6.78,6.34,6.78h9.86c4.9,2.88,10.33,4.48,16.04,4.48Z"/>
  </g>
</svg>