<?xml version="1.0" encoding="UTF-8"?>
<svg id="Layer_2" data-name="Layer 2" xmlns="http://www.w3.org/2000/svg" viewBox="0 0 86.99 86.99">
  <defs>
    <style>
      .cls-1 {
        fill: #261200;
      }
    </style>
  </defs>
  <g id="_ÎÓÈ_1" data-name="—ÎÓÈ_1">
    <path class="cls-1" d="M84.81,38.22l-10.81-10.81v-7.51c0-3.81-3.09-6.9-6.9-6.9h-7.51l-10.81-10.81c-2.92-2.91-7.63-2.91-10.55,0l-10.81,10.81h-7.51c-3.81,0-6.9,3.09-6.9,6.9v7.51l-10.81,10.81c-2.91,2.91-2.91,7.63,0,10.55l10.81,10.81v7.51c0,3.81,3.09,6.9,6.9,6.9h7.51l10.81,10.81c2.91,2.91,7.63,2.91,10.55,0l10.81-10.81h7.51c3.81,0,6.9-3.09,6.9-6.9v-7.51l10.81-10.81c2.91-2.91,2.91-7.63,0-10.55Z"/>
  </g>
</svg>